{
.appVersion = "911";
copyright = "Copyright (c) 2011, The Abel Project Authors (mattdesmond@gmail.com)";
customParameters = (
{
name = licenseURL;
value = "http://scripts.sil.org/OFL";
},
{
name = description;
value = "Abel is a modern interpretation of the condensed flat-sided sans serif. Originally used for newspaper headlines and posters, this style can also be used for text on the web. Its angled terminals and spiked stems give it enough style to be unique at display sizes, while its mono-weight still works well at smaller text sizes.";
},
{
name = trademark;
value = "Abel is a trademark of Matthew Desmond.";
},
{
name = license;
value = "This Font Software is licensed under the SIL Open Font License, Version 1.1. This license is available with a FAQ at: http://scripts.sil.org/OFL";
},
{
name = vendorID;
value = MADT;
},
{
name = fsType;
value = 0;
},
{
name = "Use Typo Metrics";
value = 1;
}
);
date = "2016-08-24 09:12:22 +0000";
designer = "Matthew Desmond";
designerURL = "http://www.madtype.com";
familyName = Abel;
featurePrefixes = (
{
automatic = 1;
code = "languagesystem DFLT dflt;\012languagesystem latn dflt;\012languagesystem latn CAT;\012";
name = Languagesystems;
}
);
features = (
{
automatic = 1;
code = "feature locl;\012feature sups;\012feature frac;\012feature ordn;\012";
name = aalt;
},
{
automatic = 1;
code = "script latn;\012language CAT;\012sub  l' periodcentered' l by ldot;\012";
name = locl;
},
{
automatic = 1;
code = "sub one by onesuperior;\012sub two by twosuperior;\012sub three by threesuperior;\012";
name = sups;
},
{
automatic = 1;
code = "sub one slash four by onequarter;\012sub one slash two by onehalf;\012sub three slash four by threequarters;\012";
name = frac;
},
{
automatic = 1;
code = "sub [zero one two three four five six seven eight nine] [A a]' by ordfeminine;\012sub [zero one two three four five six seven eight nine] [O o]' by ordmasculine;\012";
name = ordn;
}
);
fontMaster = (
{
alignmentZones = (
"{700, 10}",

glyphs = (
{
glyphname = A;
lastChange = "2016-08-24 09:13:07 +0000";
layers = (
{
background = {
paths = (
{
closed = 1;
nodes = (
"454 0 LINE",
"248 700 LINE",
"215 700 LINE",
"10 0 LINE",
"75 0 LINE",
"123 163 LINE",
"341 163 LINE",
"389 0 LINE"
);
},
{
closed = 1;
nodes = (
"324 223 LINE",
"140 223 LINE",
"230 529 LINE",
"232 555 LINE",
"234 529 LINE"
);
},
{
closed = 1;
nodes = (
"454 0 LINE",
"391 0 LINE",
"234 542 LINE",
"232 568 LINE",
"230 542 LINE",
"73 0 LINE",
"10 0 LINE",
"216 710 LINE",
"249 710 LINE"
);
},
{
closed = 1;
nodes = (
"92 223 LINE",
"372 223 LINE",
"372 163 LINE",
"92 163 LINE"
);
}
);
};
hints = (
{
horizontal = 1;
place = "{163, 60}";
},
{
horizontal = 1;
place = "{0, 21}";
target = up;
type = BottomGhost;
},
{
horizontal = 1;
place = "{700, -20}";
target = down;
type = TopGhost;
}
);
layerId = UUID0;
paths = (
{
closed = 1;
nodes = (
"389 0 LINE",
"454 0 LINE",
"248 700 LINE",
"215 700 LINE",
"10 0 LINE",
"75 0 LINE",
"121 163 LINE",
"343 163 LINE"
);
},
{
closed = 1;
nodes = (
"230 546 LINE",
"232 572 LINE",
"234 546 LINE",
"326 223 LINE",
"138 223 LINE"
);
}
);
width = 464;
}
);
unicode = 0041;
},
{
glyphname = Aring;
lastChange = "2016-08-24 09:13:07 +0000";
layers = (
{
hints = (
{
place = "{129, 50}";
},
{
place = "{286, 50}";
},
{
horizontal = 1;
place = "{810, 49}";
},
{
horizontal = 1;
place = "{163, 60}";
},
{
horizontal = 1;
place = "{0, 21}";
target = up;
type = BottomGhost;
},
{
horizontal = 1;
place = "{701, -20}";
target = down;
type = TopGhost;
}
);
layerId = UUID0;
paths = (
{
closed = 1;
nodes = (
"129 708 OFFCURVE",
"159 669 OFFCURVE",
"202 656 CURVE",
"10 0 LINE",
"75 0 LINE",
"121 163 LINE",
"343 163 LINE",
"389 0 LINE",
"454 0 LINE",
"261 656 LINE",
"304 668 OFFCURVE",
"336 708 OFFCURVE",
"336 755 CURVE SMOOTH",
"336 812 OFFCURVE",
"289 859 OFFCURVE",
"232 859 CURVE SMOOTH",
"175 859 OFFCURVE",
"129 812 OFFCURVE",
"129 755 CURVE SMOOTH"
);
},
{
closed = 1;
nodes = (
"230 546 LINE",
"232 572 LINE",
"234 546 LINE",
"326 223 LINE",
"138 223 LINE"
);
},
{
closed = 1;
nodes = (
"179 785 OFFCURVE",
"203 810 OFFCURVE",
"232 810 CURVE SMOOTH",
"262 810 OFFCURVE",
"286 785 OFFCURVE",
"286 755 CURVE SMOOTH",
"286 726 OFFCURVE",
"262 701 OFFCURVE",
"232 701 CURVE SMOOTH",
"203 701 OFFCURVE",
"179 726 OFFCURVE",
"179 755 CURVE SMOOTH"
);
}
);
width = 464;
}
);
unicode = 00C5;
},
{
glyphname = AE;
lastChange = "2016-08-24 09:13:07 +0000";
layers = (
{
background = {
paths = (
{
closed = 1;
nodes = (
"391 0 LINE",
"185 700 LINE",
"152 700 LINE",
"-53 0 LINE",
"12 0 LINE",
"60 163 LINE",
"278 163 LINE",
"326 0 LINE"
);
},
{
closed = 1;
nodes = (
"261 223 LINE",
"77 223 LINE",
"167 529 LINE",
"169 555 LINE",
"171 529 LINE"
);
},
{
closed = 1;
nodes = (
"391 0 LINE",
"328 0 LINE",
"171 542 LINE",
"169 568 LINE",
"167 542 LINE",
"10 0 LINE",
"-53 0 LINE",
"153 710 LINE",
"186 710 LINE"
);
},
{
closed = 1;
nodes = (
"29 223 LINE",
"309 223 LINE",
"309 163 LINE",
"29 163 LINE"
);
}
);
};
hints = (
{
place = "{429, 63}";
},
{
horizontal = 1;
place = "{0, 60}";
},
{
horizontal = 1;
place = "{163, 60}";
},
{
horizontal = 1;
place = "{320, 60}";
},
{
horizontal = 1;
place = "{640, 60}";
}
);
layerId = UUID0;
paths = (
{
closed = 1;
nodes = (
"823 0 LINE",
"823 60 LINE",
"492 60 LINE",
"492 320 LINE",
"760 320 LINE",
"760 380 LINE",
"492 380 LINE",
"492 640 LINE",
"823 640 LINE",
"823 700 LINE",
"429 700 LINE",
"10 0 LINE",
"75 0 LINE",
"172 163 LINE",
"429 163 LINE",
"429 0 LINE"
);
},
{
closed = 1;
nodes = (
"208 223 LINE",
"419 574 LINE",
"429 600 LINE",
"429 223 LINE"
);
}
);
width = 863;
}
);
unicode = 00C6;
},
{
glyphname = B;
lastChange = "2016-08-24 09:13:07 +0000";
layers = (
{
hints = (
{
place = "{80, 63}";
},
{
place = "{411, 63}";
},
{
horizontal = 1;
place = "{0, 60}";
},
{
horizontal = 1;
place = "{339, 60}";
},
{
horizontal = 1;
place = "{640, 60}";
}
);
layerId = UUID0;
paths = (
{
closed = 1;
nodes = (
"474 217 LINE SMOOTH",
"474 283 OFFCURVE",
"437 340 OFFCURVE",
"383 369 CURVE",
"437 398 OFFCURVE",
"474 455 OFFCURVE",
"474 521 CURVE SMOOTH",
"474 528 LINE SMOOTH",
"474 623 OFFCURVE",
"397 700 OFFCURVE",
"302 700 CURVE SMOOTH",
"80 700 LINE",
"80 0 LINE",
"302 0 LINE SMOOTH",
"397 0 OFFCURVE",
"474 77 OFFCURVE",
"474 172 CURVE SMOOTH"
);
},
{
closed = 1;
nodes = (
"411 172 LINE SMOOTH",
"411 110 OFFCURVE",
"361 60 OFFCURVE",
"299 60 CURVE SMOOTH",
"143 60 LINE",
"143 339 LINE",
"299 339 LINE SMOOTH",
"361 339 OFFCURVE",
"411 289 OFFCURVE",
"411 227 CURVE SMOOTH"
);
},
{
closed = 1;
nodes = (
"411 511 LINE SMOOTH",
"411 449 OFFCURVE",
"361 399 OFFCURVE",
"299 399 CURVE SMOOTH",
"143 399 LINE",
"143 640 LINE",
"299 640 LINE SMOOTH",
"361 640 OFFCURVE",
"411 590 OFFCURVE",
"411 528 CURVE SMOOTH"
);
}
);
width = 514;
}
);
unicode = 0042;
},
{
glyphname = C;
lastChange = "2016-08-24 09:13:07 +0000";
layers = (
{
hints = (
{
place = "{70, 63}";
},
{
place = "{401, 63}";
},
{
horizontal = 1;
place = "{-10, 60}";
},
{
horizontal = 1;
place = "{650, 60}";
}
);
layerId = UUID0;
paths = (
{
closed = 1;
nodes = (
"464 190 LINE",
"401 200 LINE",
"401 162 LINE SMOOTH",
"401 100 OFFCURVE",
"351 50 OFFCURVE",
"289 50 CURVE SMOOTH",
"245 50 LINE SMOOTH",
"183 50 OFFCURVE",
"133 100 OFFCURVE",
"133 162 CURVE SMOOTH",
"133 538 LINE SMOOTH",
"133 600 OFFCURVE",
"183 650 OFFCURVE",
"245 650 CURVE SMOOTH",
"289 650 LINE SMOOTH",
"351 650 OFFCURVE",
"401 600 OFFCURVE",
"401 538 CURVE SMOOTH",
"401 500 LINE",
"464 510 LINE",
"464 538 LINE SMOOTH",
"464 633 OFFCURVE",
"387 710 OFFCURVE",
"292 710 CURVE SMOOTH",
"242 710 LINE SMOOTH",
"147 710 OFFCURVE",
"70 633 OFFCURVE",
"70 538 CURVE SMOOTH",
"70 162 LINE SMOOTH",
"70 67 OFFCURVE",
"147 -10 OFFCURVE",
"242 -10 CURVE SMOOTH",
"292 -10 LINE SMOOTH",
"387 -10 OFFCURVE",
"464 67 OFFCURVE",
"464 162 CURVE SMOOTH"
);
}
);
width = 524;
}
);
unicode = 0043;
},
{
glyphname = D;
lastChange = "2016-08-24 09:13:07 +0000";
layers = (
{
hints = (
{
place = "{80, 63}";
},
{
place = "{411, 63}";
},
{
horizontal = 1;
place = "{0, 60}";
},
{
horizontal = 1;
place = "{640, 60}";
}
);
layerId = UUID0;
paths = (
{
closed = 1;
nodes = (
"474 528 LINE SMOOTH",
"474 623 OFFCURVE",
"397 700 OFFCURVE",
"302 700 CURVE SMOOTH",
"80 700 LINE",
"80 0 LINE",
"302 0 LINE SMOOTH",
"397 0 OFFCURVE",
"474 77 OFFCURVE",
"474 172 CURVE SMOOTH"
);
},
{
closed = 1;
nodes = (
"411 172 LINE SMOOTH",
"411 110 OFFCURVE",
"361 60 OFFCURVE",
"299 60 CURVE SMOOTH",
"143 60 LINE",
"143 640 LINE",
"299 640 LINE SMOOTH",
"361 640 OFFCURVE",
"411 590 OFFCURVE",
"411 528 CURVE SMOOTH"
);
}
);
width = 544;
}
);
unicode = 0044;
},
{
glyphname = Eth;
lastChange = "2016-08-24 09:13:07 +0000";
layers = (
{
hints = (
{
place = "{92, 63}";
},
{
place = "{423, 63}";
},
{
horizontal = 1;
place = "{0, 60}";
},
{
horizontal = 1;
place = "{285, 50}";
},
{
horizontal = 1;
place = "{640, 60}";
}
);
layerId = UUID0;
paths = (
{
closed = 1;
nodes = (
"30 335 LINE",
"30 285 LINE",
"92 285 LINE",
"92 0 LINE",
"314 0 LINE SMOOTH",
"409 0 OFFCURVE",
"486 77 OFFCURVE",
"486 172 CURVE SMOOTH",
"486 528 LINE SMOOTH",
"486 623 OFFCURVE",
"409 700 OFFCURVE",
"314 700 CURVE SMOOTH",
"92 700 LINE",
"92 335 LINE"
);
},
{
closed = 1;
nodes = (
"423 172 LINE SMOOTH",
"423 110 OFFCURVE",
"373 60 OFFCURVE",
"311 60 CURVE SMOOTH",
"155 60 LINE",
"155 285 LINE",
"272 285 LINE",
"272 335 LINE",
"155 335 LINE",
"155 640 LINE",
"311 640 LINE SMOOTH",
"373 640 OFFCURVE",
"423 590 OFFCURVE",
"423 528 CURVE SMOOTH"
);
}
);
width = 556;
}
);
unicode = 00D0;
},
{
glyphname = E;
lastChange = "2016-08-24 09:13:07 +0000";
layers = (
{
hints = (
{
place = "{80, 63}";
},
{
horizontal = 1;
place = "{0, 60}";
},
{
horizontal = 1;
place = "{320, 60}";
},
{
horizontal = 1;
place = "{640, 60}";
}
);
layerId = UUID0;
paths = (
{
closed = 1;
nodes = (
"474 0 LINE",
"474 60 LINE",
"143 60 LINE",
"143 320 LINE",
"411 320 LINE",
"411 380 LINE",
"143 380 LINE",
"143 640 LINE",
"474 640 LINE",
"474 700 LINE",
"80 700 LINE",
"80 0 LINE"
);
}
);
width = 514;
}
);
unicode = 0045;
},
{
glyphname = F;
lastChange = "2016-08-24 09:13:07 +0000";
layers = (
{
hints = (
{
place = "{80, 63}";
},
{
horizontal = 1;
place = "{320, 60}";
},
{
horizontal = 1;
place = "{640, 60}";
},
{
horizontal = 1;
place = "{0, 21}";
target = up;
type = BottomGhost;
}
);
layerId = UUID0;
paths = (
{
closed = 1;
nodes = (
"474 640 LINE",
"474 700 LINE",
"80 700 LINE",
"80 0 LINE",
"143 0 LINE",
"143 320 LINE",
"411 320 LINE",
"411 380 LINE",
"143 380 LINE",
"143 640 LINE"
);
}
);
width = 494;
}
);
unicode = 0046;
},
{
glyphname = G;
lastChange = "2016-08-24 09:13:07 +0000";
layers = (
{
hints = (
{
place = "{70, 63}";
},
{
place = "{401, 63}";
},
{
horizontal = 1;
place = "{-10, 60}";
},
{
horizontal = 1;
place = "{308, 60}";
},
{
horizontal = 1;
place = "{650, 60}";
},
{
horizontal = 1;
place = "{0, 21}";
target = up;
type = BottomGhost;
}
);
layerId = UUID0;
paths = (
{
closed = 1;
nodes = (
"464 368 LINE",
"289 368 LINE",
"289 308 LINE",
"401 308 LINE",
"401 162 LINE SMOOTH",
"401 100 OFFCURVE",
"351 50 OFFCURVE",
"289 50 CURVE SMOOTH",
"245 50 LINE SMOOTH",
"183 50 OFFCURVE",
"133 100 OFFCURVE",
"133 162 CURVE SMOOTH",
"133 538 LINE SMOOTH",
"133 600 OFFCURVE",
"183 650 OFFCURVE",
"245 650 CURVE SMOOTH",
"289 650 LINE SMOOTH",
"351 650 OFFCURVE",
"401 600 OFFCURVE",
"401 538 CURVE SMOOTH",
"401 500 LINE",
"464 510 LINE",
"464 538 LINE SMOOTH",
"464 633 OFFCURVE",
"387 710 OFFCURVE",
"292 710 CURVE SMOOTH",
"242 710 LINE SMOOTH",
"147 710 OFFCURVE",
"70 633 OFFCURVE",
"70 538 CURVE SMOOTH",
"70 162 LINE SMOOTH",
"70 67 OFFCURVE",
"147 -10 OFFCURVE",
"242 -10 CURVE SMOOTH",
"279 -10 LINE SMOOTH",
"332 -10 OFFCURVE",
"377 16 OFFCURVE",
"407 56 CURVE",
"444 0 LINE",
"464 0 LINE"
);
}
);
width = 534;
}
);
unicode = 0047;
},
{
glyphname = H;
lastChange = "2016-08-24 09:13:07 +0000";
layers = (
{
hints = (
{
place = "{80, 63}";
},
{
place = "{411, 63}";
},
{
horizontal = 1;
place = "{320, 60}";
},
{
horizontal = 1;
place = "{0, 21}";
target = up;
type = BottomGhost;
},
{
horizontal = 1;
place = "{700, -20}";
target = down;
type = TopGhost;
}
);
layerId = UUID0;
paths = (
{
closed = 1;
nodes = (
"474 0 LINE",
"474 700 LINE",
"411 700 LINE",
"411 380 LINE",
"143 380 LINE",
"143 700 LINE",
"80 700 LINE",
"80 0 LINE",
"143 0 LINE",
"143 320 LINE",
"411 320 LINE",
"411 0 LINE"
);
}
);
width = 554;
}
);
unicode = 0048;
},
{
glyphname = I;
lastChange = "2016-08-24 09:13:07 +0000";
layers = (
{
hints = (
{
place = "{80, 63}";
},
{
horizontal = 1;
place = "{0, 21}";
target = up;
type = BottomGhost;
},
{
horizontal = 1;
place = "{700, -20}";
target = down;
type = TopGhost;
}
);
layerId = UUID0;
paths = (
{
closed = 1;
nodes = (
"143 0 LINE",
"143 700 LINE",
"80 700 LINE",
"80 0 LINE"
);
}
);
width = 223;
}
);
unicode = 0049;
},
{
glyphname = J;
lastChange = "2016-08-24 09:13:07 +0000";
layers = (
{
hints = (
{
place = "{30, 63}";
},
{
place = "{331, 63}";
},
{
horizontal = 1;
place = "{-10, 60}";
},
{
horizontal = 1;
place = "{700, -20}";
target = down;
type = TopGhost;
}
);
layerId = UUID0;
paths = (
{
closed = 1;
nodes = (
"394 700 LINE",
"331 700 LINE",
"331 162 LINE SMOOTH",
"331 100 OFFCURVE",
"281 50 OFFCURVE",
"219 50 CURVE SMOOTH",
"205 50 LINE SMOOTH",
"143 50 OFFCURVE",
"93 100 OFFCURVE",
"93 162 CURVE SMOOTH",
"93 200 LINE",
"30 190 LINE",
"30 162 LINE SMOOTH",
"30 67 OFFCURVE",
"107 -10 OFFCURVE",
"202 -10 CURVE SMOOTH",
"222 -10 LINE SMOOTH",
"317 -10 OFFCURVE",
"394 67 OFFCURVE",
"394 162 CURVE SMOOTH"
);
}
);
width = 454;
}
);
unicode = 004A;
},
{
glyphname = K;
lastChange = "2016-08-24 09:13:07 +0000";
layers = (
{
hints = (
{
place = "{80, 63}";
},
{
horizontal = 1;
place = "{0, 21}";
target = up;
type = BottomGhost;
},
{
horizontal = 1;
place = "{700, -20}";
target = down;
type = TopGhost;
}
);
layerId = UUID0;
paths = (
{
closed = 1;
nodes = (
"500 0 LINE",
"231 350 LINE",
"500 700 LINE",
"422 700 LINE",
"158 350 LINE",
"422 0 LINE"
);
},
{
closed = 1;
nodes = (
"143 0 LINE",
"143 700 LINE",
"80 700 LINE",
"80 0 LINE"
);
}
);
width = 520;
}
);
unicode = 004B;
},
{
glyphname = L;
lastChange = "2016-08-24 09:13:07 +0000";
layers = (
{
hints = (
{
place = "{70, 63}";
},
{
horizontal = 1;
place = "{0, 60}";
},
{
horizontal = 1;
place = "{700, -20}";
target = down;
type = TopGhost;
}
);
layerId = UUID0;
paths = (
{
closed = 1;
nodes = (
"401 0 LINE",
"401 60 LINE",
"133 60 LINE",
"133 700 LINE",
"70 700 LINE",
"70 0 LINE"
);
}
);
width = 421;
}
);
unicode = 004C;
},
{
glyphname = Ldotaccent;
lastChange = "2016-08-24 09:13:07 +0000";
layers = (
{
hints = (
{
place = "{70, 63}";
},
{
place = "{249, 75}";
},
{
horizontal = 1;
place = "{0, 60}";
},
{
horizontal = 1;
place = "{320, 75}";
},
{
horizontal = 1;
place = "{700, -20}";
target = down;
type = TopGhost;
}
);
layerId = UUID0;
paths = (
{
closed = 1;
nodes = (
"401 0 LINE",
"401 60 LINE",
"133 60 LINE",
"133 700 LINE",
"70 700 LINE",
"70 0 LINE"
);
},
{
closed = 1;
nodes = (
"324 320 LINE",
"324 395 LINE",
"249 395 LINE",
"249 320 LINE"
);
}
);
width = 411;
}
);
unicode = 013F;
},
{
glyphname = Lslash;
lastChange = "2016-08-24 09:13:07 +0000";
layers = (
{
components = (
{
name = L;
}
);
hints = (
{
horizontal = 1;
place = "{228, 21}";
target = up;
type = BottomGhost;
},
{
horizontal = 1;
place = "{461, -20}";
target = down;
type = TopGhost;
}
);
layerId = UUID0;
paths = (
{
closed = 1;
nodes = (
"8 285 LINE",
"8 228 LINE",
"319 404 LINE",
"319 461 LINE"
);
}
);
width = 411;
}
);
unicode = 0141;
},
{
glyphname = M;
lastChange = "2016-08-24 09:13:07 +0000";
layers = (
{
hints = (
{
place = "{80, 63}";
},
{
place = "{511, 63}";
},
{
horizontal = 1;
place = "{0, 21}";
target = up;
type = BottomGhost;
},
{
horizontal = 1;
place = "{700, -20}";
target = down;
type = TopGhost;
}
);
layerId = UUID0;
paths = (
{
closed = 1;
nodes = (
"574 0 LINE",
"574 700 LINE",
"541 700 LINE",
"329 126 LINE",
"327 100 LINE",
"325 126 LINE",
"113 700 LINE",
"80 700 LINE",
"80 0 LINE",
"143 0 LINE",
"143 480 LINE",
"147 450 LINE",
"311 0 LINE",
"344 0 LINE",
"507 450 LINE",
"511 480 LINE",
"511 0 LINE"
);
}
);
width = 654;
}
);
unicode = 004D;
},
{
glyphname = N;
lastChange = "2016-08-24 09:13:07 +0000";
layers = (
{
hints = (
{
place = "{80, 63}";
},
{
place = "{411, 63}";
},
{
horizontal = 1;
place = "{0, 21}";
target = up;
type = BottomGhost;
},
{
horizontal = 1;
place = "{700, -20}";
target = down;
type = TopGhost;
}
);
layerId = UUID0;
paths = (
{
closed = 1;
nodes = (
"474 0 LINE",
"474 700 LINE",
"411 700 LINE",
"411 160 LINE",
"405 190 LINE",
"113 700 LINE",
"80 700 LINE",
"80 0 LINE",
"143 0 LINE",
"143 540 LINE",
"149 510 LINE",
"441 0 LINE"
);
}
);
width = 554;
}
);
unicode = 004E;
},
{
glyphname = O;
lastChange = "2016-08-24 09:13:07 +0000";
layers = (
{
hints = (
{
place = "{70, 63}";
},
{
place = "{401, 63}";
},
{
horizontal = 1;
place = "{-10, 60}";
},
{
horizontal = 1;
place = "{650, 60}";
}
);
layerId = UUID0;
paths = (
{
closed = 1;
nodes = (
"464 538 LINE SMOOTH",
"464 633 OFFCURVE",
"387 710 OFFCURVE",
"292 710 CURVE SMOOTH",
"242 710 LINE SMOOTH",
"147 710 OFFCURVE",
"70 633 OFFCURVE",
"70 538 CURVE SMOOTH",
"70 162 LINE SMOOTH",
"70 67 OFFCURVE",
"147 -10 OFFCURVE",
"242 -10 CURVE SMOOTH",
"292 -10 LINE SMOOTH",
"387 -10 OFFCURVE",
"464 67 OFFCURVE",
"464 162 CURVE SMOOTH"
);
},
{
closed = 1;
nodes = (
"401 162 LINE SMOOTH",
"401 100 OFFCURVE",
"351 50 OFFCURVE",
"289 50 CURVE SMOOTH",
"245 50 LINE SMOOTH",
"183 50 OFFCURVE",
"133 100 OFFCURVE",
"133 162 CURVE SMOOTH",
"133 538 LINE SMOOTH",
"133 600 OFFCURVE",
"183 650 OFFCURVE",
"245 650 CURVE SMOOTH",
"289 650 LINE SMOOTH",
"351 650 OFFCURVE",
"401 600 OFFCURVE",
"401 538 CURVE SMOOTH"
);
}
);
width = 534;
}
);
unicode = 004F;
},
{
glyphname = Oslash;
lastChange = "2016-08-24 09:13:07 +0000";
layers = (
{
hints = (
{
place = "{70, 63}";
},
{
place = "{401, 63}";
},
{
horizontal = 1;
place = "{-10, 60}";
},
{
horizontal = 1;
place = "{650, 60}";
},
{
horizontal = 1;
place = "{-30, 21}";
target = up;
type = BottomGhost;
},
{
horizontal = 1;
place = "{730, -20}";
target = down;
type = TopGhost;
}
);
layerId = UUID0;
paths = (
{
closed = 1;
nodes = (
"103 -30 LINE",
"132 29 LINE",
"162 4 OFFCURVE",
"200 -10 OFFCURVE",
"242 -10 CURVE SMOOTH",
"292 -10 LINE SMOOTH",
"387 -10 OFFCURVE",
"464 67 OFFCURVE",
"464 162 CURVE SMOOTH",
"464 538 LINE SMOOTH",
"464 573 OFFCURVE",
"453 605 OFFCURVE",
"435 632 CURVE",
"484 730 LINE",
"431 730 LINE",
"401 671 LINE",
"372 695 OFFCURVE",
"333 710 OFFCURVE",
"292 710 CURVE SMOOTH",
"242 710 LINE SMOOTH",
"147 710 OFFCURVE",
"70 633 OFFCURVE",
"70 538 CURVE SMOOTH",
"70 162 LINE SMOOTH",
"70 127 OFFCURVE",
"80 94 OFFCURVE",
"98 67 CURVE",
"50 -30 LINE"
);
},
{
closed = 1;
nodes = (
"401 162 LINE SMOOTH",
"401 100 OFFCURVE",
"351 50 OFFCURVE",
"289 50 CURVE SMOOTH",
"245 50 LINE SMOOTH",
"211 50 OFFCURVE",
"182 64 OFFCURVE",
"161 87 CURVE",
"399 560 LINE",
"400 553 OFFCURVE",
"401 545 OFFCURVE",
"401 538 CURVE SMOOTH"
);
},
{
closed = 1;
nodes = (
"133 538 LINE SMOOTH",
"133 600 OFFCURVE",
"183 650 OFFCURVE",
"245 650 CURVE SMOOTH",
"289 650 LINE SMOOTH",
"322 650 OFFCURVE",
"352 636 OFFCURVE",
"372 613 CURVE",
"135 140 LINE",
"133 147 OFFCURVE",
"133 154 OFFCURVE",
"133 162 CURVE SMOOTH"
);
}
);
width = 534;
}
);
unicode = 00D8;
},
{
glyphname = OE;
lastChange = "2016-08-24 09:13:07 +0000";
layers = (
{
hints = (
{
place = "{70, 63}";
},
{
place = "{401, 63}";
},
{
horizontal = 1;
place = "{-10, 60}";
},
{
horizontal = 1;
place = "{0, 50}";
},
{
horizontal = 1;
place = "{320, 60}";
},
{
horizontal = 1;
place = "{640, 60}";
},
{
horizontal = 1;
place = "{650, 50}";
},
{
horizontal = 1;
place = "{650, 60}";
},
{
horizontal = 1;
place = "{0, 60}";
}
);
layerId = UUID0;
paths = (
{
closed = 1;
nodes = (
"464 320 LINE",
"682 320 LINE",
"682 380 LINE",
"464 380 LINE",
"464 538 LINE SMOOTH",
"464 576 OFFCURVE",
"451 611 OFFCURVE",
"430 640 CURVE",
"745 640 LINE",
"745 700 LINE",
"349 700 LINE",
"331 706 OFFCURVE",
"312 710 OFFCURVE",
"292 710 CURVE SMOOTH",
"242 710 LINE SMOOTH",
"147 710 OFFCURVE",
"70 633 OFFCURVE",
"70 538 CURVE SMOOTH",
"70 162 LINE SMOOTH",
"70 67 OFFCURVE",
"147 -10 OFFCURVE",
"242 -10 CURVE SMOOTH",
"292 -10 LINE SMOOTH",
"312 -10 OFFCURVE",
"331 -6 OFFCURVE",
"349 0 CURVE",
"745 0 LINE",
"745 60 LINE",
"430 60 LINE",
"451 88 OFFCURVE",
"464 124 OFFCURVE",
"464 162 CURVE SMOOTH"
);
},
{
closed = 1;
nodes = (
"401 162 LINE SMOOTH",
"401 100 OFFCURVE",
"351 50 OFFCURVE",
"289 50 CURVE SMOOTH",
"245 50 LINE SMOOTH",
"183 50 OFFCURVE",
"133 100 OFFCURVE",
"133 162 CURVE SMOOTH",
"133 538 LINE SMOOTH",
"133 600 OFFCURVE",
"183 650 OFFCURVE",
"245 650 CURVE SMOOTH",
"289 650 LINE SMOOTH",
"351 650 OFFCURVE",
"401 600 OFFCURVE",
"401 538 CURVE SMOOTH"
);
}
);
width = 785;
}
);
unicode = 0152;
},
{
glyphname = P;
lastChange = "2016-08-24 09:13:07 +0000";
layers = (
{
hints = (
{
place = "{80, 63}";
},
{
place = "{411, 63}";
},
{
horizontal = 1;
place = "{269, 60}";
},
{
horizontal = 1;
place = "{640, 60}";
},
{
horizontal = 1;
place = "{0, 21}";
target = up;
type = BottomGhost;
}
);
layerId = UUID0;
paths = (
{
closed = 1;
nodes = (
"474 528 LINE SMOOTH",
"474 623 OFFCURVE",
"397 700 OFFCURVE",
"302 700 CURVE SMOOTH",
"80 700 LINE",
"80 0 LINE",
"143 0 LINE",
"143 269 LINE",
"302 269 LINE SMOOTH",
"397 269 OFFCURVE",
"474 346 OFFCURVE",
"474 441 CURVE SMOOTH"
);
},
{
closed = 1;
nodes = (
"411 441 LINE SMOOTH",
"411 379 OFFCURVE",
"361 329 OFFCURVE",
"299 329 CURVE SMOOTH",
"143 329 LINE",
"143 640 LINE",
"299 640 LINE SMOOTH",
"361 640 OFFCURVE",
"411 590 OFFCURVE",
"411 528 CURVE SMOOTH"
);
}
);
width = 514;
}
);
unicode = 0050;
},
{
glyphname = Thorn;
lastChange = "2016-08-24 09:13:07 +0000";
layers = (
{
hints = (
{
place = "{80, 63}";
},
{
place = "{411, 63}";
},
{
horizontal = 1;
place = "{161, 60}";
},
{
horizontal = 1;
place = "{502, 60}";
},
{
horizontal = 1;
place = "{700, -20}";
target = down;
type = TopGhost;
},
{
horizontal = 1;
place = "{0, 21}";
target = up;
type = BottomGhost;
}
);
layerId = UUID0;
paths = (
{
closed = 1;
nodes = (
"474 390 LINE SMOOTH",
"474 485 OFFCURVE",
"397 562 OFFCURVE",
"302 562 CURVE SMOOTH",
"143 562 LINE",
"143 700 LINE",
"80 700 LINE",
"80 0 LINE",
"143 0 LINE",
"143 161 LINE",
"302 161 LINE SMOOTH",
"397 161 OFFCURVE",
"474 238 OFFCURVE",
"474 333 CURVE SMOOTH"
);
},
{
closed = 1;
nodes = (
"411 333 LINE SMOOTH",
"411 271 OFFCURVE",
"361 221 OFFCURVE",
"299 221 CURVE SMOOTH",
"143 221 LINE",
"143 502 LINE",
"299 502 LINE SMOOTH",
"361 502 OFFCURVE",
"411 452 OFFCURVE",
"411 390 CURVE SMOOTH"
);
}
);
width = 514;
}
);
unicode = 00DE;
},
{
glyphname = Q;
lastChange = "2016-08-24 09:13:07 +0000";
layers = (
{
hints = (
{
place = "{70, 63}";
},
{
place = "{401, 63}";
},
{
horizontal = 1;
place = "{-10, 60}";
},
{
horizontal = 1;
place = "{650, 60}";
},
{
horizontal = 1;
place = "{-154, 21}";
target = up;
type = BottomGhost;
}
);
layerId = UUID0;
paths = (
{
closed = 1;
nodes = (
"464 538 LINE SMOOTH",
"464 633 OFFCURVE",
"387 710 OFFCURVE",
"292 710 CURVE SMOOTH",
"242 710 LINE SMOOTH",
"147 710 OFFCURVE",
"70 633 OFFCURVE",
"70 538 CURVE SMOOTH",
"70 162 LINE SMOOTH",
"70 67 OFFCURVE",
"147 -10 OFFCURVE",
"242 -10 CURVE",
"306 -154 LINE",
"369 -154 LINE",
"305 -10 LINE",
"394 -3 OFFCURVE",
"464 71 OFFCURVE",
"464 162 CURVE SMOOTH"
);
},
{
closed = 1;
nodes = (
"401 162 LINE SMOOTH",
"401 100 OFFCURVE",
"351 50 OFFCURVE",
"289 50 CURVE SMOOTH",
"245 50 LINE SMOOTH",
"183 50 OFFCURVE",
"133 100 OFFCURVE",
"133 162 CURVE SMOOTH",
"133 538 LINE SMOOTH",
"133 600 OFFCURVE",
"183 650 OFFCURVE",
"245 650 CURVE SMOOTH",
"289 650 LINE SMOOTH",
"351 650 OFFCURVE",
"401 600 OFFCURVE",
"401 538 CURVE SMOOTH"
);
}
);
width = 534;
}
);
unicode = 0051;
},
{
glyphname = R;
lastChange = "2016-08-24 09:13:07 +0000";
layers = (
{
hints = (
{
place = "{70, 63}";
},
{
place = "{401, 63}";
},
{
horizontal = 1;
place = "{299, 60}";
},
{
horizontal = 1;
place = "{640, 60}";
},
{
horizontal = 1;
place = "{0, 21}";
target = up;
type = BottomGhost;
}
);
layerId = UUID0;
paths = (
{
closed = 1;
nodes = (
"482 0 LINE",
"292 299 LINE",
"387 299 OFFCURVE",
"464 376 OFFCURVE",
"464 471 CURVE SMOOTH",
"464 528 LINE SMOOTH",
"464 623 OFFCURVE",
"387 700 OFFCURVE",
"292 700 CURVE SMOOTH",
"70 700 LINE",
"70 0 LINE",
"133 0 LINE",
"133 299 LINE",
"219 299 LINE",
"409 0 LINE"
);
},
{
closed = 1;
nodes = (
"401 471 LINE SMOOTH",
"401 409 OFFCURVE",
"351 359 OFFCURVE",
"289 359 CURVE SMOOTH",
"133 359 LINE",
"133 640 LINE",
"289 640 LINE SMOOTH",
"351 640 OFFCURVE",
"401 590 OFFCURVE",
"401 528 CURVE SMOOTH"
);
}
);
width = 522;
}
);
unicode = 0052;
},
{
glyphname = Rcommaaccent;
lastChange = "2016-08-24 09:13:07 +0000";
layers = (
{
hints = (
{
place = "{70, 63}";
},
{
place = "{401, 63}";
},
{
horizontal = 1;
place = "{640, 60}";
},
{
horizontal = 1;
place = "{299, 60}";
},
{
horizontal = 1;
place = "{0, 21}";
target = up;
type = BottomGhost;
},
{
horizontal = 1;
place = "{-295, 21}";
target = up;
type = BottomGhost;
}
);
layerId = UUID0;
paths = (
{
closed = 1;
nodes = (
"482 0 LINE",
"292 299 LINE",
"387 299 OFFCURVE",
"464 376 OFFCURVE",
"464 471 CURVE SMOOTH",
"464 528 LINE SMOOTH",
"464 623 OFFCURVE",
"387 700 OFFCURVE",
"292 700 CURVE SMOOTH",
"70 700 LINE",
"70 0 LINE",
"133 0 LINE",
"133 299 LINE",
"219 299 LINE",
"409 0 LINE"
);
},
{
closed = 1;
nodes = (
"401 471 LINE SMOOTH",
"401 409 OFFCURVE",
"351 359 OFFCURVE",
"289 359 CURVE SMOOTH",
"133 359 LINE",
"133 640 LINE",
"289 640 LINE SMOOTH",
"351 640 OFFCURVE",
"401 590 OFFCURVE",
"401 528 CURVE SMOOTH"
);
},
{
closed = 1;
nodes = (
"302 -80 LINE",
"227 -80 LINE",
"227 -295 LINE",
"252 -295 LINE"
);
}
);
width = 522;
}
);
unicode = 0156;
},
{
glyphname = S;
lastChange = "2016-08-24 09:13:07 +0000";
layers = (
{
background = {
paths = (
{
closed = 1;
nodes = (
"464 432 OFFCURVE",
"133 335 OFFCURVE",
"133 538 CURVE SMOOTH",
"133 600 OFFCURVE",
"183 650 OFFCURVE",
"245 650 CURVE SMOOTH",
"284 650 LINE SMOOTH",
"346 650 OFFCURVE",
"396 600 OFFCURVE",
"396 538 CURVE SMOOTH",
"396 510 LINE",
"459 520 LINE",
"459 538 LINE SMOOTH",
"459 633 OFFCURVE",
"382 710 OFFCURVE",
"287 710 CURVE SMOOTH",
"242 710 LINE SMOOTH",
"147 710 OFFCURVE",
"70 633 OFFCURVE",
"70 538 CURVE SMOOTH",
"70 275 OFFCURVE",
"401 378 OFFCURVE",
"401 162 CURVE SMOOTH",
"401 100 OFFCURVE",
"351 50 OFFCURVE",
"289 50 CURVE SMOOTH",
"245 50 LINE SMOOTH",
"183 50 OFFCURVE",
"133 100 OFFCURVE",
"133 162 CURVE SMOOTH",
"133 200 LINE",
"70 190 LINE",
"70 162 LINE SMOOTH",
"70 67 OFFCURVE",
"147 -10 OFFCURVE",
"242 -10 CURVE SMOOTH",
"292 -10 LINE SMOOTH",
"387 -10 OFFCURVE",
"464 67 OFFCURVE",
"464 162 CURVE SMOOTH"
);
}
);
};
hints = (
{
place = "{60, 63}";
},
{
place = "{70, 63}";
},
{
place = "{401, 63}";
},
{
horizontal = 1;
place = "{-10, 60}";
},
{
horizontal = 1;
place = "{650, 60}";
}
);
layerId = UUID0;
paths = (
{
closed = 1;
nodes = (
"464 183 LINE SMOOTH",
"464 423 OFFCURVE",
"133 344 OFFCURVE",
"133 525 CURVE SMOOTH",
"133 538 LINE SMOOTH",
"133 600 OFFCURVE",
"183 650 OFFCURVE",
"245 650 CURVE SMOOTH",
"284 650 LINE SMOOTH",
"346 650 OFFCURVE",
"396 600 OFFCURVE",
"396 538 CURVE SMOOTH",
"396 510 LINE",
"459 520 LINE",
"459 538 LINE SMOOTH",
"459 633 OFFCURVE",
"382 710 OFFCURVE",
"287 710 CURVE SMOOTH",
"242 710 LINE SMOOTH",
"147 710 OFFCURVE",
"70 633 OFFCURVE",
"70 538 CURVE SMOOTH",
"70 525 LINE SMOOTH",
"70 284 OFFCURVE",
"401 376 OFFCURVE",
"401 183 CURVE SMOOTH",
"401 162 LINE SMOOTH",
"401 100 OFFCURVE",
"346 50 OFFCURVE",
"284 50 CURVE SMOOTH",
"240 50 LINE SMOOTH",
"178 50 OFFCURVE",
"123 100 OFFCURVE",
"123 162 CURVE SMOOTH",
"123 200 LINE",
"60 190 LINE",
"60 162 LINE SMOOTH",
"60 67 OFFCURVE",
"142 -10 OFFCURVE",
"237 -10 CURVE SMOOTH",
"287 -10 LINE SMOOTH",
"382 -10 OFFCURVE",
"464 67 OFFCURVE",
"464 162 CURVE SMOOTH"
);
}
);
width = 519;
}
);
unicode = 0053;
},
{
glyphname = T;
lastChange = "2016-08-24 09:13:07 +0000";
layers = (
{
hints = (
{
place = "{187, 63}";
},
{
horizontal = 1;
place = "{640, 60}";
},
{
horizontal = 1;
place = "{0, 21}";
target = up;
type = BottomGhost;
}
);
layerId = UUID0;
paths = (
{
closed = 1;
nodes = (
"417 640 LINE",
"417 700 LINE",
"20 700 LINE",
"20 640 LINE",
"187 640 LINE",
"187 0 LINE",
"250 0 LINE",
"250 640 LINE"
);
}
);
width = 437;
}
);
unicode = 0054;
},
{
glyphname = U;
lastChange = "2016-08-24 09:13:07 +0000";
layers = (
{
hints = (
{
place = "{70, 63}";
},
{
place = "{401, 63}";
},
{
horizontal = 1;
place = "{-10, 60}";
},
{
horizontal = 1;
place = "{700, -20}";
target = down;
type = TopGhost;
}
);
layerId = UUID0;
paths = (
{
closed = 1;
nodes = (
"464 700 LINE",
"401 700 LINE",
"401 162 LINE SMOOTH",
"401 100 OFFCURVE",
"351 50 OFFCURVE",
"289 50 CURVE SMOOTH",
"245 50 LINE SMOOTH",
"183 50 OFFCURVE",
"133 100 OFFCURVE",
"133 162 CURVE SMOOTH",
"133 700 LINE",
"70 700 LINE",
"70 162 LINE SMOOTH",
"70 67 OFFCURVE",
"147 -10 OFFCURVE",
"242 -10 CURVE SMOOTH",
"292 -10 LINE SMOOTH",
"387 -10 OFFCURVE",
"464 67 OFFCURVE",
"464 162 CURVE SMOOTH"
);
}
);
width = 534;
}
);
unicode = 0055;
},
{
glyphname = V;
lastChange = "2016-08-24 09:13:07 +0000";
layers = (
{
background = {
paths = (
{
closed = 1;
nodes = (
"342 537 LINE",
"119 537 LINE",
"74 700 LINE",
"9 700 LINE",
"214 0 LINE",
"247 0 LINE",
"452 700 LINE",
"387 700 LINE"
);
},
{
closed = 1;
nodes = (
"136 477 LINE",
"325 477 LINE",
"233 144 LINE",
"231 118 LINE",
"229 144 LINE"
);
}
);
};
hints = (
{
horizontal = 1;
place = "{700, -20}";
target = down;
type = TopGhost;
},
{
horizontal = 1;
place = "{0, 21}";
target = up;
type = BottomGhost;
}
);
layerId = UUID0;
paths = (
{
closed = 1;
nodes = (
"75 700 LINE",
"10 700 LINE",
"215 0 LINE",
"248 0 LINE",
"454 700 LINE",
"389 700 LINE",
"234 154 LINE",
"232 128 LINE",
"230 154 LINE"
);
}
);
width = 464;
}
);
unicode = 0056;
},
{
glyphname = W;
lastChange = "2016-08-24 09:13:07 +0000";
layers = (
{
hints = (
{
horizontal = 1;
place = "{700, -20}";
target = down;
type = TopGhost;
},
{
horizontal = 1;
place = "{0, 21}";
target = up;
type = BottomGhost;
}
);
layerId = UUID0;
paths = (
{
closed = 1;
nodes = (
"733 700 LINE",
"670 700 LINE",
"533 168 LINE",
"531 142 LINE",
"529 168 LINE",
"394 700 LINE",
"359 700 LINE",
"224 168 LINE",
"222 142 LINE",
"220 168 LINE",
"83 700 LINE",
"20 700 LINE",
"206 0 LINE",
"239 0 LINE",
"374 527 LINE",
"377 554 LINE",
"379 527 LINE",
"515 0 LINE",
"548 0 LINE"
);
}
);
width = 753;
}
);
unicode = 0057;
},
{
glyphname = X;
lastChange = "2016-08-24 09:13:07 +0000";
layers = (
{
hints = (
{
horizontal = 1;
place = "{0, 21}";
target = up;
type = BottomGhost;
},
{
horizontal = 1;
place = "{700, -20}";
target = down;
type = TopGhost;
}
);
layerId = UUID0;
paths = (
{
closed = 1;
nodes = (
"454 0 LINE",
"276 360 LINE",
"444 700 LINE",
"376 700 LINE",
"242 429 LINE",
"108 700 LINE",
"40 700 LINE",
"208 360 LINE",
"30 0 LINE",
"98 0 LINE",
"242 291 LINE",
"386 0 LINE"
);
}
);
width = 484;
}
);
unicode = 0058;
},
{
glyphname = Y;
lastChange = "2016-08-24 09:13:07 +0000";
layers = (
{
hints = (
{
place = "{201, 63}";
},
{
horizontal = 1;
place = "{700, -20}";
target = down;
type = TopGhost;
},
{
horizontal = 1;
place = "{0, 21}";
target = up;
type = BottomGhost;
}
);
layerId = UUID0;
paths = (
{
closed = 1;
nodes = (
"444 700 LINE",
"376 700 LINE",
"232 409 LINE",
"88 700 LINE",
"20 700 LINE",
"201 334 LINE",
"201 0 LINE",
"264 0 LINE",
"264 335 LINE"
);
}
);
width = 464;
}
);
unicode = 0059;
},
{
glyphname = Z;
lastChange = "2016-08-24 09:13:07 +0000";
layers = (
{
hints = (
{
horizontal = 1;
place = "{0, 60}";
},
{
horizontal = 1;
place = "{640, 60}";
}
);
layerId = UUID0;
paths = (
{
closed = 1;
nodes = (
"434 0 LINE",
"434 60 LINE",
"122 60 LINE",
"434 670 LINE",
"434 700 LINE",
"50 700 LINE",
"50 640 LINE",
"352 640 LINE",
"40 30 LINE",
"40 0 LINE"
);
}
);
width = 474;
}
);
unicode = 005A;
},
{
glyphname = a;
lastChange = "2016-08-24 09:13:07 +0000";
layers = (
{
hints = (
{
place = "{65, 60}";
},
{
place = "{334, 60}";
},
{
horizontal = 1;
place = "{-10, 57}";
},
{
horizontal = 1;
place = "{242, 47}";
},
{
horizontal = 1;
place = "{453, 57}";
},
{
horizontal = 1;
place = "{0, 21}";
target = up;
type = BottomGhost;
}
);
layerId = UUID0;
paths = (
{
closed = 1;
nodes = (
"394 0 LINE",
"394 363 LINE SMOOTH",
"394 444 OFFCURVE",
"328 510 OFFCURVE",
"247 510 CURVE SMOOTH",
"212 510 LINE SMOOTH",
"131 510 OFFCURVE",
"65 444 OFFCURVE",
"65 363 CURVE SMOOTH",
"65 358 LINE",
"125 348 LINE",
"125 366 LINE SMOOTH",
"125 414 OFFCURVE",
"164 453 OFFCURVE",
"212 453 CURVE SMOOTH",
"247 453 LINE SMOOTH",
"295 453 OFFCURVE",
"334 414 OFFCURVE",
"334 366 CURVE SMOOTH",
"334 289 LINE",
"207 289 LINE SMOOTH",
"126 289 OFFCURVE",
"60 223 OFFCURVE",
"60 142 CURVE SMOOTH",
"60 137 LINE SMOOTH",
"60 56 OFFCURVE",
"126 -10 OFFCURVE",
"207 -10 CURVE SMOOTH",
"222 -10 LINE SMOOTH",
"271 -10 OFFCURVE",
"314 14 OFFCURVE",
"341 50 CURVE",
"374 0 LINE"
);
},
{
closed = 1;
nodes = (
"334 134 LINE SMOOTH",
"334 86 OFFCURVE",
"295 47 OFFCURVE",
"247 47 CURVE SMOOTH",
"207 47 LINE SMOOTH",
"159 47 OFFCURVE",
"120 86 OFFCURVE",
"120 134 CURVE SMOOTH",
"120 155 LINE SMOOTH",
"120 203 OFFCURVE",
"159 242 OFFCURVE",
"207 242 CURVE SMOOTH",
"334 242 LINE"
);
}
);
width = 454;
}
);
unicode = 0061;
},
{
glyphname = aring;
lastChange = "2016-08-24 09:13:07 +0000";
layers = (
{
hints = (
{
place = "{65, 60}";
},
{
place = "{126, 50}";
},
{
place = "{283, 50}";
},
{
place = "{334, 60}";
},
{
horizontal = 1;
place = "{-10, 57}";
},
{
horizontal = 1;
place = "{242, 47}";
},
{
horizontal = 1;
place = "{453, 57}";
},
{
horizontal = 1;
place = "{560, 49}";
},
{
horizontal = 1;
place = "{718, 49}";
},
{
horizontal = 1;
place = "{0, 21}";
target = up;
type = BottomGhost;
}
);
layerId = UUID0;
paths = (
{
closed = 1;
nodes = (
"394 0 LINE",
"394 363 LINE SMOOTH",
"394 444 OFFCURVE",
"328 510 OFFCURVE",
"247 510 CURVE SMOOTH",
"212 510 LINE SMOOTH",
"131 510 OFFCURVE",
"65 444 OFFCURVE",
"65 363 CURVE SMOOTH",
"65 358 LINE",
"125 348 LINE",
"125 366 LINE SMOOTH",
"125 414 OFFCURVE",
"164 453 OFFCURVE",
"212 453 CURVE SMOOTH",
"247 453 LINE SMOOTH",
"295 453 OFFCURVE",
"334 414 OFFCURVE",
"334 366 CURVE SMOOTH",
"334 289 LINE",
"207 289 LINE SMOOTH",
"126 289 OFFCURVE",
"60 223 OFFCURVE",
"60 142 CURVE SMOOTH",
"60 137 LINE SMOOTH",
"60 56 OFFCURVE",
"126 -10 OFFCURVE",
"207 -10 CURVE SMOOTH",
"222 -10 LINE SMOOTH",
"271 -10 OFFCURVE",
"314 14 OFFCURVE",
"341 50 CURVE",
"374 0 LINE"
);
},
{
closed = 1;
nodes = (
"334 134 LINE SMOOTH",
"334 86 OFFCURVE",
"295 47 OFFCURVE",
"247 47 CURVE SMOOTH",
"207 47 LINE SMOOTH",
"159 47 OFFCURVE",
"120 86 OFFCURVE",
"120 134 CURVE SMOOTH",
"120 155 LINE SMOOTH",
"120 203 OFFCURVE",
"159 242 OFFCURVE",
"207 242 CURVE SMOOTH",
"334 242 LINE"
);
},
{
closed = 1;
nodes = (
"126 606 OFFCURVE",
"172 560 OFFCURVE",
"229 560 CURVE SMOOTH",
"286 560 OFFCURVE",
"333 606 OFFCURVE",
"333 663 CURVE SMOOTH",
"333 720 OFFCURVE",
"286 767 OFFCURVE",
"229 767 CURVE SMOOTH",
"172 767 OFFCURVE",
"126 720 OFFCURVE",
"126 663 CURVE SMOOTH"
);
},
{
closed = 1;
nodes = (
"176 693 OFFCURVE",
"200 718 OFFCURVE",
"229 718 CURVE SMOOTH",
"259 718 OFFCURVE",
"283 693 OFFCURVE",
"283 663 CURVE SMOOTH",
"283 634 OFFCURVE",
"259 609 OFFCURVE",
"229 609 CURVE SMOOTH",
"200 609 OFFCURVE",
"176 634 OFFCURVE",
"176 663 CURVE SMOOTH"
);
}
);
width = 454;
}
);
unicode = 00E5;
},
{
glyphname = ae;
lastChange = "2016-08-24 09:13:07 +0000";
layers = (
{
background = {
paths = (
{
closed = 1;
nodes = (
"394 363 LINE",
"394 444 OFFCURVE",
"328 510 OFFCURVE",
"247 510 CURVE SMOOTH",
"212 510 LINE SMOOTH",
"131 510 OFFCURVE",
"65 444 OFFCURVE",
"65 363 CURVE SMOOTH",
"65 358 LINE",
"125 348 LINE",
"125 366 LINE SMOOTH",
"125 414 OFFCURVE",
"164 453 OFFCURVE",
"212 453 CURVE SMOOTH",
"247 453 LINE SMOOTH",
"295 453 OFFCURVE",
"334 414 OFFCURVE",
"334 366 CURVE SMOOTH",
"334 289 LINE",
"207 289 LINE SMOOTH",
"126 289 OFFCURVE",
"60 223 OFFCURVE",
"60 142 CURVE SMOOTH",
"60 137 LINE SMOOTH",
"60 56 OFFCURVE",
"126 -10 OFFCURVE",
"207 -10 CURVE SMOOTH",
"222 -10 LINE SMOOTH",
"271 -10 OFFCURVE",
"314 14 OFFCURVE",
"341 50 CURVE"
);
},
{
closed = 1;
nodes = (
"334 134 LINE",
"334 86 OFFCURVE",
"295 47 OFFCURVE",
"247 47 CURVE SMOOTH",
"207 47 LINE SMOOTH",
"159 47 OFFCURVE",
"120 86 OFFCURVE",
"120 134 CURVE SMOOTH",
"120 155 LINE SMOOTH",
"120 203 OFFCURVE",
"159 242 OFFCURVE",
"207 242 CURVE SMOOTH",
"334 242 LINE"
);
}
);
};
hints = (
{
place = "{65, 60}";
},
{
place = "{334, 60}";
},
{
place = "{608, 60}";
},
{
horizontal = 1;
place = "{-10, 57}";
},
{
horizontal = 1;
place = "{245, 44}";
},
{
horizontal = 1;
place = "{453, 57}";
}
);
layerId = UUID0;
paths = (
{
closed = 1;
nodes = (
"668 157 LINE",
"608 167 LINE",
"608 134 LINE SMOOTH",
"608 86 OFFCURVE",
"569 47 OFFCURVE",
"521 47 CURVE SMOOTH",
"481 47 LINE SMOOTH",
"433 47 OFFCURVE",
"394 86 OFFCURVE",
"394 134 CURVE SMOOTH",
"394 245 LINE",
"668 245 LINE",
"668 363 LINE SMOOTH",
"668 444 OFFCURVE",
"602 510 OFFCURVE",
"521 510 CURVE SMOOTH",
"481 510 LINE SMOOTH",
"433 510 OFFCURVE",
"391 487 OFFCURVE",
"364 451 CURVE",
"337 487 OFFCURVE",
"294 510 OFFCURVE",
"247 510 CURVE SMOOTH",
"212 510 LINE SMOOTH",
"131 510 OFFCURVE",
"65 444 OFFCURVE",
"65 363 CURVE SMOOTH",
"65 358 LINE",
"125 348 LINE",
"125 366 LINE SMOOTH",
"125 414 OFFCURVE",
"164 453 OFFCURVE",
"212 453 CURVE SMOOTH",
"247 453 LINE SMOOTH",
"294 453 OFFCURVE",
"332 415 OFFCURVE",
"334 369 CURVE",
"334 289 LINE",
"207 289 LINE SMOOTH",
"126 289 OFFCURVE",
"60 223 OFFCURVE",
"60 142 CURVE SMOOTH",
"60 137 LINE SMOOTH",
"60 56 OFFCURVE",
"126 -10 OFFCURVE",
"207 -10 CURVE SMOOTH",
"222 -10 LINE SMOOTH",
"268 -10 OFFCURVE",
"316 7 OFFCURVE",
"352 65 CURVE",
"377 20 OFFCURVE",
"426 -10 OFFCURVE",
"481 -10 CURVE SMOOTH",
"521 -10 LINE SMOOTH",
"602 -10 OFFCURVE",
"668 56 OFFCURVE",
"668 137 CURVE SMOOTH"
);
},
{
closed = 1;
nodes = (
"334 134 LINE SMOOTH",
"334 86 OFFCURVE",
"295 47 OFFCURVE",
"247 47 CURVE SMOOTH",
"207 47 LINE SMOOTH",
"159 47 OFFCURVE",
"120 86 OFFCURVE",
"120 134 CURVE SMOOTH",
"120 155 LINE SMOOTH",
"120 203 OFFCURVE",
"159 242 OFFCURVE",
"207 242 CURVE SMOOTH",
"334 242 LINE"
);
},
{
closed = 1;
nodes = (
"608 292 LINE",
"394 292 LINE",
"394 369 LINE SMOOTH",
"395 415 OFFCURVE",
"434 453 OFFCURVE",
"481 453 CURVE SMOOTH",
"521 453 LINE SMOOTH",
"569 453 OFFCURVE",
"608 414 OFFCURVE",
"608 366 CURVE SMOOTH"
);
}
);
width = 728;
}
);
unicode = 00E6;
},
{
glyphname = b;
lastChange = "2016-08-24 09:13:07 +0000";
layers = (
{
hints = (
{
place = "{60, 60}";
},
{
place = "{334, 60}";
},
{
horizontal = 1;
place = "{-10, 57}";
},
{
horizontal = 1;
place = "{453, 57}";
},
{
horizontal = 1;
place = "{700, -20}";
target = down;
type = TopGhost;
}
);
layerId = UUID0;
paths = (
{
closed = 1;
nodes = (
"394 363 LINE SMOOTH",
"394 444 OFFCURVE",
"328 510 OFFCURVE",
"247 510 CURVE SMOOTH",
"232 510 LINE SMOOTH",
"187 510 OFFCURVE",
"147 490 OFFCURVE",
"120 458 CURVE",
"120 700 LINE",
"60 700 LINE",
"60 137 LINE SMOOTH",
"60 56 OFFCURVE",
"126 -10 OFFCURVE",
"207 -10 CURVE SMOOTH",
"247 -10 LINE SMOOTH",
"328 -10 OFFCURVE",
"394 56 OFFCURVE",
"394 137 CURVE SMOOTH"
);
},
{
closed = 1;
nodes = (
"334 134 LINE SMOOTH",
"334 86 OFFCURVE",
"295 47 OFFCURVE",
"247 47 CURVE SMOOTH",
"207 47 LINE SMOOTH",
"159 47 OFFCURVE",
"120 86 OFFCURVE",
"120 134 CURVE SMOOTH",
"120 366 LINE SMOOTH",
"120 414 OFFCURVE",
"159 453 OFFCURVE",
"207 453 CURVE SMOOTH",
"247 453 LINE SMOOTH",
"295 453 OFFCURVE",
"334 414 OFFCURVE",
"334 366 CURVE SMOOTH"
);
}
);
width = 454;
}
);
unicode = 0062;
},
{
glyphname = c;
lastChange = "2016-08-24 09:13:07 +0000";
layers = (
{
hints = (
{
place = "{60, 60}";
},
{
place = "{334, 60}";
},
{
horizontal = 1;
place = "{-10, 57}";
},
{
horizontal = 1;
place = "{453, 57}";
}
);
layerId = UUID0;
paths = (
{
closed = 1;
nodes = (
"394 157 LINE",
"334 167 LINE",
"334 134 LINE SMOOTH",
"334 86 OFFCURVE",
"295 47 OFFCURVE",
"247 47 CURVE SMOOTH",
"207 47 LINE SMOOTH",
"159 47 OFFCURVE",
"120 86 OFFCURVE",
"120 134 CURVE SMOOTH",
"120 366 LINE SMOOTH",
"120 414 OFFCURVE",
"159 453 OFFCURVE",
"207 453 CURVE SMOOTH",
"247 453 LINE SMOOTH",
"295 453 OFFCURVE",
"334 414 OFFCURVE",
"334 366 CURVE SMOOTH",
"334 333 LINE",
"394 343 LINE",
"394 363 LINE SMOOTH",
"394 444 OFFCURVE",
"328 510 OFFCURVE",
"247 510 CURVE SMOOTH",
"207 510 LINE SMOOTH",
"126 510 OFFCURVE",
"60 444 OFFCURVE",
"60 363 CURVE SMOOTH",
"60 137 LINE SMOOTH",
"60 56 OFFCURVE",
"126 -10 OFFCURVE",
"207 -10 CURVE SMOOTH",
"247 -10 LINE SMOOTH",
"328 -10 OFFCURVE",
"394 56 OFFCURVE",
"394 137 CURVE SMOOTH"
);
}
);
width = 454;
}
);
unicode = 0063;
},
{
glyphname = d;
lastChange = "2016-08-24 09:13:07 +0000";
layers = (
{
hints = (
{
place = "{60, 60}";
},
{
place = "{334, 60}";
},
{
horizontal = 1;
place = "{-10, 57}";
},
{
horizontal = 1;
place = "{453, 57}";
},
{
horizontal = 1;
place = "{700, -20}";
target = down;
type = TopGhost;
},
{
horizontal = 1;
place = "{0, 21}";
target = up;
type = BottomGhost;
}
);
layerId = UUID0;
paths = (
{
closed = 1;
nodes = (
"394 0 LINE",
"394 700 LINE",
"334 700 LINE",
"334 458 LINE",
"307 490 OFFCURVE",
"267 510 OFFCURVE",
"222 510 CURVE SMOOTH",
"207 510 LINE SMOOTH",
"126 510 OFFCURVE",
"60 444 OFFCURVE",
"60 363 CURVE SMOOTH",
"60 137 LINE SMOOTH",
"60 56 OFFCURVE",
"126 -10 OFFCURVE",
"207 -10 CURVE SMOOTH",
"222 -10 LINE SMOOTH",
"271 -10 OFFCURVE",
"314 14 OFFCURVE",
"341 51 CURVE",
"374 0 LINE"
);
},
{
closed = 1;
nodes = (
"334 134 LINE SMOOTH",
"334 86 OFFCURVE",
"295 47 OFFCURVE",
"247 47 CURVE SMOOTH",
"207 47 LINE SMOOTH",
"159 47 OFFCURVE",
"120 86 OFFCURVE",
"120 134 CURVE SMOOTH",
"120 366 LINE SMOOTH",
"120 414 OFFCURVE",
"159 453 OFFCURVE",
"207 453 CURVE SMOOTH",
"247 453 LINE SMOOTH",
"295 453 OFFCURVE",
"334 414 OFFCURVE",
"334 366 CURVE SMOOTH"
);
}
);
width = 454;
}
);
unicode = 0064;
},
{
glyphname = eth;
lastChange = "2016-08-24 09:13:07 +0000";
layers = (
{
hints = (
{
place = "{60, 60}";
},
{
place = "{334, 60}";
},
{
horizontal = 1;
place = "{-10, 57}";
},
{
horizontal = 1;
place = "{453, 57}";
},
{
horizontal = 1;
place = "{700, -20}";
target = down;
type = TopGhost;
}
);
layerId = UUID0;
paths = (
{
closed = 1;
nodes = (
"145 589 LINE",
"154 557 LINE",
"265 589 LINE",
"285 560 OFFCURVE",
"300 529 OFFCURVE",
"309 496 CURVE",
"290 505 OFFCURVE",
"269 510 OFFCURVE",
"247 510 CURVE SMOOTH",
"207 510 LINE SMOOTH",
"126 510 OFFCURVE",
"60 444 OFFCURVE",
"60 363 CURVE SMOOTH",
"60 137 LINE SMOOTH",
"60 56 OFFCURVE",
"126 -10 OFFCURVE",
"207 -10 CURVE SMOOTH",
"247 -10 LINE SMOOTH",
"328 -10 OFFCURVE",
"394 56 OFFCURVE",
"394 137 CURVE SMOOTH",
"394 363 LINE SMOOTH",
"394 455 OFFCURVE",
"363 539 OFFCURVE",
"318 604 CURVE",
"414 632 LINE",
"404 664 LINE",
"297 633 LINE",
"274 660 OFFCURVE",
"249 683 OFFCURVE",
"223 700 CURVE",
"151 700 LINE",
"183 677 OFFCURVE",
"216 649 OFFCURVE",
"243 617 CURVE"
);
},
{
closed = 1;
nodes = (
"334 134 LINE SMOOTH",
"334 86 OFFCURVE",
"295 47 OFFCURVE",
"247 47 CURVE SMOOTH",
"207 47 LINE SMOOTH",
"159 47 OFFCURVE",
"120 86 OFFCURVE",
"120 134 CURVE SMOOTH",
"120 366 LINE SMOOTH",
"120 414 OFFCURVE",
"159 453 OFFCURVE",
"207 453 CURVE SMOOTH",
"247 453 LINE SMOOTH",
"295 453 OFFCURVE",
"334 414 OFFCURVE",
"334 366 CURVE SMOOTH"
);
}
);
width = 454;
}
);
unicode = 00F0;
},
{
glyphname = e;
lastChange = "2016-08-24 09:13:07 +0000";
layers = (
{
hints = (
{
place = "{60, 60}";
},
{
place = "{334, 60}";
},
{
horizontal = 1;
place = "{-10, 57}";
},
{
horizontal = 1;
place = "{245, 47}";
},
{
horizontal = 1;
place = "{453, 57}";
}
);
layerId = UUID0;
paths = (
{
closed = 1;
nodes = (
"394 157 LINE",
"334 167 LINE",
"334 134 LINE SMOOTH",
"334 86 OFFCURVE",
"295 47 OFFCURVE",
"247 47 CURVE SMOOTH",
"207 47 LINE SMOOTH",
"159 47 OFFCURVE",
"120 86 OFFCURVE",
"120 134 CURVE SMOOTH",
"120 245 LINE",
"394 245 LINE",
"394 363 LINE SMOOTH",
"394 444 OFFCURVE",
"328 510 OFFCURVE",
"247 510 CURVE SMOOTH",
"207 510 LINE SMOOTH",
"126 510 OFFCURVE",
"60 444 OFFCURVE",
"60 363 CURVE SMOOTH",
"60 137 LINE SMOOTH",
"60 56 OFFCURVE",
"126 -10 OFFCURVE",
"207 -10 CURVE SMOOTH",
"247 -10 LINE SMOOTH",
"328 -10 OFFCURVE",
"394 56 OFFCURVE",
"394 137 CURVE SMOOTH"
);
},
{
closed = 1;
nodes = (
"334 292 LINE",
"120 292 LINE",
"120 366 LINE SMOOTH",
"120 414 OFFCURVE",
"159 453 OFFCURVE",
"207 453 CURVE SMOOTH",
"247 453 LINE SMOOTH",
"295 453 OFFCURVE",
"334 414 OFFCURVE",
"334 366 CURVE SMOOTH"
);
}
);
width = 454;
}
);
unicode = 0065;
},
{
glyphname = f;
lastChange = "2016-08-24 09:13:07 +0000";
layers = (
{
hints = (
{
place = "{100, 60}";
},
{
horizontal = 1;
place = "{443, 57}";
},
{
horizontal = 1;
place = "{643, 57}";
},
{
horizontal = 1;
place = "{0, 21}";
target = up;
type = BottomGhost;
}
);
layerId = UUID0;
paths = (
{
closed = 1;
nodes = (
"287 643 LINE",
"287 700 LINE",
"232 700 LINE SMOOTH",
"159 700 OFFCURVE",
"100 641 OFFCURVE",
"100 568 CURVE SMOOTH",
"100 500 LINE",
"10 500 LINE",
"10 443 LINE",
"100 443 LINE",
"100 0 LINE",
"160 0 LINE",
"160 443 LINE",
"277 443 LINE",
"277 500 LINE",
"160 500 LINE",
"160 571 LINE SMOOTH",
"160 611 OFFCURVE",
"192 643 OFFCURVE",
"232 643 CURVE SMOOTH"
);
}
);
width = 287;
}
);
unicode = 0066;
},
{
glyphname = g;
lastChange = "2016-08-24 09:13:07 +0000";
layers = (
{
hints = (
{
place = "{60, 59}";
},
{
place = "{69, 50}";
},
{
place = "{80, 57}";
},
{
place = "{344, 55}";
},
{
horizontal = 1;
place = "{-200, 57}";
},
{
horizontal = 1;
place = "{19, 57}";
},
{
horizontal = 1;
place = "{178, 57}";
},
{
horizontal = 1;
place = "{453, 57}";
},
{
horizontal = 1;
place = "{500, -20}";
target = down;
type = TopGhost;
}
);
layerId = UUID0;
paths = (
{
closed = 1;
nodes = (
"399 -61 LINE SMOOTH",
"399 20 OFFCURVE",
"333 76 OFFCURVE",
"252 76 CURVE SMOOTH",
"170 76 LINE SMOOTH",
"142 76 OFFCURVE",
"119 99 OFFCURVE",
"119 127 CURVE SMOOTH",
"119 155 OFFCURVE",
"142 178 OFFCURVE",
"170 178 CURVE SMOOTH",
"257 178 LINE SMOOTH",
"338 178 OFFCURVE",
"404 244 OFFCURVE",
"404 325 CURVE SMOOTH",
"404 500 LINE",
"384 500 LINE",
"351 449 LINE",
"324 486 OFFCURVE",
"281 510 OFFCURVE",
"232 510 CURVE SMOOTH",
"207 510 LINE SMOOTH",
"126 510 OFFCURVE",
"60 444 OFFCURVE",
"60 363 CURVE SMOOTH",
"60 325 LINE SMOOTH",
"60 280 OFFCURVE",
"80 240 OFFCURVE",
"111 213 CURVE",
"85 194 OFFCURVE",
"69 162 OFFCURVE",
"69 127 CURVE SMOOTH",
"69 88 OFFCURVE",
"89 54 OFFCURVE",
"120 35 CURVE",
"95 11 OFFCURVE",
"80 -22 OFFCURVE",
"80 -61 CURVE SMOOTH",
"80 -63 LINE SMOOTH",
"80 -144 OFFCURVE",
"146 -200 OFFCURVE",
"227 -200 CURVE SMOOTH",
"252 -200 LINE SMOOTH",
"333 -200 OFFCURVE",
"399 -144 OFFCURVE",
"399 -63 CURVE SMOOTH"
);
},
{
closed = 1;
nodes = (
"344 322 LINE SMOOTH",
"344 274 OFFCURVE",
"305 235 OFFCURVE",
"257 235 CURVE SMOOTH",
"207 235 LINE SMOOTH",
"159 235 OFFCURVE",
"120 274 OFFCURVE",
"120 322 CURVE SMOOTH",
"120 366 LINE SMOOTH",
"120 414 OFFCURVE",
"159 453 OFFCURVE",
"207 453 CURVE SMOOTH",
"257 453 LINE SMOOTH",
"305 453 OFFCURVE",
"344 414 OFFCURVE",
"344 366 CURVE SMOOTH"
);
},
{
closed = 1;
nodes = (
"342 -66 LINE SMOOTH",
"342 -114 OFFCURVE",
"303 -143 OFFCURVE",
"255 -143 CURVE SMOOTH",
"224 -143 LINE SMOOTH",
"176 -143 OFFCURVE",
"137 -114 OFFCURVE",
"137 -66 CURVE SMOOTH",
"137 -58 LINE SMOOTH",
"137 -10 OFFCURVE",
"176 19 OFFCURVE",
"224 19 CURVE SMOOTH",
"255 19 LINE SMOOTH",
"303 19 OFFCURVE",
"342 -10 OFFCURVE",
"342 -58 CURVE SMOOTH"
);
}
);
width = 454;
}
);
unicode = 0067;
},
{
glyphname = h;
lastChange = "2016-08-24 09:13:07 +0000";
layers = (
{
hints = (
{
place = "{60, 60}";
},
{
place = "{334, 60}";
},
{
horizontal = 1;
place = "{453, 57}";
},
{
horizontal = 1;
place = "{0, 21}";
target = up;
type = BottomGhost;
},
{
horizontal = 1;
place = "{700, -20}";
target = down;
type = TopGhost;
}
);
layerId = UUID0;
paths = (
{
closed = 1;
nodes = (
"394 0 LINE",
"394 363 LINE SMOOTH",
"394 444 OFFCURVE",
"328 510 OFFCURVE",
"247 510 CURVE SMOOTH",
"232 510 LINE SMOOTH",
"187 510 OFFCURVE",
"147 490 OFFCURVE",
"120 458 CURVE",
"120 700 LINE",
"60 700 LINE",
"60 0 LINE",
"120 0 LINE",
"120 366 LINE SMOOTH",
"120 414 OFFCURVE",
"159 453 OFFCURVE",
"207 453 CURVE SMOOTH",
"247 453 LINE SMOOTH",
"295 453 OFFCURVE",
"334 414 OFFCURVE",
"334 366 CURVE SMOOTH",
"334 0 LINE"
);
}
);
width = 454;
}
);
unicode = 0068;
},
{
glyphname = hbar;
lastChange = "2016-08-24 09:13:07 +0000";
layers = (
{
components = (
{
name = h;
}
);
hints = (
{
horizontal = 1;
place = "{580, 50}";
}
);
layerId = UUID0;
paths = (
{
closed = 1;
nodes = (
"0 630 LINE",
"0 580 LINE",
"301 580 LINE",
"301 630 LINE"
);
}
);
width = 454;
}
);
unicode = 0127;
},
{
glyphname = i;
lastChange = "2016-08-24 09:13:07 +0000";
layers = (
{
hints = (
{
place = "{80, 60}";
},
{
horizontal = 1;
place = "{620, 80}";
},
{
horizontal = 1;
place = "{0, 21}";
target = up;
type = BottomGhost;
},
{
horizontal = 1;
place = "{500, -20}";
target = down;
type = TopGhost;
}
);
layerId = UUID0;
paths = (
{
closed = 1;
nodes = (
"145 620 LINE",
"145 700 LINE",
"75 700 LINE",
"75 620 LINE"
);
},
{
closed = 1;
nodes = (
"140 0 LINE",
"140 500 LINE",
"80 500 LINE",
"80 0 LINE"
);
}
);
width = 220;
}
);
unicode = 0069;
},
{
glyphname = dotlessi;
lastChange = "2016-08-24 09:13:07 +0000";
layers = (
{
hints = (
{
place = "{80, 60}";
},
{
horizontal = 1;
place = "{0, 21}";
target = up;
type = BottomGhost;
},
{
horizontal = 1;
place = "{500, -20}";
target = down;
type = TopGhost;
}
);
layerId = UUID0;
paths = (
{
closed = 1;
nodes = (
"140 0 LINE",
"140 500 LINE",
"80 500 LINE",
"80 0 LINE"
);
}
);
width = 220;
}
);
unicode = 0131;
},
{
glyphname = j;
lastChange = "2016-08-24 09:13:07 +0000";
layers = (
{
hints = (
{
place = "{80, 60}";
},
{
horizontal = 1;
place = "{620, 80}";
},
{
horizontal = 1;
place = "{500, -20}";
target = down;
type = TopGhost;
},
{
horizontal = 1;
place = "{-200, 21}";
target = up;
type = BottomGhost;
}
);
layerId = UUID0;
paths = (
{
closed = 1;
nodes = (
"145 620 LINE",
"145 700 LINE",
"75 700 LINE",
"75 620 LINE"
);
},
{
closed = 1;
nodes = (
"140 500 LINE",
"80 500 LINE",
"80 -56 LINE SMOOTH",
"80 -104 OFFCURVE",
"41 -143 OFFCURVE",
"-7 -143 CURVE",
"-7 -200 LINE",
"74 -200 OFFCURVE",
"140 -134 OFFCURVE",
"140 -53 CURVE SMOOTH"
);
}
);
width = 220;
}
);
unicode = 006A;
},
{
glyphname = dotlessj;
lastChange = "2016-08-24 09:13:07 +0000";
layers = (
{
hints = (
{
place = "{80, 60}";
},
{
horizontal = 1;
place = "{500, -20}";
target = down;
type = TopGhost;
},
{
horizontal = 1;
place = "{-200, 21}";
target = up;
type = BottomGhost;
}
);
layerId = UUID0;
paths = (
{
closed = 1;
nodes = (
"140 500 LINE",
"80 500 LINE",
"80 -56 LINE SMOOTH",
"80 -104 OFFCURVE",
"41 -143 OFFCURVE",
"-7 -143 CURVE",
"-7 -200 LINE",
"74 -200 OFFCURVE",
"140 -134 OFFCURVE",
"140 -53 CURVE SMOOTH"
);
}
);
width = 220;
}
);
unicode = F6BE;
},
{
glyphname = jcircumflex;
lastChange = "2016-08-24 09:13:07 +0000";
layers = (
{
components = (
{
name = circumflex;
transform = "{1, 0, 0, 1, -120, 0}";
}
);
hints = (
{
place = "{80, 60}";
},
{
horizontal = 1;
place = "{500, -20}";
target = down;
type = TopGhost;
},
{
horizontal = 1;
place = "{-200, 21}";
target = up;
type = BottomGhost;
}
);
layerId = UUID0;
paths = (
{
closed = 1;
nodes = (
"140 500 LINE",
"80 500 LINE",
"80 -56 LINE SMOOTH",
"80 -104 OFFCURVE",
"41 -143 OFFCURVE",
"-7 -143 CURVE",
"-7 -200 LINE",
"74 -200 OFFCURVE",
"140 -134 OFFCURVE",
"140 -53 CURVE SMOOTH"
);
}
);
width = 220;
}
);
unicode = 0135;
},
{
glyphname = k;
lastChange = "2016-08-24 09:13:07 +0000";
layers = (
{
hints = (
{
place = "{80, 60}";
},
{
horizontal = 1;
place = "{0, 21}";
target = up;
type = BottomGhost;
},
{
horizontal = 1;
place = "{500, -20}";
target = down;
type = TopGhost;
},
{
horizontal = 1;
place = "{700, -20}";
target = down;
type = TopGhost;
}
);
layerId = UUID0;
paths = (
{
closed = 1;
nodes = (
"434 0 LINE",
"225 250 LINE",
"434 500 LINE",
"356 500 LINE",
"152 250 LINE",
"356 0 LINE"
);
},
{
closed = 1;
nodes = (
"140 0 LINE",
"140 700 LINE",
"80 700 LINE",
"80 0 LINE"
);
}
);
width = 454;
}
);
unicode = 006B;
},
{
glyphname = kcommaaccent;
lastChange = "2016-08-24 09:13:07 +0000";
layers = (
{
hints = (
{
place = "{80, 60}";
},
{
horizontal = 1;
place = "{500, -20}";
target = down;
type = TopGhost;
},
{
horizontal = 1;
place = "{0, 21}";
target = up;
type = BottomGhost;
},
{
horizontal = 1;
place = "{700, -20}";
target = down;
type = TopGhost;
},
{
horizontal = 1;
place = "{-295, 21}";
target = up;
type = BottomGhost;
}
);
layerId = UUID0;
paths = (
{
closed = 1;
nodes = (
"434 0 LINE",
"225 250 LINE",
"434 500 LINE",
"356 500 LINE",
"152 250 LINE",
"356 0 LINE"
);
},
{
closed = 1;
nodes = (
"140 0 LINE",
"140 700 LINE",
"80 700 LINE",
"80 0 LINE"
);
},
{
closed = 1;
nodes = (
"275 -80 LINE",
"200 -80 LINE",
"200 -295 LINE",
"225 -295 LINE"
);
}
);
width = 454;
}
);
unicode = 0137;
},
{
glyphname = kgreenlandic;
lastChange = "2016-08-24 09:13:07 +0000";
layers = (
{
hints = (
{
place = "{80, 60}";
},
{
horizontal = 1;
place = "{0, 21}";
target = up;
type = BottomGhost;
},
{
horizontal = 1;
place = "{500, -20}";
target = down;
type = TopGhost;
}
);
layerId = UUID0;
paths = (
{
closed = 1;
nodes = (
"434 0 LINE",
"225 250 LINE",
"434 500 LINE",
"356 500 LINE",
"152 250 LINE",
"356 0 LINE"
);
},
{
closed = 1;
nodes = (
"140 0 LINE",
"140 500 LINE",
"80 500 LINE",
"80 0 LINE"
);
}
);
width = 454;
}
);
unicode = 0138;
},
{
glyphname = l;
lastChange = "2016-08-24 09:13:07 +0000";
layers = (
{
hints = (
{
place = "{80, 60}";
},
{
horizontal = 1;
place = "{0, 21}";
target = up;
type = BottomGhost;
},
{
horizontal = 1;
place = "{700, -20}";
target = down;
type = TopGhost;
}
);
layerId = UUID0;
paths = (
{
closed = 1;
nodes = (
"140 0 LINE",
"140 700 LINE",
"80 700 LINE",
"80 0 LINE"
);
}
);
width = 220;
}
);
unicode = 006C;
},
{
glyphname = ldot;
lastChange = "2016-08-24 09:13:07 +0000";
layers = (
{
hints = (
{
place = "{80, 60}";
},
{
place = "{220, 75}";
},
{
horizontal = 1;
place = "{320, 75}";
},
{
horizontal = 1;
place = "{0, 21}";
target = up;
type = BottomGhost;
},
{
horizontal = 1;
place = "{700, -20}";
target = down;
type = TopGhost;
}
);
layerId = UUID0;
paths = (
{
closed = 1;
nodes = (
"140 0 LINE",
"140 700 LINE",
"80 700 LINE",
"80 0 LINE"
);
},
{
closed = 1;
nodes = (
"295 320 LINE",
"295 395 LINE",
"220 395 LINE",
"220 320 LINE"
);
}
);
width = 325;
}
);
unicode = 0140;
},
{
glyphname = lslash;
lastChange = "2016-08-24 09:13:07 +0000";
layers = (
{
components = (
{
name = l;
transform = "{1, 0, 0, 1, 33, 0}";
}
);
hints = (
{
horizontal = 1;
place = "{238, 21}";
target = up;
type = BottomGhost;
},
{
horizontal = 1;
place = "{415, -20}";
target = down;
type = TopGhost;
}
);
layerId = UUID0;
paths = (
{
closed = 1;
nodes = (
"30 295 LINE",
"30 238 LINE",
"256 358 LINE",
"256 415 LINE"
);
}
);
width = 286;
}
);
unicode = 0142;
},
{
glyphname = m;
lastChange = "2016-08-24 09:13:07 +0000";
layers = (
{
hints = (
{
place = "{60, 60}";
},
{
place = "{324, 60}";
},
{
place = "{588, 60}";
},
{
horizontal = 1;
place = "{453, 57}";
},
{
horizontal = 1;
place = "{0, 21}";
target = up;
type = BottomGhost;
},
{
horizontal = 1;
place = "{500, -20}";
target = down;
type = TopGhost;
}
);
layerId = UUID0;
paths = (
{
closed = 1;
nodes = (
"648 0 LINE",
"648 363 LINE SMOOTH",
"648 444 OFFCURVE",
"582 510 OFFCURVE",
"501 510 CURVE SMOOTH",
"496 510 LINE SMOOTH",
"440 510 OFFCURVE",
"391 479 OFFCURVE",
"366 433 CURVE",
"342 479 OFFCURVE",
"293 510 OFFCURVE",
"237 510 CURVE SMOOTH",
"232 510 LINE SMOOTH",
"183 510 OFFCURVE",
"140 486 OFFCURVE",
"113 449 CURVE",
"80 500 LINE",
"60 500 LINE",
"60 0 LINE",
"120 0 LINE",
"120 366 LINE SMOOTH",
"120 414 OFFCURVE",
"159 453 OFFCURVE",
"207 453 CURVE SMOOTH",
"237 453 LINE SMOOTH",
"285 453 OFFCURVE",
"324 414 OFFCURVE",
"324 366 CURVE SMOOTH",
"324 0 LINE",
"384 0 LINE",
"384 366 LINE SMOOTH",
"384 414 OFFCURVE",
"423 453 OFFCURVE",
"471 453 CURVE SMOOTH",
"501 453 LINE SMOOTH",
"549 453 OFFCURVE",
"588 414 OFFCURVE",
"588 366 CURVE SMOOTH",
"588 0 LINE"
);
}
);
width = 708;
}
);
unicode = 006D;
},
{
glyphname = n;
lastChange = "2016-08-24 09:13:07 +0000";
layers = (
{
hints = (
{
place = "{60, 60}";
},
{
place = "{334, 60}";
},
{
horizontal = 1;
place = "{453, 57}";
},
{
horizontal = 1;
place = "{0, 21}";
target = up;
type = BottomGhost;
},
{
horizontal = 1;
place = "{500, -20}";
target = down;
type = TopGhost;
}
);
layerId = UUID0;
paths = (
{
closed = 1;
nodes = (
"394 0 LINE",
"394 363 LINE SMOOTH",
"394 444 OFFCURVE",
"328 510 OFFCURVE",
"247 510 CURVE SMOOTH",
"232 510 LINE SMOOTH",
"183 510 OFFCURVE",
"140 486 OFFCURVE",
"113 449 CURVE",
"80 500 LINE",
"60 500 LINE",
"60 0 LINE",
"120 0 LINE",
"120 366 LINE SMOOTH",
"120 414 OFFCURVE",
"159 453 OFFCURVE",
"207 453 CURVE SMOOTH",
"247 453 LINE SMOOTH",
"295 453 OFFCURVE",
"334 414 OFFCURVE",
"334 366 CURVE SMOOTH",
"334 0 LINE"
);
}
);
width = 454;
}
);
unicode = 006E;
},
{
glyphname = o;
lastChange = "2016-08-24 09:13:07 +0000";
layers = (
{
hints = (
{
place = "{60, 60}";
},
{
place = "{334, 60}";
},
{
horizontal = 1;
place = "{-10, 57}";
},
{
horizontal = 1;
place = "{453, 57}";
}
);
layerId = UUID0;
paths = (
{
closed = 1;
nodes = (
"394 363 LINE SMOOTH",
"394 444 OFFCURVE",
"328 510 OFFCURVE",
"247 510 CURVE SMOOTH",
"207 510 LINE SMOOTH",
"126 510 OFFCURVE",
"60 444 OFFCURVE",
"60 363 CURVE SMOOTH",
"60 137 LINE SMOOTH",
"60 56 OFFCURVE",
"126 -10 OFFCURVE",
"207 -10 CURVE SMOOTH",
"247 -10 LINE SMOOTH",
"328 -10 OFFCURVE",
"394 56 OFFCURVE",
"394 137 CURVE SMOOTH"
);
},
{
closed = 1;
nodes = (
"334 134 LINE SMOOTH",
"334 86 OFFCURVE",
"295 47 OFFCURVE",
"247 47 CURVE SMOOTH",
"207 47 LINE SMOOTH",
"159 47 OFFCURVE",
"120 86 OFFCURVE",
"120 134 CURVE SMOOTH",
"120 366 LINE SMOOTH",
"120 414 OFFCURVE",
"159 453 OFFCURVE",
"207 453 CURVE SMOOTH",
"247 453 LINE SMOOTH",
"295 453 OFFCURVE",
"334 414 OFFCURVE",
"334 366 CURVE SMOOTH"
);
}
);
width = 454;
}
);
unicode = 006F;
},
{
glyphname = oslash;
lastChange = "2016-08-24 09:13:07 +0000";
layers = (
{
hints = (
{
place = "{60, 60}";
},
{
place = "{334, 60}";
},
{
horizontal = 1;
place = "{-10, 57}";
},
{
horizontal = 1;
place = "{453, 57}";
},
{
horizontal = 1;
place = "{-30, 21}";
target = up;
type = BottomGhost;
},
{
horizontal = 1;
place = "{530, -20}";
target = down;
type = TopGhost;
}
);
layerId = UUID0;
paths = (
{
closed = 1;
nodes = (
"83 -30 LINE",
"115 22 LINE",
"140 2 OFFCURVE",
"172 -10 OFFCURVE",
"207 -10 CURVE SMOOTH",
"247 -10 LINE SMOOTH",
"328 -10 OFFCURVE",
"394 56 OFFCURVE",
"394 137 CURVE SMOOTH",
"394 363 LINE SMOOTH",
"394 392 OFFCURVE",
"385 419 OFFCURVE",
"371 442 CURVE",
"425 530 LINE",
"372 530 LINE",
"339 477 LINE",
"314 497 OFFCURVE",
"282 510 OFFCURVE",
"247 510 CURVE SMOOTH",
"207 510 LINE SMOOTH",
"126 510 OFFCURVE",
"60 444 OFFCURVE",
"60 363 CURVE SMOOTH",
"60 137 LINE SMOOTH",
"60 107 OFFCURVE",
"68 80 OFFCURVE",
"83 57 CURVE",
"30 -30 LINE"
);
},
{
closed = 1;
nodes = (
"120 366 LINE SMOOTH",
"120 414 OFFCURVE",
"159 453 OFFCURVE",
"207 453 CURVE SMOOTH",
"247 453 LINE SMOOTH",
"271 453 OFFCURVE",
"293 443 OFFCURVE",
"309 427 CURVE",
"121 119 LINE",
"120 124 OFFCURVE",
"120 129 OFFCURVE",
"120 134 CURVE SMOOTH"
);
},
{
closed = 1;
nodes = (
"334 134 LINE SMOOTH",
"334 86 OFFCURVE",
"295 47 OFFCURVE",
"247 47 CURVE SMOOTH",
"207 47 LINE SMOOTH",
"183 47 OFFCURVE",
"161 56 OFFCURVE",
"145 72 CURVE",
"333 379 LINE",
"333 375 OFFCURVE",
"334 370 OFFCURVE",
"334 366 CURVE SMOOTH"
);
}
);
width = 455;
}
);
unicode = 00F8;
},
{
glyphname = oe;
lastChange = "2016-08-24 09:13:07 +0000";
layers = (
{
hints = (
{
place = "{60, 60}";
},
{
place = "{334, 61}";
},
{
place = "{609, 60}";
},
{
horizontal = 1;
place = "{-10, 57}";
},
{
horizontal = 1;
place = "{245, 47}";
},
{
horizontal = 1;
place = "{453, 57}";
}
);
layerId = UUID0;
paths = (
{
closed = 1;
nodes = (
"669 157 LINE",
"609 167 LINE",
"609 134 LINE SMOOTH",
"609 86 OFFCURVE",
"570 47 OFFCURVE",
"522 47 CURVE SMOOTH",
"482 47 LINE SMOOTH",
"434 47 OFFCURVE",
"395 86 OFFCURVE",
"395 134 CURVE SMOOTH",
"395 245 LINE",
"669 245 LINE",
"669 363 LINE SMOOTH",
"669 444 OFFCURVE",
"603 510 OFFCURVE",
"522 510 CURVE SMOOTH",
"482 510 LINE SMOOTH",
"434 510 OFFCURVE",
"391 486 OFFCURVE",
"364 451 CURVE",
"337 486 OFFCURVE",
"295 510 OFFCURVE",
"247 510 CURVE SMOOTH",
"207 510 LINE SMOOTH",
"126 510 OFFCURVE",
"60 444 OFFCURVE",
"60 363 CURVE SMOOTH",
"60 137 LINE SMOOTH",
"60 56 OFFCURVE",
"126 -10 OFFCURVE",
"207 -10 CURVE SMOOTH",
"247 -10 LINE SMOOTH",
"295 -10 OFFCURVE",
"337 13 OFFCURVE",
"364 49 CURVE",
"391 13 OFFCURVE",
"434 -10 OFFCURVE",
"482 -10 CURVE SMOOTH",
"522 -10 LINE SMOOTH",
"603 -10 OFFCURVE",
"669 56 OFFCURVE",
"669 137 CURVE SMOOTH"
);
},
{
closed = 1;
nodes = (
"334 134 LINE SMOOTH",
"334 86 OFFCURVE",
"295 47 OFFCURVE",
"247 47 CURVE SMOOTH",
"207 47 LINE SMOOTH",
"159 47 OFFCURVE",
"120 86 OFFCURVE",
"120 134 CURVE SMOOTH",
"120 366 LINE SMOOTH",
"120 414 OFFCURVE",
"159 453 OFFCURVE",
"207 453 CURVE SMOOTH",
"247 453 LINE SMOOTH",
"295 453 OFFCURVE",
"334 414 OFFCURVE",
"334 366 CURVE SMOOTH"
);
},
{
closed = 1;
nodes = (
"609 292 LINE",
"395 292 LINE",
"395 366 LINE SMOOTH",
"395 414 OFFCURVE",
"434 453 OFFCURVE",
"482 453 CURVE SMOOTH",
"522 453 LINE SMOOTH",
"570 453 OFFCURVE",
"609 414 OFFCURVE",
"609 366 CURVE SMOOTH"
);
}
);
width = 729;
}
);
unicode = 0153;
},
{
glyphname = p;
lastChange = "2016-08-24 09:13:07 +0000";
layers = (
{
hints = (
{
place = "{60, 60}";
},
{
place = "{334, 60}";
},
{
horizontal = 1;
place = "{-10, 57}";
},
{
horizontal = 1;
place = "{453, 57}";
},
{
horizontal = 1;
place = "{500, -20}";
target = down;
type = TopGhost;
},
{
horizontal = 1;
place = "{-200, 21}";
target = up;
type = BottomGhost;
}
);
layerId = UUID0;
paths = (
{
closed = 1;
nodes = (
"394 363 LINE SMOOTH",
"394 444 OFFCURVE",
"328 510 OFFCURVE",
"247 510 CURVE SMOOTH",
"232 510 LINE SMOOTH",
"183 510 OFFCURVE",
"140 486 OFFCURVE",
"113 449 CURVE",
"80 500 LINE",
"60 500 LINE",
"60 -200 LINE",
"120 -200 LINE",
"120 42 LINE",
"147 10 OFFCURVE",
"187 -10 OFFCURVE",
"232 -10 CURVE SMOOTH",
"247 -10 LINE SMOOTH",
"328 -10 OFFCURVE",
"394 56 OFFCURVE",
"394 137 CURVE SMOOTH"
);
},
{
closed = 1;
nodes = (
"334 134 LINE SMOOTH",
"334 86 OFFCURVE",
"295 47 OFFCURVE",
"247 47 CURVE SMOOTH",
"207 47 LINE SMOOTH",
"159 47 OFFCURVE",
"120 86 OFFCURVE",
"120 134 CURVE SMOOTH",
"120 366 LINE SMOOTH",
"120 414 OFFCURVE",
"159 453 OFFCURVE",
"207 453 CURVE SMOOTH",
"247 453 LINE SMOOTH",
"295 453 OFFCURVE",
"334 414 OFFCURVE",
"334 366 CURVE SMOOTH"
);
}
);
width = 454;
}
);
unicode = 0070;
},
{
glyphname = thorn;
lastChange = "2016-08-24 09:13:07 +0000";
layers = (
{
hints = (
{
place = "{60, 60}";
},
{
place = "{334, 60}";
},
{
horizontal = 1;
place = "{-10, 57}";
},
{
horizontal = 1;
place = "{453, 57}";
},
{
horizontal = 1;
place = "{700, -20}";
target = down;
type = TopGhost;
},
{
horizontal = 1;
place = "{-200, 21}";
target = up;
type = BottomGhost;
}
);
layerId = UUID0;
paths = (
{
closed = 1;
nodes = (
"394 363 LINE SMOOTH",
"394 444 OFFCURVE",
"328 510 OFFCURVE",
"247 510 CURVE SMOOTH",
"232 510 LINE SMOOTH",
"187 510 OFFCURVE",
"147 490 OFFCURVE",
"120 458 CURVE",
"120 700 LINE",
"60 700 LINE",
"60 -200 LINE",
"120 -200 LINE",
"120 42 LINE",
"147 10 OFFCURVE",
"187 -10 OFFCURVE",
"232 -10 CURVE SMOOTH",
"247 -10 LINE SMOOTH",
"328 -10 OFFCURVE",
"394 56 OFFCURVE",
"394 137 CURVE SMOOTH"
);
},
{
closed = 1;
nodes = (
"334 134 LINE SMOOTH",
"334 86 OFFCURVE",
"295 47 OFFCURVE",
"247 47 CURVE SMOOTH",
"207 47 LINE SMOOTH",
"159 47 OFFCURVE",
"120 86 OFFCURVE",
"120 134 CURVE SMOOTH",
"120 366 LINE SMOOTH",
"120 414 OFFCURVE",
"159 453 OFFCURVE",
"207 453 CURVE SMOOTH",
"247 453 LINE SMOOTH",
"295 453 OFFCURVE",
"334 414 OFFCURVE",
"334 366 CURVE SMOOTH"
);
}
);
width = 454;
}
);
unicode = 00FE;
},
{
glyphname = q;
lastChange = "2016-08-24 09:13:07 +0000";
layers = (
{
hints = (
{
place = "{60, 60}";
},
{
place = "{334, 60}";
},
{
horizontal = 1;
place = "{-10, 57}";
},
{
horizontal = 1;
place = "{453, 57}";
},
{
horizontal = 1;
place = "{-200, 21}";
target = up;
type = BottomGhost;
},
{
horizontal = 1;
place = "{500, -20}";
target = down;
type = TopGhost;
}
);
layerId = UUID0;
paths = (
{
closed = 1;
nodes = (
"394 -200 LINE",
"394 500 LINE",
"374 500 LINE",
"341 449 LINE",
"314 486 OFFCURVE",
"271 510 OFFCURVE",
"222 510 CURVE SMOOTH",
"207 510 LINE SMOOTH",
"126 510 OFFCURVE",
"60 444 OFFCURVE",
"60 363 CURVE SMOOTH",
"60 137 LINE SMOOTH",
"60 56 OFFCURVE",
"126 -10 OFFCURVE",
"207 -10 CURVE SMOOTH",
"222 -10 LINE SMOOTH",
"267 -10 OFFCURVE",
"307 10 OFFCURVE",
"334 42 CURVE",
"334 -200 LINE"
);
},
{
closed = 1;
nodes = (
"334 134 LINE SMOOTH",
"334 86 OFFCURVE",
"295 47 OFFCURVE",
"247 47 CURVE SMOOTH",
"207 47 LINE SMOOTH",
"159 47 OFFCURVE",
"120 86 OFFCURVE",
"120 134 CURVE SMOOTH",
"120 366 LINE SMOOTH",
"120 414 OFFCURVE",
"159 453 OFFCURVE",
"207 453 CURVE SMOOTH",
"247 453 LINE SMOOTH",
"295 453 OFFCURVE",
"334 414 OFFCURVE",
"334 366 CURVE SMOOTH"
);
}
);
width = 454;
}
);
unicode = 0071;
},
{
glyphname = r;
lastChange = "2016-08-24 09:13:07 +0000";
layers = (
{
hints = (
{
place = "{60, 60}";
},
{
horizontal = 1;
place = "{443, 67}";
},
{
horizontal = 1;
place = "{500, -20}";
target = down;
type = TopGhost;
},
{
horizontal = 1;
place = "{0, 21}";
target = up;
type = BottomGhost;
}
);
layerId = UUID0;
paths = (
{
closed = 1;
nodes = (
"267 443 LINE",
"267 510 LINE",
"232 510 LINE SMOOTH",
"183 510 OFFCURVE",
"140 486 OFFCURVE",
"113 449 CURVE",
"80 500 LINE",
"60 500 LINE",
"60 0 LINE",
"120 0 LINE",
"120 356 LINE SMOOTH",
"120 404 OFFCURVE",
"159 443 OFFCURVE",
"207 443 CURVE SMOOTH"
);
}
);
width = 287;
}
);
unicode = 0072;
},
{
glyphname = rcommaaccent;
lastChange = "2016-08-24 09:13:07 +0000";
layers = (
{
hints = (
{
place = "{60, 60}";
},
{
horizontal = 1;
place = "{443, 67}";
},
{
horizontal = 1;
place = "{500, -20}";
target = down;
type = TopGhost;
},
{
horizontal = 1;
place = "{0, 21}";
target = up;
type = BottomGhost;
},
{
horizontal = 1;
place = "{-295, 21}";
target = up;
type = BottomGhost;
}
);
layerId = UUID0;
paths = (
{
closed = 1;
nodes = (
"267 443 LINE",
"267 510 LINE",
"232 510 LINE SMOOTH",
"183 510 OFFCURVE",
"140 486 OFFCURVE",
"113 449 CURVE",
"80 500 LINE",
"60 500 LINE",
"60 0 LINE",
"120 0 LINE",
"120 356 LINE SMOOTH",
"120 404 OFFCURVE",
"159 443 OFFCURVE",
"207 443 CURVE SMOOTH"
);
},
{
closed = 1;
nodes = (
"135 -80 LINE",
"60 -80 LINE",
"60 -295 LINE",
"85 -295 LINE"
);
}
);
width = 287;
}
);
unicode = 0157;
},
{
glyphname = s;
lastChange = "2016-08-24 09:13:07 +0000";
layers = (
{
background = {
paths = (
{
closed = 1;
nodes = (
"404 309 OFFCURVE",
"130 253 OFFCURVE",
"130 366 CURVE SMOOTH",
"130 414 OFFCURVE",
"169 453 OFFCURVE",
"217 453 CURVE SMOOTH",
"257 453 LINE SMOOTH",
"305 453 OFFCURVE",
"344 414 OFFCURVE",
"344 366 CURVE SMOOTH",
"344 343 LINE",
"404 353 LINE",
"404 363 LINE SMOOTH",
"404 444 OFFCURVE",
"338 510 OFFCURVE",
"257 510 CURVE SMOOTH",
"217 510 LINE SMOOTH",
"136 510 OFFCURVE",
"70 444 OFFCURVE",
"70 363 CURVE SMOOTH",
"70 192 OFFCURVE",
"344 251 OFFCURVE",
"344 134 CURVE SMOOTH",
"344 86 OFFCURVE",
"305 47 OFFCURVE",
"257 47 CURVE SMOOTH",
"217 47 LINE SMOOTH",
"169 47 OFFCURVE",
"130 86 OFFCURVE",
"130 134 CURVE SMOOTH",
"130 167 LINE",
"70 157 LINE",
"70 137 LINE SMOOTH",
"70 56 OFFCURVE",
"136 -10 OFFCURVE",
"217 -10 CURVE SMOOTH",
"257 -10 LINE SMOOTH",
"338 -10 OFFCURVE",
"404 56 OFFCURVE",
"404 137 CURVE SMOOTH"
);
}
);
};
hints = (
{
place = "{60, 60}";
},
{
place = "{70, 50}";
},
{
place = "{344, 60}";
},
{
place = "{70, 60}";
},
{
horizontal = 1;
place = "{-10, 57}";
},
{
horizontal = 1;
place = "{453, 57}";
}
);
layerId = UUID0;
paths = (
{
closed = 1;
nodes = (
"404 318 OFFCURVE",
"130 239 OFFCURVE",
"130 376 CURVE SMOOTH",
"130 424 OFFCURVE",
"169 453 OFFCURVE",
"217 453 CURVE SMOOTH",
"252 453 LINE SMOOTH",
"300 453 OFFCURVE",
"339 414 OFFCURVE",
"339 366 CURVE SMOOTH",
"339 351 LINE",
"399 361 LINE",
"399 363 LINE SMOOTH",
"399 444 OFFCURVE",
"333 510 OFFCURVE",
"252 510 CURVE SMOOTH",
"217 510 LINE SMOOTH",
"136 510 OFFCURVE",
"70 454 OFFCURVE",
"70 373 CURVE SMOOTH",
"70 182 OFFCURVE",
"344 267 OFFCURVE",
"344 124 CURVE SMOOTH",
"344 76 OFFCURVE",
"300 47 OFFCURVE",
"252 47 CURVE SMOOTH",
"212 47 LINE SMOOTH",
"164 47 OFFCURVE",
"120 86 OFFCURVE",
"120 134 CURVE SMOOTH",
"120 167 LINE",
"60 157 LINE",
"60 137 LINE SMOOTH",
"60 56 OFFCURVE",
"131 -10 OFFCURVE",
"212 -10 CURVE SMOOTH",
"252 -10 LINE SMOOTH",
"333 -10 OFFCURVE",
"404 46 OFFCURVE",
"404 127 CURVE SMOOTH"
);
}
);
width = 459;
}
);
unicode = 0073;
},
{
glyphname = germandbls;
lastChange = "2016-08-24 09:13:07 +0000";
layers = (
{
hints = (
{
place = "{83, 60}";
},
{
place = "{396, 60}";
},
{
horizontal = 1;
place = "{0, 57}";
},
{
horizontal = 1;
place = "{345, 57}";
},
{
horizontal = 1;
place = "{653, 57}";
}
);
layerId = UUID0;
paths = (
{
closed = 1;
nodes = (
"230 0 LINE",
"284 0 LINE SMOOTH",
"379 0 OFFCURVE",
"456 77 OFFCURVE",
"456 172 CURVE SMOOTH",
"456 222 LINE SMOOTH",
"456 288 OFFCURVE",
"419 345 OFFCURVE",
"365 374 CURVE",
"419 403 OFFCURVE",
"456 460 OFFCURVE",
"456 526 CURVE SMOOTH",
"456 538 LINE SMOOTH",
"456 633 OFFCURVE",
"379 710 OFFCURVE",
"284 710 CURVE SMOOTH",
"252 710 LINE SMOOTH",
"157 710 OFFCURVE",
"83 633 OFFCURVE",
"83 538 CURVE SMOOTH",
"83 0 LINE",
"143 0 LINE",
"143 541 LINE SMOOTH",
"143 603 OFFCURVE",
"193 653 OFFCURVE",
"255 653 CURVE SMOOTH",
"284 653 LINE SMOOTH",
"346 653 OFFCURVE",
"396 603 OFFCURVE",
"396 541 CURVE SMOOTH",
"396 514 LINE SMOOTH",
"396 452 OFFCURVE",
"346 402 OFFCURVE",
"284 402 CURVE SMOOTH",
"230 402 LINE",
"230 345 LINE",
"284 345 LINE SMOOTH",
"346 345 OFFCURVE",
"396 295 OFFCURVE",
"396 233 CURVE SMOOTH",
"396 169 LINE SMOOTH",
"396 107 OFFCURVE",
"346 57 OFFCURVE",
"284 57 CURVE SMOOTH",
"230 57 LINE"
);
}
);
width = 514;
}
);
unicode = 00DF;
},
{
glyphname = t;
lastChange = "2016-08-24 09:13:07 +0000";
layers = (
{
hints = (
{
place = "{110, 60}";
},
{
place = "{110, 187}";
},
{
horizontal = 1;
place = "{0, 57}";
},
{
horizontal = 1;
place = "{443, 57}";
},
{
horizontal = 1;
place = "{630, -20}";
target = down;
type = TopGhost;
}
);
layerId = UUID0;
paths = (
{
closed = 1;
nodes = (
"297 0 LINE",
"297 57 LINE",
"242 57 LINE SMOOTH",
"202 57 OFFCURVE",
"170 89 OFFCURVE",
"170 129 CURVE SMOOTH",
"170 443 LINE",
"297 443 LINE",
"297 500 LINE",
"170 500 LINE",
"170 630 LINE",
"110 620 LINE",
"110 500 LINE",
"20 500 LINE",
"20 443 LINE",
"110 443 LINE",
"110 132 LINE SMOOTH",
"110 59 OFFCURVE",
"169 0 OFFCURVE",
"242 0 CURVE SMOOTH"
);
}
);
width = 347;
}
);
unicode = 0074;
},
{
glyphname = u;
lastChange = "2016-08-24 09:13:07 +0000";
layers = (
{
hints = (
{
place = "{60, 60}";
},
{
place = "{334, 60}";
},
{
horizontal = 1;
place = "{-10, 57}";
},
{
horizontal = 1;
place = "{500, -20}";
target = down;
type = TopGhost;
},
{
horizontal = 1;
place = "{0, 21}";
target = up;
type = BottomGhost;
}
);
layerId = UUID0;
paths = (
{
closed = 1;
nodes = (
"394 0 LINE",
"394 500 LINE",
"334 500 LINE",
"334 134 LINE SMOOTH",
"334 86 OFFCURVE",
"295 47 OFFCURVE",
"247 47 CURVE SMOOTH",
"207 47 LINE SMOOTH",
"159 47 OFFCURVE",
"120 86 OFFCURVE",
"120 134 CURVE SMOOTH",
"120 500 LINE",
"60 500 LINE",
"60 137 LINE SMOOTH",
"60 56 OFFCURVE",
"126 -10 OFFCURVE",
"207 -10 CURVE SMOOTH",
"222 -10 LINE SMOOTH",
"271 -10 OFFCURVE",
"314 14 OFFCURVE",
"341 51 CURVE",
"374 0 LINE"
);
}
);
width = 454;
}
);
unicode = 0075;
},
{
glyphname = v;
lastChange = "2016-08-24 09:13:07 +0000";
layers = (
{
hints = (
{
horizontal = 1;
place = "{500, -20}";
target = down;
type = TopGhost;
},
{
horizontal = 1;
place = "{0, 21}";
target = up;
type = BottomGhost;
}
);
layerId = UUID0;
paths = (
{
closed = 1;
nodes = (
"394 500 LINE",
"334 500 LINE",
"204 121 LINE",
"202 95 LINE",
"200 121 LINE",
"70 500 LINE",
"10 500 LINE",
"187 0 LINE",
"217 0 LINE"
);
}
);
width = 404;
}
);
unicode = 0076;
},
{
glyphname = w;
lastChange = "2016-08-24 09:13:07 +0000";
layers = (
{
hints = (
{
horizontal = 1;
place = "{500, -20}";
target = down;
type = TopGhost;
},
{
horizontal = 1;
place = "{0, 21}";
target = up;
type = BottomGhost;
}
);
layerId = UUID0;
paths = (
{
closed = 1;
nodes = (
"648 500 LINE",
"587 500 LINE",
"468 122 LINE",
"466 96 LINE",
"464 122 LINE",
"347 500 LINE",
"311 500 LINE",
"194 122 LINE",
"192 96 LINE",
"190 122 LINE",
"71 500 LINE",
"10 500 LINE",
"177 0 LINE",
"210 0 LINE",
"327 377 LINE",
"329 403 LINE",
"331 377 LINE",
"448 0 LINE",
"481 0 LINE"
);
}
);
width = 658;
}
);
unicode = 0077;
},
{
glyphname = x;
lastChange = "2016-08-24 09:13:07 +0000";
layers = (
{
hints = (
{
horizontal = 1;
place = "{0, 21}";
target = up;
type = BottomGhost;
},
{
horizontal = 1;
place = "{500, -20}";
target = down;
type = TopGhost;
}
);
layerId = UUID0;
paths = (
{
closed = 1;
nodes = (
"384 0 LINE",
"244 250 LINE",
"384 500 LINE",
"319 500 LINE",
"212 308 LINE",
"105 500 LINE",
"40 500 LINE",
"180 250 LINE",
"40 0 LINE",
"105 0 LINE",
"212 192 LINE",
"319 0 LINE"
);
}
);
width = 424;
}
);
unicode = 0078;
},
{
glyphname = y;
lastChange = "2016-08-24 09:13:07 +0000";
layers = (
{
hints = (
{
horizontal = 1;
place = "{500, -20}";
target = down;
type = TopGhost;
},
{
horizontal = 1;
place = "{-200, 21}";
target = up;
type = BottomGhost;
}
);
layerId = UUID0;
paths = (
{
closed = 1;
nodes = (
"394 500 LINE",
"334 500 LINE",
"204 121 LINE",
"202 95 LINE",
"200 121 LINE",
"70 500 LINE",
"10 500 LINE",
"172 43 LINE",
"83 -200 LINE",
"141 -200 LINE"
);
}
);
width = 394;
}
);
unicode = 0079;
},
{
glyphname = z;
lastChange = "2016-08-24 09:13:07 +0000";
layers = (
{
hints = (
{
horizontal = 1;
place = "{0, 57}";
},
{
horizontal = 1;
place = "{443, 57}";
}
);
layerId = UUID0;
paths = (
{
closed = 1;
nodes = (
"374 0 LINE",
"374 57 LINE",
"122 57 LINE",
"374 473 LINE",
"374 500 LINE",
"50 500 LINE",
"50 443 LINE",
"292 443 LINE",
"40 27 LINE",
"40 0 LINE"
);
}
);
width = 414;
}
);
unicode = 007A;
},
{
glyphname = ordfeminine;
lastChange = "2016-08-24 09:13:07 +0000";
layers = (
{
hints = (
{
place = "{73, 46}";
},
{
place = "{234, 46}";
},
{
horizontal = 1;
place = "{270, 38}";
},
{
horizontal = 1;
place = "{382, 44}";
},
{
horizontal = 1;
place = "{533, 38}";
},
{
horizontal = 1;
place = "{660, 44}";
}
);
layerId = UUID0;
paths = (
{
closed = 1;
nodes = (
"280 388 LINE",
"280 611 LINE SMOOTH",
"280 662 OFFCURVE",
"239 704 OFFCURVE",
"187 704 CURVE SMOOTH",
"166 704 LINE SMOOTH",
"114 704 OFFCURVE",
"73 660 OFFCURVE",
"73 607 CURVE",
"119 595 LINE",
"119 613 LINE SMOOTH",
"119 638 OFFCURVE",
"140 660 OFFCURVE",
"166 660 CURVE SMOOTH",
"187 660 LINE SMOOTH",
"213 660 OFFCURVE",
"234 638 OFFCURVE",
"234 613 CURVE SMOOTH",
"234 571 LINE",
"163 571 LINE SMOOTH",
"111 571 OFFCURVE",
"70 530 OFFCURVE",
"70 478 CURVE SMOOTH",
"70 424 OFFCURVE",
"111 382 OFFCURVE",
"163 382 CURVE SMOOTH",
"172 382 LINE SMOOTH",
"198 382 OFFCURVE",
"225 396 OFFCURVE",
"242 414 CURVE",
"260 388 LINE"
);
},
{
closed = 1;
nodes = (
"234 473 LINE SMOOTH",
"234 448 OFFCURVE",
"213 426 OFFCURVE",
"187 426 CURVE SMOOTH",
"163 426 LINE SMOOTH",
"137 426 OFFCURVE",
"116 448 OFFCURVE",
"116 473 CURVE SMOOTH",
"116 486 LINE SMOOTH",
"116 512 OFFCURVE",
"137 533 OFFCURVE",
"163 533 CURVE SMOOTH",
"234 533 LINE"
);
},
{
closed = 1;
nodes = (
"70 270 LINE",
"280 270 LINE",
"280 308 LINE",
"70 308 LINE"
);
}
);
width = 350;
}
);
unicode = 00AA;
},
{
glyphname = ordmasculine;
lastChange = "2016-08-24 09:13:07 +0000";
layers = (
{
hints = (
{
place = "{70, 46}";
},
{
place = "{234, 46}";
},
{
horizontal = 1;
place = "{270, 38}";
},
{
horizontal = 1;
place = "{382, 44}";
},
{
horizontal = 1;
place = "{660, 44}";
}
);
layerId = UUID0;
paths = (
{
closed = 1;
nodes = (
"280 611 LINE SMOOTH",
"280 662 OFFCURVE",
"239 704 OFFCURVE",
"187 704 CURVE SMOOTH",
"163 704 LINE SMOOTH",
"111 704 OFFCURVE",
"70 662 OFFCURVE",
"70 611 CURVE SMOOTH",
"70 475 LINE SMOOTH",
"70 424 OFFCURVE",
"111 382 OFFCURVE",
"163 382 CURVE SMOOTH",
"187 382 LINE SMOOTH",
"239 382 OFFCURVE",
"280 424 OFFCURVE",
"280 475 CURVE SMOOTH"
);
},
{
closed = 1;
nodes = (
"234 473 LINE SMOOTH",
"234 448 OFFCURVE",
"213 426 OFFCURVE",
"187 426 CURVE SMOOTH",
"163 426 LINE SMOOTH",
"137 426 OFFCURVE",
"116 448 OFFCURVE",
"116 473 CURVE SMOOTH",
"116 613 LINE SMOOTH",
"116 638 OFFCURVE",
"137 660 OFFCURVE",
"163 660 CURVE SMOOTH",
"187 660 LINE SMOOTH",
"213 660 OFFCURVE",
"234 638 OFFCURVE",
"234 613 CURVE SMOOTH"
);
},
{
closed = 1;
nodes = (
"70 270 LINE",
"280 270 LINE",
"280 308 LINE",
"70 308 LINE"
);
}
);
width = 350;
}
);
unicode = 00BA;
},
{
glyphname = zero;
lastChange = "2016-08-24 09:13:07 +0000";
layers = (
{
hints = (
{
place = "{70, 63}";
},
{
place = "{381, 63}";
},
{
horizontal = 1;
place = "{-10, 60}";
},
{
horizontal = 1;
place = "{650, 60}";
}
);
layerId = UUID0;
paths = (
{
closed = 1;
nodes = (
"444 538 LINE SMOOTH",
"444 633 OFFCURVE",
"367 710 OFFCURVE",
"272 710 CURVE SMOOTH",
"242 710 LINE SMOOTH",
"147 710 OFFCURVE",
"70 633 OFFCURVE",
"70 538 CURVE SMOOTH",
"70 162 LINE SMOOTH",
"70 67 OFFCURVE",
"147 -10 OFFCURVE",
"242 -10 CURVE SMOOTH",
"272 -10 LINE SMOOTH",
"367 -10 OFFCURVE",
"444 67 OFFCURVE",
"444 162 CURVE SMOOTH"
);
},
{
closed = 1;
nodes = (
"381 162 LINE SMOOTH",
"381 100 OFFCURVE",
"331 50 OFFCURVE",
"269 50 CURVE SMOOTH",
"245 50 LINE SMOOTH",
"183 50 OFFCURVE",
"133 100 OFFCURVE",
"133 162 CURVE SMOOTH",
"133 538 LINE SMOOTH",
"133 600 OFFCURVE",
"183 650 OFFCURVE",
"245 650 CURVE SMOOTH",
"269 650 LINE SMOOTH",
"331 650 OFFCURVE",
"381 600 OFFCURVE",
"381 538 CURVE SMOOTH"
);
}
);
width = 514;
}
);
unicode = 0030;
},
{
glyphname = one;
lastChange = "2016-08-24 09:13:07 +0000";
layers = (
{
hints = (
{
place = "{247, 63}";
},
{
horizontal = 1;
place = "{0, 60}";
},
{
horizontal = 1;
place = "{700, -20}";
target = down;
type = TopGhost;
}
);
layerId = UUID0;
paths = (
{
closed = 1;
nodes = (
"477 0 LINE",
"477 60 LINE",
"310 60 LINE",
"310 700 LINE",
"247 700 LINE",
"80 630 LINE",
"80 570 LINE",
"247 640 LINE",
"247 60 LINE",
"80 60 LINE",
"80 0 LINE"
);
}
);
width = 517;
}
);
unicode = 0031;
},
{
glyphname = two;
lastChange = "2016-08-24 09:13:07 +0000";
layers = (
{
background = {
paths = (
{
closed = 1;
nodes = (
"429 508 LINE",
"429 287 OFFCURVE",
"141 60 OFFCURVE",
"141 60 CURVE",
"434 60 LINE",
"434 0 LINE",
"40 0 LINE",
"40 50 LINE",
"40 50 OFFCURVE",
"366 286 OFFCURVE",
"366 508 CURVE SMOOTH",
"366 538 LINE SMOOTH",
"366 600 OFFCURVE",
"316 650 OFFCURVE",
"254 650 CURVE SMOOTH",
"230 650 LINE SMOOTH",
"168 650 OFFCURVE",
"118 600 OFFCURVE",
"118 538 CURVE SMOOTH",
"118 510 LINE",
"55 520 LINE",
"55 538 LINE SMOOTH",
"55 633 OFFCURVE",
"132 710 OFFCURVE",
"227 710 CURVE SMOOTH",
"257 710 LINE SMOOTH",
"352 710 OFFCURVE",
"429 633 OFFCURVE",
"429 538 CURVE SMOOTH"
);
}
);
};
hints = (
{
place = "{55, 63}";
},
{
place = "{366, 63}";
},
{
horizontal = 1;
place = "{0, 60}";
},
{
horizontal = 1;
place = "{650, 60}";
}
);
layerId = UUID0;
paths = (
{
closed = 1;
nodes = (
"254 650 LINE SMOOTH",
"312 650 OFFCURVE",
"366 610 OFFCURVE",
"366 528 CURVE SMOOTH",
"366 306 OFFCURVE",
"40 50 OFFCURVE",
"40 50 CURVE",
"40 0 LINE",
"434 0 LINE",
"434 60 LINE",
"139 60 LINE SMOOTH",
"139 60 OFFCURVE",
"429 307 OFFCURVE",
"429 528 CURVE SMOOTH",
"429 639 OFFCURVE",
"352 710 OFFCURVE",
"257 710 CURVE SMOOTH",
"227 710 LINE SMOOTH",
"132 710 OFFCURVE",
"55 633 OFFCURVE",
"55 538 CURVE SMOOTH",
"55 520 LINE",
"118 510 LINE",
"118 538 LINE SMOOTH",
"118 600 OFFCURVE",
"168 650 OFFCURVE",
"230 650 CURVE SMOOTH"
);
}
);
width = 494;
}
);
unicode = 0032;
},
{
glyphname = three;
lastChange = "2016-08-24 09:13:07 +0000";
layers = (
{
hints = (
{
place = "{70, 63}";
},
{
place = "{381, 63}";
},
{
horizontal = 1;
place = "{-10, 60}";
},
{
horizontal = 1;
place = "{332, 60}";
},
{
horizontal = 1;
place = "{650, 60}";
}
);
layerId = UUID0;
paths = (
{
closed = 1;
nodes = (
"444 210 LINE SMOOTH",
"444 276 OFFCURVE",
"407 333 OFFCURVE",
"353 362 CURVE",
"407 391 OFFCURVE",
"444 448 OFFCURVE",
"444 514 CURVE SMOOTH",
"444 538 LINE SMOOTH",
"444 633 OFFCURVE",
"367 710 OFFCURVE",
"272 710 CURVE SMOOTH",
"242 710 LINE SMOOTH",
"147 710 OFFCURVE",
"70 633 OFFCURVE",
"70 538 CURVE SMOOTH",
"70 520 LINE",
"133 510 LINE",
"133 538 LINE SMOOTH",
"133 600 OFFCURVE",
"183 650 OFFCURVE",
"245 650 CURVE SMOOTH",
"269 650 LINE SMOOTH",
"331 650 OFFCURVE",
"381 600 OFFCURVE",
"381 538 CURVE SMOOTH",
"381 504 LINE SMOOTH",
"381 442 OFFCURVE",
"331 392 OFFCURVE",
"269 392 CURVE SMOOTH",
"222 392 LINE",
"222 332 LINE",
"269 332 LINE SMOOTH",
"331 332 OFFCURVE",
"381 282 OFFCURVE",
"381 220 CURVE SMOOTH",
"381 162 LINE SMOOTH",
"381 100 OFFCURVE",
"331 50 OFFCURVE",
"269 50 CURVE SMOOTH",
"245 50 LINE SMOOTH",
"183 50 OFFCURVE",
"133 100 OFFCURVE",
"133 162 CURVE SMOOTH",
"133 190 LINE",
"70 180 LINE",
"70 162 LINE SMOOTH",
"70 67 OFFCURVE",
"147 -10 OFFCURVE",
"242 -10 CURVE SMOOTH",
"272 -10 LINE SMOOTH",
"367 -10 OFFCURVE",
"444 67 OFFCURVE",
"444 162 CURVE SMOOTH"
);
}
);
width = 514;
}
);
unicode = 0033;
},
{
glyphname = four;
lastChange = "2016-08-24 09:13:07 +0000";
layers = (
{
hints = (
{
place = "{311, 63}";
},
{
horizontal = 1;
place = "{121, 60}";
},
{
horizontal = 1;
place = "{700, -20}";
target = down;
type = TopGhost;
},
{
horizontal = 1;
place = "{0, 21}";
target = up;
type = BottomGhost;
}
);
layerId = UUID0;
paths = (
{
closed = 1;
nodes = (
"434 121 LINE",
"434 181 LINE",
"374 181 LINE",
"374 700 LINE",
"341 700 LINE",
"30 151 LINE",
"30 121 LINE",
"311 121 LINE",
"311 0 LINE",
"374 0 LINE",
"374 121 LINE"
);
},
{
closed = 1;
nodes = (
"311 181 LINE",
"118 181 LINE",
"311 528 LINE"
);
}
);
width = 504;
}
);
unicode = 0034;
},
{
glyphname = five;
lastChange = "2016-08-24 09:13:07 +0000";
layers = (
{
hints = (
{
place = "{70, 63}";
},
{
place = "{90, 43}";
},
{
place = "{381, 63}";
},
{
horizontal = 1;
place = "{-10, 60}";
},
{
horizontal = 1;
place = "{410, 60}";
},
{
horizontal = 1;
place = "{640, 60}";
}
);
layerId = UUID0;
paths = (
{
closed = 1;
nodes = (
"444 298 LINE SMOOTH",
"444 393 OFFCURVE",
"367 470 OFFCURVE",
"272 470 CURVE SMOOTH",
"262 470 LINE SMOOTH",
"217 470 OFFCURVE",
"176 453 OFFCURVE",
"146 425 CURVE",
"169 640 LINE",
"409 640 LINE",
"409 700 LINE",
"110 700 LINE",
"70 298 LINE",
"133 298 LINE",
"133 360 OFFCURVE",
"183 410 OFFCURVE",
"245 410 CURVE SMOOTH",
"269 410 LINE SMOOTH",
"331 410 OFFCURVE",
"381 360 OFFCURVE",
"381 298 CURVE SMOOTH",
"381 162 LINE SMOOTH",
"381 100 OFFCURVE",
"331 50 OFFCURVE",
"269 50 CURVE SMOOTH",
"245 50 LINE SMOOTH",
"183 50 OFFCURVE",
"133 100 OFFCURVE",
"133 162 CURVE SMOOTH",
"133 173 LINE",
"70 173 LINE",
"70 162 LINE SMOOTH",
"70 67 OFFCURVE",
"147 -10 OFFCURVE",
"242 -10 CURVE SMOOTH",
"272 -10 LINE SMOOTH",
"367 -10 OFFCURVE",
"444 67 OFFCURVE",
"444 162 CURVE SMOOTH"
);
}
);
width = 514;
}
);
unicode = 0035;
},
{
glyphname = six;
lastChange = "2016-08-24 09:13:07 +0000";
layers = (
{
hints = (
{
place = "{80, 63}";
},
{
place = "{391, 63}";
},
{
horizontal = 1;
place = "{-10, 60}";
},
{
horizontal = 1;
place = "{362, 60}";
},
{
horizontal = 1;
place = "{650, 60}";
}
);
layerId = UUID0;
paths = (
{
closed = 1;
nodes = (
"454 250 LINE SMOOTH",
"454 345 OFFCURVE",
"377 422 OFFCURVE",
"282 422 CURVE SMOOTH",
"272 422 LINE SMOOTH",
"221 422 OFFCURVE",
"175 399 OFFCURVE",
"143 364 CURVE",
"143 538 LINE SMOOTH",
"143 600 OFFCURVE",
"193 650 OFFCURVE",
"255 650 CURVE SMOOTH",
"279 650 LINE SMOOTH",
"341 650 OFFCURVE",
"391 600 OFFCURVE",
"391 538 CURVE SMOOTH",
"391 510 LINE",
"454 520 LINE",
"454 538 LINE SMOOTH",
"454 633 OFFCURVE",
"377 710 OFFCURVE",
"282 710 CURVE SMOOTH",
"252 710 LINE SMOOTH",
"157 710 OFFCURVE",
"80 633 OFFCURVE",
"80 538 CURVE SMOOTH",
"80 162 LINE SMOOTH",
"80 67 OFFCURVE",
"157 -10 OFFCURVE",
"252 -10 CURVE SMOOTH",
"282 -10 LINE SMOOTH",
"377 -10 OFFCURVE",
"454 67 OFFCURVE",
"454 162 CURVE SMOOTH"
);
},
{
closed = 1;
nodes = (
"391 162 LINE SMOOTH",
"391 100 OFFCURVE",
"341 50 OFFCURVE",
"279 50 CURVE SMOOTH",
"255 50 LINE SMOOTH",
"193 50 OFFCURVE",
"143 100 OFFCURVE",
"143 162 CURVE SMOOTH",
"143 250 LINE SMOOTH",
"143 312 OFFCURVE",
"193 362 OFFCURVE",
"255 362 CURVE SMOOTH",
"279 362 LINE SMOOTH",
"341 362 OFFCURVE",
"391 312 OFFCURVE",
"391 250 CURVE SMOOTH"
);
}
);
width = 514;
}
);
unicode = 0036;
},
{
glyphname = seven;
lastChange = "2016-08-24 09:13:07 +0000";
layers = (
{
hints = (
{
place = "{80, 63}";
},
{
horizontal = 1;
place = "{640, 60}";
},
{
horizontal = 1;
place = "{0, 21}";
target = up;
type = BottomGhost;
}
);
layerId = UUID0;
paths = (
{
closed = 1;
nodes = (
"464 670 LINE",
"464 700 LINE",
"80 700 LINE",
"80 547 LINE",
"143 547 LINE",
"143 640 LINE",
"386 640 LINE",
"124 0 LINE",
"190 0 LINE"
);
}
);
width = 514;
}
);
unicode = 0037;
},
{
glyphname = eight;
lastChange = "2016-08-24 09:13:07 +0000";
layers = (
{
hints = (
{
place = "{70, 63}";
},
{
place = "{381, 63}";
},
{
horizontal = 1;
place = "{-10, 60}";
},
{
horizontal = 1;
place = "{332, 60}";
},
{
horizontal = 1;
place = "{650, 60}";
}
);
layerId = UUID0;
paths = (
{
closed = 1;
nodes = (
"444 220 LINE SMOOTH",
"444 279 OFFCURVE",
"414 331 OFFCURVE",
"369 362 CURVE",
"414 393 OFFCURVE",
"444 445 OFFCURVE",
"444 504 CURVE SMOOTH",
"444 538 LINE SMOOTH",
"444 633 OFFCURVE",
"367 710 OFFCURVE",
"272 710 CURVE SMOOTH",
"242 710 LINE SMOOTH",
"147 710 OFFCURVE",
"70 633 OFFCURVE",
"70 538 CURVE SMOOTH",
"70 504 LINE SMOOTH",
"70 445 OFFCURVE",
"100 393 OFFCURVE",
"145 362 CURVE",
"100 331 OFFCURVE",
"70 279 OFFCURVE",
"70 220 CURVE SMOOTH",
"70 162 LINE SMOOTH",
"70 67 OFFCURVE",
"147 -10 OFFCURVE",
"242 -10 CURVE SMOOTH",
"272 -10 LINE SMOOTH",
"367 -10 OFFCURVE",
"444 67 OFFCURVE",
"444 162 CURVE SMOOTH"
);
},
{
closed = 1;
nodes = (
"381 504 LINE SMOOTH",
"381 442 OFFCURVE",
"331 392 OFFCURVE",
"269 392 CURVE SMOOTH",
"245 392 LINE SMOOTH",
"183 392 OFFCURVE",
"133 442 OFFCURVE",
"133 504 CURVE SMOOTH",
"133 538 LINE SMOOTH",
"133 600 OFFCURVE",
"183 650 OFFCURVE",
"245 650 CURVE SMOOTH",
"269 650 LINE SMOOTH",
"331 650 OFFCURVE",
"381 600 OFFCURVE",
"381 538 CURVE SMOOTH"
);
},
{
closed = 1;
nodes = (
"381 162 LINE SMOOTH",
"381 100 OFFCURVE",
"331 50 OFFCURVE",
"269 50 CURVE SMOOTH",
"245 50 LINE SMOOTH",
"183 50 OFFCURVE",
"133 100 OFFCURVE",
"133 162 CURVE SMOOTH",
"133 220 LINE SMOOTH",
"133 282 OFFCURVE",
"183 332 OFFCURVE",
"245 332 CURVE SMOOTH",
"269 332 LINE SMOOTH",
"331 332 OFFCURVE",
"381 282 OFFCURVE",
"381 220 CURVE SMOOTH"
);
}
);
width = 514;
}
);
unicode = 0038;
},
{
glyphname = nine;
lastChange = "2016-08-24 09:13:07 +0000";
layers = (
{
hints = (
{
place = "{80, 63}";
},
{
place = "{391, 63}";
},
{
horizontal = 1;
place = "{-10, 60}";
},
{
horizontal = 1;
place = "{278, 60}";
},
{
horizontal = 1;
place = "{650, 60}";
}
);
layerId = UUID0;
paths = (
{
closed = 1;
nodes = (
"454 538 LINE SMOOTH",
"454 633 OFFCURVE",
"377 710 OFFCURVE",
"282 710 CURVE SMOOTH",
"252 710 LINE SMOOTH",
"157 710 OFFCURVE",
"80 633 OFFCURVE",
"80 538 CURVE SMOOTH",
"80 450 LINE SMOOTH",
"80 355 OFFCURVE",
"157 278 OFFCURVE",
"252 278 CURVE SMOOTH",
"262 278 LINE SMOOTH",
"313 278 OFFCURVE",
"359 301 OFFCURVE",
"391 336 CURVE",
"391 162 LINE SMOOTH",
"391 100 OFFCURVE",
"341 50 OFFCURVE",
"279 50 CURVE SMOOTH",
"255 50 LINE SMOOTH",
"193 50 OFFCURVE",
"143 100 OFFCURVE",
"143 162 CURVE SMOOTH",
"143 190 LINE",
"80 180 LINE",
"80 162 LINE SMOOTH",
"80 67 OFFCURVE",
"157 -10 OFFCURVE",
"252 -10 CURVE SMOOTH",
"282 -10 LINE SMOOTH",
"377 -10 OFFCURVE",
"454 67 OFFCURVE",
"454 162 CURVE SMOOTH"
);
},
{
closed = 1;
nodes = (
"391 450 LINE SMOOTH",
"391 388 OFFCURVE",
"341 338 OFFCURVE",
"279 338 CURVE SMOOTH",
"255 338 LINE SMOOTH",
"193 338 OFFCURVE",
"143 388 OFFCURVE",
"143 450 CURVE SMOOTH",
"143 538 LINE SMOOTH",
"143 600 OFFCURVE",
"193 650 OFFCURVE",
"255 650 CURVE SMOOTH",
"279 650 LINE SMOOTH",
"341 650 OFFCURVE",
"391 600 OFFCURVE",
"391 538 CURVE SMOOTH"
);
}
);
width = 514;
}
);
unicode = 0039;
},
{
glyphname = onesuperior;
lastChange = "2016-08-24 09:13:07 +0000";
layers = (
{
hints = (
{
place = "{70, 124}";
},
{
place = "{146, 48}";
},
{
horizontal = 1;
place = "{364, 47}";
},
{
horizontal = 1;
place = "{700, -20}";
target = down;
type = TopGhost;
}
);
layerId = UUID0;
paths = (
{
closed = 1;
nodes = (
"269 364 LINE",
"269 411 LINE",
"194 411 LINE",
"194 700 LINE",
"155 700 LINE",
"70 665 LINE",
"70 616 LINE",
"146 648 LINE",
"146 411 LINE",
"70 411 LINE",
"70 364 LINE"
);
}
);
width = 339;
}
);
unicode = 00B9;
},
{
glyphname = twosuperior;
lastChange = "2016-08-24 09:13:07 +0000";
layers = (
{
background = {
paths = (
{
closed = 1;
nodes = (
"320 508 LINE",
"320 287 OFFCURVE",
"32 60 OFFCURVE",
"32 60 CURVE",
"325 60 LINE",
"325 0 LINE",
"-69 0 LINE",
"-69 50 LINE",
"-69 50 OFFCURVE",
"257 286 OFFCURVE",
"257 508 CURVE SMOOTH",
"257 538 LINE SMOOTH",
"257 600 OFFCURVE",
"207 650 OFFCURVE",
"145 650 CURVE SMOOTH",
"121 650 LINE SMOOTH",
"59 650 OFFCURVE",
"9 600 OFFCURVE",
"9 538 CURVE SMOOTH",
"9 510 LINE",
"-54 520 LINE",
"-54 538 LINE SMOOTH",
"-54 633 OFFCURVE",
"23 710 OFFCURVE",
"118 710 CURVE SMOOTH",
"148 710 LINE SMOOTH",
"243 710 OFFCURVE",
"320 633 OFFCURVE",
"320 538 CURVE SMOOTH"
);
}
);
};
hints = (
{
place = "{77, 188}";
},
{
place = "{217, 48}";
},
{
horizontal = 1;
place = "{364, 47}";
},
{
horizontal = 1;
place = "{704, -20}";
target = down;
type = TopGhost;
}
);
layerId = UUID0;
paths = (
{
closed = 1;
nodes = (
"177 657 LINE SMOOTH",
"198 657 OFFCURVE",
"217 642 OFFCURVE",
"217 612 CURVE SMOOTH",
"217 517 OFFCURVE",
"70 402 OFFCURVE",
"70 402 CURVE",
"70 364 LINE",
"268 364 LINE",
"268 411 LINE",
"151 411 LINE SMOOTH",
"151 411 OFFCURVE",
"265 525 OFFCURVE",
"265 612 CURVE SMOOTH",
"265 668 OFFCURVE",
"227 704 OFFCURVE",
"178 704 CURVE SMOOTH",
"164 704 LINE SMOOTH",
"117 704 OFFCURVE",
"77 665 OFFCURVE",
"77 616 CURVE SMOOTH",
"77 599 LINE",
"125 593 LINE",
"125 616 LINE SMOOTH",
"125 639 OFFCURVE",
"143 657 OFFCURVE",
"166 657 CURVE SMOOTH"
);
}
);
width = 338;
}
);
unicode = 00B2;
},
{
glyphname = threesuperior;
lastChange = "2016-08-24 09:13:07 +0000";
layers = (
{
hints = (
{
place = "{70, 48}";
},
{
place = "{210, 48}";
},
{
horizontal = 1;
place = "{360, 47}";
},
{
horizontal = 1;
place = "{657, 47}";
}
);
layerId = UUID0;
paths = (
{
closed = 1;
nodes = (
"258 469 LINE SMOOTH",
"258 495 OFFCURVE",
"244 521 OFFCURVE",
"226 537 CURVE",
"247 553 OFFCURVE",
"258 577 OFFCURVE",
"258 606 CURVE SMOOTH",
"258 617 LINE SMOOTH",
"258 664 OFFCURVE",
"220 704 OFFCURVE",
"171 704 CURVE SMOOTH",
"157 704 LINE SMOOTH",
"108 704 OFFCURVE",
"70 664 OFFCURVE",
"70 617 CURVE SMOOTH",
"70 600 LINE",
"118 593 LINE",
"118 617 LINE SMOOTH",
"118 639 OFFCURVE",
"136 657 OFFCURVE",
"159 657 CURVE SMOOTH",
"169 657 LINE SMOOTH",
"192 657 OFFCURVE",
"210 639 OFFCURVE",
"210 617 CURVE SMOOTH",
"210 601 LINE SMOOTH",
"210 579 OFFCURVE",
"192 561 OFFCURVE",
"169 561 CURVE SMOOTH",
"138 561 LINE",
"138 514 LINE",
"169 514 LINE SMOOTH",
"192 514 OFFCURVE",
"210 496 OFFCURVE",
"210 473 CURVE SMOOTH",
"210 447 LINE SMOOTH",
"210 425 OFFCURVE",
"192 407 OFFCURVE",
"169 407 CURVE SMOOTH",
"159 407 LINE SMOOTH",
"136 407 OFFCURVE",
"118 425 OFFCURVE",
"118 447 CURVE SMOOTH",
"118 471 LINE",
"70 464 LINE",
"70 447 LINE SMOOTH",
"70 400 OFFCURVE",
"108 360 OFFCURVE",
"157 360 CURVE SMOOTH",
"171 360 LINE SMOOTH",
"220 360 OFFCURVE",
"258 400 OFFCURVE",
"258 447 CURVE SMOOTH"
);
}
);
width = 328;
}
);
unicode = 00B3;
},
{
glyphname = fraction;
lastChange = "2016-08-24 09:13:07 +0000";
layers = (
{
hints = (
{
horizontal = 1;
place = "{0, 21}";
target = up;
type = BottomGhost;
},
{
horizontal = 1;
place = "{700, -20}";
target = down;
type = TopGhost;
}
);
layerId = UUID0;
paths = (
{
closed = 1;
nodes = (
"57 0 LINE",
"456 700 LINE",
"400 700 LINE",
"1 0 LINE"
);
}
);
width = 457;
}
);
unicode = 2044;
},
{
glyphname = onehalf;
lastChange = "2016-08-24 09:13:07 +0000";
layers = (
{
hints = (
{
place = "{70, 124}";
},
{
place = "{146, 48}";
},
{
place = "{446, 188}";
},
{
place = "{586, 48}";
},
{
horizontal = 1;
place = "{0, 47}";
},
{
horizontal = 1;
place = "{364, 47}";
},
{
horizontal = 1;
place = "{700, -20}";
target = down;
type = TopGhost;
}
);
layerId = UUID0;
paths = (
{
closed = 1;
nodes = (
"269 364 LINE",
"269 411 LINE",
"194 411 LINE",
"194 700 LINE",
"155 700 LINE",
"70 665 LINE",
"70 616 LINE",
"146 648 LINE",
"146 411 LINE",
"70 411 LINE",
"70 364 LINE"
);
},
{
closed = 1;
nodes = (
"546 293 LINE SMOOTH",
"567 293 OFFCURVE",
"586 278 OFFCURVE",
"586 248 CURVE SMOOTH",
"586 153 OFFCURVE",
"439 38 OFFCURVE",
"439 38 CURVE",
"439 0 LINE",
"637 0 LINE",
"637 47 LINE",
"520 47 LINE SMOOTH",
"520 47 OFFCURVE",
"634 161 OFFCURVE",
"634 248 CURVE SMOOTH",
"634 304 OFFCURVE",
"596 340 OFFCURVE",
"547 340 CURVE SMOOTH",
"533 340 LINE SMOOTH",
"486 340 OFFCURVE",
"446 301 OFFCURVE",
"446 252 CURVE SMOOTH",
"446 235 LINE",
"494 229 LINE",
"494 252 LINE SMOOTH",
"494 275 OFFCURVE",
"512 293 OFFCURVE",
"535 293 CURVE SMOOTH"
);
},
{
closed = 1;
nodes = (
"196 0 LINE",
"595 700 LINE",
"539 700 LINE",
"140 0 LINE"
);
}
);
width = 707;
}
);
unicode = 00BD;
},
{
glyphname = onequarter;
lastChange = "2016-08-24 09:13:07 +0000";
layers = (
{
hints = (
{
place = "{70, 124}";
},
{
place = "{146, 48}";
},
{
place = "{525, 44}";
},
{
horizontal = 1;
place = "{58, 43}";
},
{
horizontal = 1;
place = "{364, 47}";
},
{
horizontal = 1;
place = "{0, 21}";
target = up;
type = BottomGhost;
},
{
horizontal = 1;
place = "{700, -20}";
target = down;
type = TopGhost;
}
);
layerId = UUID0;
paths = (
{
closed = 1;
nodes = (
"596 58 LINE",
"596 101 LINE",
"569 101 LINE",
"569 335 LINE",
"541 335 LINE",
"398 81 LINE",
"398 58 LINE",
"525 58 LINE",
"525 0 LINE",
"569 0 LINE",
"569 58 LINE"
);
},
{
closed = 1;
nodes = (
"525 101 LINE",
"460 101 LINE",
"525 219 LINE"
);
},
{
closed = 1;
nodes = (
"196 0 LINE",
"595 700 LINE",
"539 700 LINE",
"140 0 LINE"
);
},
{
closed = 1;
nodes = (
"269 364 LINE",
"269 411 LINE",
"194 411 LINE",
"194 700 LINE",
"155 700 LINE",
"70 665 LINE",
"70 616 LINE",
"146 648 LINE",
"146 411 LINE",
"70 411 LINE",
"70 364 LINE"
);
}
);
width = 666;
}
);
unicode = 00BC;
},
{
glyphname = threequarters;
lastChange = "2016-08-24 09:13:07 +0000";
layers = (
{
hints = (
{
place = "{70, 48}";
},
{
place = "{210, 48}";
},
{
place = "{525, 44}";
},
{
horizontal = 1;
place = "{58, 43}";
},
{
horizontal = 1;
place = "{360, 47}";
},
{
horizontal = 1;
place = "{657, 47}";
},
{
horizontal = 1;
place = "{0, 21}";
target = up;
type = BottomGhost;
},
{
horizontal = 1;
place = "{700, -20}";
target = down;
type = TopGhost;
}
);
layerId = UUID0;
paths = (
{
closed = 1;
nodes = (
"258 469 LINE SMOOTH",
"258 495 OFFCURVE",
"244 521 OFFCURVE",
"226 537 CURVE",
"247 553 OFFCURVE",
"258 577 OFFCURVE",
"258 606 CURVE SMOOTH",
"258 617 LINE SMOOTH",
"258 664 OFFCURVE",
"220 704 OFFCURVE",
"171 704 CURVE SMOOTH",
"157 704 LINE SMOOTH",
"108 704 OFFCURVE",
"70 664 OFFCURVE",
"70 617 CURVE SMOOTH",
"70 600 LINE",
"118 593 LINE",
"118 617 LINE SMOOTH",
"118 639 OFFCURVE",
"136 657 OFFCURVE",
"159 657 CURVE SMOOTH",
"169 657 LINE SMOOTH",
"192 657 OFFCURVE",
"210 639 OFFCURVE",
"210 617 CURVE SMOOTH",
"210 601 LINE SMOOTH",
"210 579 OFFCURVE",
"192 561 OFFCURVE",
"169 561 CURVE SMOOTH",
"138 561 LINE",
"138 514 LINE",
"169 514 LINE SMOOTH",
"192 514 OFFCURVE",
"210 496 OFFCURVE",
"210 473 CURVE SMOOTH",
"210 447 LINE SMOOTH",
"210 425 OFFCURVE",
"192 407 OFFCURVE",
"169 407 CURVE SMOOTH",
"159 407 LINE SMOOTH",
"136 407 OFFCURVE",
"118 425 OFFCURVE",
"118 447 CURVE SMOOTH",
"118 471 LINE",
"70 464 LINE",
"70 447 LINE SMOOTH",
"70 400 OFFCURVE",
"108 360 OFFCURVE",
"157 360 CURVE SMOOTH",
"171 360 LINE SMOOTH",
"220 360 OFFCURVE",
"258 400 OFFCURVE",
"258 447 CURVE SMOOTH"
);
},
{
closed = 1;
nodes = (
"596 58 LINE",
"596 101 LINE",
"569 101 LINE",
"569 335 LINE",
"541 335 LINE",
"398 81 LINE",
"398 58 LINE",
"525 58 LINE",
"525 0 LINE",
"569 0 LINE",
"569 58 LINE"
);
},
{
closed = 1;
nodes = (
"525 101 LINE",
"460 101 LINE",
"525 219 LINE"
);
},
{
closed = 1;
nodes = (
"196 0 LINE",
"595 700 LINE",
"539 700 LINE",
"140 0 LINE"
);
}
);
width = 666;
}
);
unicode = 00BE;
},
{
glyphname = asterisk;
lastChange = "2016-08-24 09:13:07 +0000";
layers = (
{
hints = (
{
place = "{214, 56}";
},
{
horizontal = 1;
place = "{335, 21}";
target = up;
type = BottomGhost;
},
{
horizontal = 1;
place = "{700, -20}";
target = down;
type = TopGhost;
}
);
layerId = UUID0;
paths = (
{
closed = 1;
nodes = (
"326 335 LINE",
"384 377 LINE",
"276 499 LINE",
"435 535 LINE",
"413 602 LINE",
"263 538 LINE",
"278 700 LINE",
"207 700 LINE",
"222 538 LINE",
"72 602 LINE",
"50 535 LINE",
"209 499 LINE",
"101 377 LINE",
"159 335 LINE",
"243 475 LINE"
);
}
);
width = 485;
}
);
unicode = 002A;
},
{
glyphname = backslash;
lastChange = "2016-08-24 09:13:07 +0000";
layers = (
{
hints = (
{
horizontal = 1;
place = "{-60, 21}";
target = up;
type = BottomGhost;
},
{
horizontal = 1;
place = "{760, -20}";
target = down;
type = TopGhost;
}
);
layerId = UUID0;
paths = (
{
closed = 1;
nodes = (
"362 -60 LINE",
"83 760 LINE",
"20 760 LINE",
"299 -60 LINE"
);
}
);
width = 382;
}
);
unicode = 005C;
},
{
glyphname = periodcentered;
lastChange = "2016-08-24 09:13:07 +0000";
layers = (
{
hints = (
{
place = "{70, 75}";
},
{
horizontal = 1;
place = "{320, 75}";
}
);
layerId = UUID0;
paths = (
{
closed = 1;
nodes = (
"145 320 LINE",
"145 395 LINE",
"70 395 LINE",
"70 320 LINE"
);
}
);
width = 215;
}
);
unicode = 00B7;
},
{
glyphname = bullet;
lastChange = "2016-08-24 09:13:07 +0000";
layers = (
{
hints = (
{
horizontal = 1;
place = "{172, 21}";
target = up;
type = BottomGhost;
},
{
horizontal = 1;
place = "{520, -20}";
target = down;
type = TopGhost;
}
);
layerId = UUID0;
paths = (
{
closed = 1;
nodes = (
"60 250 OFFCURVE",
"138 172 OFFCURVE",
"234 172 CURVE SMOOTH",
"330 172 OFFCURVE",
"408 250 OFFCURVE",
"408 346 CURVE SMOOTH",
"408 442 OFFCURVE",
"330 520 OFFCURVE",
"234 520 CURVE SMOOTH",
"138 520 OFFCURVE",
"60 442 OFFCURVE",
"60 346 CURVE SMOOTH"
);
}
);
width = 468;
}
);
unicode = 2022;
},
{
glyphname = colon;
lastChange = "2016-08-24 09:13:07 +0000";
layers = (
{
hints = (
{
place = "{70, 75}";
},
{
horizontal = 1;
place = "{0, 75}";
},
{
horizontal = 1;
place = "{425, 75}";
}
);
layerId = UUID0;
paths = (
{
closed = 1;
nodes = (
"145 425 LINE",
"145 500 LINE",
"70 500 LINE",
"70 425 LINE"
);
},
{
closed = 1;
nodes = (
"145 0 LINE",
"145 75 LINE",
"70 75 LINE",
"70 0 LINE"
);
}
);
width = 215;
}
);
unicode = 003A;
},
{
glyphname = comma;
lastChange = "2016-08-24 09:13:07 +0000";
layers = (
{
hints = (
{
horizontal = 1;
place = "{75, -20}";
target = down;
type = TopGhost;
},
{
horizontal = 1;
place = "{-140, 21}";
target = up;
type = BottomGhost;
}
);
layerId = UUID0;
paths = (
{
closed = 1;
nodes = (
"145 75 LINE",
"70 75 LINE",
"70 -140 LINE",
"95 -140 LINE"
);
}
);
width = 215;
}
);
unicode = 002C;
},
{
glyphname = ellipsis;
lastChange = "2016-08-24 09:13:07 +0000";
layers = (
{
hints = (
{
place = "{70, 75}";
},
{
place = "{325, 75}";
},
{
place = "{580, 75}";
},
{
horizontal = 1;
place = "{0, 75}";
}
);
layerId = UUID0;
paths = (
{
closed = 1;
nodes = (
"145 0 LINE",
"145 75 LINE",
"70 75 LINE",
"70 0 LINE"
);
},
{
closed = 1;
nodes = (
"400 0 LINE",
"400 75 LINE",
"325 75 LINE",
"325 0 LINE"
);
},
{
closed = 1;
nodes = (
"655 0 LINE",
"655 75 LINE",
"580 75 LINE",
"580 0 LINE"
);
}
);
width = 725;
}
);
unicode = 2026;
},
{
glyphname = exclam;
lastChange = "2016-08-24 09:13:07 +0000";
layers = (
{
hints = (
{
place = "{67, 75}";
},
{
place = "{73, 62}";
},
{
horizontal = 1;
place = "{0, 75}";
},
{
horizontal = 1;
place = "{700, -20}";
target = down;
type = TopGhost;
}
);
layerId = UUID0;
paths = (
{
closed = 1;
nodes = (
"149 700 LINE",
"60 700 LINE",
"87 212 LINE",
"122 212 LINE"
);
},
{
closed = 1;
nodes = (
"142 0 LINE",
"142 75 LINE",
"67 75 LINE",
"67 0 LINE"
);
}
);
width = 209;
}
);
unicode = 0021;
},
{
glyphname = exclamdown;
lastChange = "2016-08-24 09:13:07 +0000";
layers = (
{
hints = (
{
place = "{67, 75}";
},
{
place = "{73, 62}";
},
{
horizontal = 1;
place = "{425, 75}";
},
{
horizontal = 1;
place = "{-200, 21}";
target = up;
type = BottomGhost;
}
);
layerId = UUID0;
paths = (
{
closed = 1;
nodes = (
"122 288 LINE",
"87 288 LINE",
"60 -200 LINE",
"149 -200 LINE"
);
},
{
closed = 1;
nodes = (
"67 500 LINE",
"67 425 LINE",
"142 425 LINE",
"142 500 LINE"
);
}
);
width = 209;
}
);
unicode = 00A1;
},
{
glyphname = numbersign;
lastChange = "2016-08-24 09:13:07 +0000";
layers = (
{
hints = (
{
place = "{157, 59}";
},
{
place = "{180, 59}";
},
{
place = "{202, 59}";
},
{
place = "{378, 59}";
},
{
place = "{401, 59}";
},
{
place = "{423, 59}";
},
{
horizontal = 1;
place = "{178, 50}";
},
{
horizontal = 1;
place = "{472, 50}";
},
{
horizontal = 1;
place = "{0, 21}";
target = up;
type = BottomGhost;
},
{
horizontal = 1;
place = "{700, -20}";
target = down;
type = TopGhost;
}
);
layerId = UUID0;
paths = (
{
closed = 1;
nodes = (
"80 472 LINE",
"190 472 LINE",
"170 228 LINE",
"60 228 LINE",
"60 178 LINE",
"165 178 LINE",
"150 0 LINE",
"209 0 LINE",
"224 178 LINE",
"386 178 LINE",
"371 0 LINE",
"430 0 LINE",
"445 178 LINE",
"560 178 LINE",
"560 228 LINE",
"450 228 LINE",
"470 472 LINE",
"580 472 LINE",
"580 522 LINE",
"475 522 LINE",
"490 700 LINE",
"431 700 LINE",
"416 522 LINE",
"254 522 LINE",
"269 700 LINE",
"210 700 LINE",
"195 522 LINE",
"80 522 LINE"
);
},
{
closed = 1;
nodes = (
"249 472 LINE",
"411 472 LINE",
"391 228 LINE",
"229 228 LINE"
);
}
);
width = 640;
}
);
unicode = 0023;
},
{
glyphname = period;
lastChange = "2016-08-24 09:13:07 +0000";
layers = (
{
hints = (
{
place = "{70, 75}";
},
{
horizontal = 1;
place = "{0, 75}";
}
);
layerId = UUID0;
paths = (
{
closed = 1;
nodes = (
"145 0 LINE",
"145 75 LINE",
"70 75 LINE",
"70 0 LINE"
);
}
);
width = 215;
}
);
unicode = 002E;
},
{
glyphname = question;
lastChange = "2016-08-24 09:13:07 +0000";
layers = (
{
hints = (
{
place = "{50, 63}";
},
{
place = "{162, 75}";
},
{
place = "{168, 63}";
},
{
place = "{351, 63}";
},
{
horizontal = 1;
place = "{0, 75}";
},
{
horizontal = 1;
place = "{650, 60}";
}
);
layerId = UUID0;
paths = (
{
closed = 1;
nodes = (
"237 0 LINE",
"237 75 LINE",
"162 75 LINE",
"162 0 LINE"
);
},
{
closed = 1;
nodes = (
"231 231 LINE SMOOTH",
"231 364 OFFCURVE",
"414 348 OFFCURVE",
"414 529 CURVE SMOOTH",
"414 538 LINE SMOOTH",
"414 633 OFFCURVE",
"337 710 OFFCURVE",
"242 710 CURVE SMOOTH",
"222 710 LINE SMOOTH",
"127 710 OFFCURVE",
"50 633 OFFCURVE",
"50 538 CURVE SMOOTH",
"50 520 LINE",
"113 510 LINE",
"113 538 LINE SMOOTH",
"113 600 OFFCURVE",
"163 650 OFFCURVE",
"225 650 CURVE SMOOTH",
"239 650 LINE SMOOTH",
"301 650 OFFCURVE",
"351 600 OFFCURVE",
"351 538 CURVE SMOOTH",
"351 529 LINE SMOOTH",
"351 380 OFFCURVE",
"168 403 OFFCURVE",
"168 231 CURVE SMOOTH",
"168 212 LINE",
"231 212 LINE"
);
}
);
width = 464;
}
);
unicode = 003F;
},
{
glyphname = questiondown;
lastChange = "2016-08-24 09:13:07 +0000";
layers = (
{
hints = (
{
place = "{50, 63}";
},
{
place = "{227, 75}";
},
{
place = "{233, 63}";
},
{
place = "{351, 63}";
},
{
horizontal = 1;
place = "{-210, 60}";
},
{
horizontal = 1;
place = "{425, 75}";
}
);
layerId = UUID0;
paths = (
{
closed = 1;
nodes = (
"227 500 LINE",
"227 425 LINE",
"302 425 LINE",
"302 500 LINE"
);
},
{
closed = 1;
nodes = (
"233 269 LINE SMOOTH",
"233 136 OFFCURVE",
"50 152 OFFCURVE",
"50 -29 CURVE SMOOTH",
"50 -38 LINE SMOOTH",
"50 -133 OFFCURVE",
"127 -210 OFFCURVE",
"222 -210 CURVE SMOOTH",
"242 -210 LINE SMOOTH",
"337 -210 OFFCURVE",
"414 -133 OFFCURVE",
"414 -38 CURVE SMOOTH",
"414 -20 LINE",
"351 -10 LINE",
"351 -38 LINE SMOOTH",
"351 -100 OFFCURVE",
"301 -150 OFFCURVE",
"239 -150 CURVE SMOOTH",
"225 -150 LINE SMOOTH",
"163 -150 OFFCURVE",
"113 -100 OFFCURVE",
"113 -38 CURVE SMOOTH",
"113 -29 LINE SMOOTH",
"113 120 OFFCURVE",
"296 97 OFFCURVE",
"296 269 CURVE SMOOTH",
"296 288 LINE",
"233 288 LINE"
);
}
);
width = 464;
}
);
unicode = 00BF;
},
{
glyphname = quotedbl;
lastChange = "2016-08-24 09:13:07 +0000";
layers = (
{
hints = (
{
horizontal = 1;
place = "{700, -20}";
target = down;
type = TopGhost;
},
{
horizontal = 1;
place = "{485, 21}";
target = up;
type = BottomGhost;
}
);
layerId = UUID0;
paths = (
{
closed = 1;
nodes = (
"135 700 LINE",
"60 700 LINE",
"85 485 LINE",
"110 485 LINE"
);
},
{
closed = 1;
nodes = (
"255 700 LINE",
"180 700 LINE",
"205 485 LINE",
"230 485 LINE"
);
}
);
width = 315;
}
);
unicode = 0022;
},
{
glyphname = quotesingle;
lastChange = "2016-08-24 09:13:07 +0000";
layers = (
{
hints = (
{
horizontal = 1;
place = "{700, -20}";
target = down;
type = TopGhost;
},
{
horizontal = 1;
place = "{485, 21}";
target = up;
type = BottomGhost;
}
);
layerId = UUID0;
paths = (
{
closed = 1;
nodes = (
"145 700 LINE",
"70 700 LINE",
"70 485 LINE",
"95 485 LINE"
);
}
);
width = 195;
}
);
unicode = 0027;
},
{
glyphname = semicolon;
lastChange = "2016-08-24 09:13:07 +0000";
layers = (
{
hints = (
{
place = "{70, 75}";
},
{
horizontal = 1;
place = "{425, 75}";
},
{
horizontal = 1;
place = "{-140, 21}";
target = up;
type = BottomGhost;
}
);
layerId = UUID0;
paths = (
{
closed = 1;
nodes = (
"145 425 LINE",
"145 500 LINE",
"70 500 LINE",
"70 425 LINE"
);
},
{
closed = 1;
nodes = (
"145 75 LINE",
"70 75 LINE",
"70 -140 LINE",
"95 -140 LINE"
);
}
);
width = 215;
}
);
unicode = 003B;
},
{
glyphname = slash;
lastChange = "2016-08-24 09:13:07 +0000";
layers = (
{
hints = (
{
horizontal = 1;
place = "{-60, 21}";
target = up;
type = BottomGhost;
},
{
horizontal = 1;
place = "{760, -20}";
target = down;
type = TopGhost;
}
);
layerId = UUID0;
paths = (
{
closed = 1;
nodes = (
"83 -60 LINE",
"362 760 LINE",
"299 760 LINE",
"20 -60 LINE"
);
}
);
width = 382;
}
);
unicode = 002F;
},
{
glyphname = underscore;
lastChange = "2016-08-24 09:13:07 +0000";
layers = (
{
hints = (
{
horizontal = 1;
place = "{-200, 57}";
}
);
layerId = UUID0;
paths = (
{
closed = 1;
nodes = (
"-1 -143 LINE",
"-1 -200 LINE",
"549 -200 LINE",
"549 -143 LINE"
);
}
);
width = 548;
}
);
unicode = 005F;
},
{
glyphname = braceleft;
lastChange = "2016-08-24 09:13:07 +0000";
layers = (
{
background = {
paths = (
{
closed = 1;
nodes = (
"344 -146 LINE",
"225 -146 LINE",
"225 730 LINE",
"344 730 LINE",
"344 784 LINE",
"165 784 LINE",
"165 -200 LINE",
"344 -200 LINE"
);
}
);
};
hints = (
{
place = "{163, 60}";
},
{
place = "{163, 177}";
},
{
horizontal = 1;
place = "{-200, 54}";
},
{
horizontal = 1;
place = "{265, 54}";
},
{
horizontal = 1;
place = "{730, 54}";
}
);
layerId = UUID0;
paths = (
{
closed = 1;
nodes = (
"163 -28 LINE SMOOTH",
"163 -128 OFFCURVE",
"237 -200 OFFCURVE",
"335 -200 CURVE SMOOTH",
"340 -200 LINE",
"340 -146 LINE",
"335 -146 LINE SMOOTH",
"270 -146 OFFCURVE",
"223 -101 OFFCURVE",
"223 -34 CURVE SMOOTH",
"223 147 LINE SMOOTH",
"223 210 OFFCURVE",
"193 262 OFFCURVE",
"147 292 CURVE",
"193 321 OFFCURVE",
"223 374 OFFCURVE",
"223 437 CURVE SMOOTH",
"223 618 LINE SMOOTH",
"223 685 OFFCURVE",
"270 730 OFFCURVE",
"335 730 CURVE SMOOTH",
"340 730 LINE",
"340 784 LINE",
"335 784 LINE SMOOTH",
"237 784 OFFCURVE",
"163 712 OFFCURVE",
"163 612 CURVE SMOOTH",
"163 431 LINE SMOOTH",
"163 365 OFFCURVE",
"118 321 OFFCURVE",
"56 319 CURVE SMOOTH",
"40 319 LINE",
"40 265 LINE",
"51 265 LINE SMOOTH",
"116 265 OFFCURVE",
"163 220 OFFCURVE",
"163 153 CURVE SMOOTH"
);
}
);
width = 380;
}
);
unicode = 007B;
},
{
glyphname = braceright;
lastChange = "2016-08-24 09:13:07 +0000";
layers = (
{
background = {
paths = (
{
closed = 1;
nodes = (
"344 -146 LINE",
"225 -146 LINE",
"225 730 LINE",
"344 730 LINE",
"344 784 LINE",
"165 784 LINE",
"165 -200 LINE",
"344 -200 LINE"
);
}
);
};
hints = (
{
place = "{40, 177}";
},
{
place = "{157, 60}";
},
{
horizontal = 1;
place = "{-200, 54}";
},
{
horizontal = 1;
place = "{265, 54}";
},
{
horizontal = 1;
place = "{730, 54}";
}
);
layerId = UUID0;
paths = (
{
closed = 1;
nodes = (
"217 153 LINE SMOOTH",
"217 218 OFFCURVE",
"261 263 OFFCURVE",
"324 265 CURVE SMOOTH",
"340 265 LINE",
"340 319 LINE",
"329 319 LINE SMOOTH",
"264 319 OFFCURVE",
"217 364 OFFCURVE",
"217 431 CURVE SMOOTH",
"217 612 LINE SMOOTH",
"217 712 OFFCURVE",
"143 784 OFFCURVE",
"45 784 CURVE SMOOTH",
"40 784 LINE",
"40 730 LINE",
"45 730 LINE SMOOTH",
"110 730 OFFCURVE",
"157 685 OFFCURVE",
"157 618 CURVE SMOOTH",
"157 437 LINE SMOOTH",
"157 374 OFFCURVE",
"186 321 OFFCURVE",
"233 292 CURVE",
"186 262 OFFCURVE",
"157 210 OFFCURVE",
"157 147 CURVE SMOOTH",
"157 -34 LINE SMOOTH",
"157 -101 OFFCURVE",
"110 -146 OFFCURVE",
"45 -146 CURVE SMOOTH",
"40 -146 LINE",
"40 -200 LINE",
"45 -200 LINE SMOOTH",
"143 -200 OFFCURVE",
"217 -128 OFFCURVE",
"217 -28 CURVE SMOOTH"
);
}
);
width = 380;
}
);
unicode = 007D;
},
{
glyphname = bracketleft;
lastChange = "2016-08-24 09:13:07 +0000";
layers = (
{
hints = (
{
place = "{80, 60}";
},
{
place = "{80, 179}";
},
{
horizontal = 1;
place = "{-200, 54}";
},
{
horizontal = 1;
place = "{730, 54}";
}
);
layerId = UUID0;
paths = (
{
closed = 1;
nodes = (
"259 -146 LINE",
"140 -146 LINE",
"140 730 LINE",
"259 730 LINE",
"259 784 LINE",
"80 784 LINE",
"80 -200 LINE",
"259 -200 LINE"
);
}
);
width = 309;
}
);
unicode = 005B;
},
{
glyphname = bracketright;
lastChange = "2016-08-24 09:13:07 +0000";
layers = (
{
hints = (
{
place = "{50, 179}";
},
{
place = "{169, 60}";
},
{
horizontal = 1;
place = "{-200, 54}";
},
{
horizontal = 1;
place = "{730, 54}";
}
);
layerId = UUID0;
paths = (
{
closed = 1;
nodes = (
"50 -200 LINE",
"229 -200 LINE",
"229 784 LINE",
"50 784 LINE",
"50 730 LINE",
"169 730 LINE",
"169 -146 LINE",
"50 -146 LINE"
);
}
);
width = 309;
}
);
unicode = 005D;
},
{
glyphname = parenleft;
lastChange = "2016-08-24 09:13:07 +0000";
layers = (
{
hints = (
{
place = "{60, 60}";
},
{
horizontal = 1;
place = "{-200, 21}";
target = up;
type = BottomGhost;
},
{
horizontal = 1;
place = "{784, -20}";
target = down;
type = TopGhost;
}
);
layerId = UUID0;
paths = (
{
closed = 1;
nodes = (
"60 75 OFFCURVE",
"148 -81 OFFCURVE",
"269 -200 CURVE",
"304 -165 LINE",
"197 -54 OFFCURVE",
"120 105 OFFCURVE",
"120 292 CURVE SMOOTH",
"120 479 OFFCURVE",
"197 638 OFFCURVE",
"304 749 CURVE",
"269 784 LINE",
"148 665 OFFCURVE",
"60 509 OFFCURVE",
"60 292 CURVE SMOOTH"
);
}
);
width = 334;
}
);
unicode = 0028;
},
{
glyphname = parenright;
lastChange = "2016-08-24 09:13:07 +0000";
layers = (
{
hints = (
{
place = "{214, 60}";
},
{
horizontal = 1;
place = "{784, -20}";
target = down;
type = TopGhost;
},
{
horizontal = 1;
place = "{-200, 21}";
target = up;
type = BottomGhost;
}
);
layerId = UUID0;
paths = (
{
closed = 1;
nodes = (
"274 509 OFFCURVE",
"186 665 OFFCURVE",
"65 784 CURVE",
"30 749 LINE",
"137 638 OFFCURVE",
"214 479 OFFCURVE",
"214 292 CURVE SMOOTH",
"214 105 OFFCURVE",
"137 -54 OFFCURVE",
"30 -165 CURVE",
"65 -200 LINE",
"186 -81 OFFCURVE",
"274 75 OFFCURVE",
"274 292 CURVE SMOOTH"
);
}
);
width = 334;
}
);
unicode = 0029;
},
{
glyphname = emdash;
lastChange = "2016-08-24 09:13:07 +0000";
layers = (
{
hints = (
{
horizontal = 1;
place = "{306, 57}";
}
);
layerId = UUID0;
paths = (
{
closed = 1;
nodes = (
"50 363 LINE",
"50 306 LINE",
"950 306 LINE",
"950 363 LINE"
);
}
);
width = 1000;
}
);
unicode = 2014;
},
{
glyphname = endash;
lastChange = "2016-08-24 09:13:07 +0000";
layers = (
{
hints = (
{
horizontal = 1;
place = "{306, 57}";
}
);
layerId = UUID0;
paths = (
{
closed = 1;
nodes = (
"50 363 LINE",
"50 306 LINE",
"500 306 LINE",
"500 363 LINE"
);
}
);
width = 550;
}
);
unicode = 2013;
},
{
glyphname = hyphen;
lastChange = "2016-08-24 09:13:07 +0000";
layers = (
{
hints = (
{
horizontal = 1;
place = "{306, 57}";
}
);
layerId = UUID0;
paths = (
{
closed = 1;
nodes = (
"237 306 LINE",
"237 363 LINE",
"50 363 LINE",
"50 306 LINE"
);
}
);
width = 287;
}
);
unicode = 002D;
},
{
glyphname = guillemotleft;
lastChange = "2016-08-24 09:13:07 +0000";
layers = (
{
hints = (
{
horizontal = 1;
place = "{415, -20}";
target = down;
type = TopGhost;
},
{
horizontal = 1;
place = "{41, 21}";
target = up;
type = BottomGhost;
}
);
layerId = UUID0;
paths = (
{
closed = 1;
nodes = (
"409 61 LINE",
"287 228 LINE",
"409 395 LINE",
"389 415 LINE",
"205 228 LINE",
"389 41 LINE"
);
},
{
closed = 1;
nodes = (
"244 61 LINE",
"122 228 LINE",
"244 395 LINE",
"224 415 LINE",
"40 228 LINE",
"224 41 LINE"
);
}
);
width = 469;
}
);
unicode = 00AB;
},
{
glyphname = guillemotright;
lastChange = "2016-08-24 09:13:07 +0000";
layers = (
{
hints = (
{
horizontal = 1;
place = "{41, 21}";
target = up;
type = BottomGhost;
},
{
horizontal = 1;
place = "{415, -20}";
target = down;
type = TopGhost;
}
);
layerId = UUID0;
paths = (
{
closed = 1;
nodes = (
"80 41 LINE",
"264 228 LINE",
"80 415 LINE",
"60 395 LINE",
"182 228 LINE",
"60 61 LINE"
);
},
{
closed = 1;
nodes = (
"245 41 LINE",
"429 228 LINE",
"245 415 LINE",
"225 395 LINE",
"347 228 LINE",
"225 61 LINE"
);
}
);
width = 469;
}
);
unicode = 00BB;
},
{
glyphname = guilsinglleft;
lastChange = "2016-08-24 09:13:07 +0000";
layers = (
{
hints = (
{
horizontal = 1;
place = "{415, -20}";
target = down;
type = TopGhost;
},
{
horizontal = 1;
place = "{41, 21}";
target = up;
type = BottomGhost;
}
);
layerId = UUID0;
paths = (
{
closed = 1;
nodes = (
"244 61 LINE",
"122 228 LINE",
"244 395 LINE",
"224 415 LINE",
"40 228 LINE",
"224 41 LINE"
);
}
);
width = 304;
}
);
unicode = 2039;
},
{
glyphname = guilsinglright;
lastChange = "2016-08-24 09:13:07 +0000";
layers = (
{
hints = (
{
horizontal = 1;
place = "{41, 21}";
target = up;
type = BottomGhost;
},
{
horizontal = 1;
place = "{415, -20}";
target = down;
type = TopGhost;
}
);
layerId = UUID0;
paths = (
{
closed = 1;
nodes = (
"80 41 LINE",
"264 228 LINE",
"80 415 LINE",
"60 395 LINE",
"182 228 LINE",
"60 61 LINE"
);
}
);
width = 304;
}
);
unicode = 203A;
},
{
glyphname = quotedblbase;
lastChange = "2016-08-24 09:13:07 +0000";
layers = (
{
hints = (
{
horizontal = 1;
place = "{75, -20}";
target = down;
type = TopGhost;
},
{
horizontal = 1;
place = "{-140, 21}";
target = up;
type = BottomGhost;
}
);
layerId = UUID0;
paths = (
{
closed = 1;
nodes = (
"145 75 LINE",
"70 75 LINE",
"70 -140 LINE",
"95 -140 LINE"
);
},
{
closed = 1;
nodes = (
"265 75 LINE",
"190 75 LINE",
"190 -140 LINE",
"215 -140 LINE"
);
}
);
width = 315;
}
);
unicode = 201E;
},
{
glyphname = quotedblleft;
lastChange = "2016-08-24 09:13:07 +0000";
layers = (
{
hints = (
{
horizontal = 1;
place = "{485, 21}";
target = up;
type = BottomGhost;
},
{
horizontal = 1;
place = "{700, -20}";
target = down;
type = TopGhost;
}
);
layerId = UUID0;
paths = (
{
closed = 1;
nodes = (
"170 485 LINE",
"245 485 LINE",
"245 700 LINE",
"220 700 LINE"
);
},
{
closed = 1;
nodes = (
"50 485 LINE",
"125 485 LINE",
"125 700 LINE",
"100 700 LINE"
);
}
);
width = 315;
}
);
unicode = 201C;
},
{
glyphname = quotedblright;
lastChange = "2016-08-24 09:13:07 +0000";
layers = (
{
hints = (
{
horizontal = 1;
place = "{700, -20}";
target = down;
type = TopGhost;
},
{
horizontal = 1;
place = "{485, 21}";
target = up;
type = BottomGhost;
}
);
layerId = UUID0;
paths = (
{
closed = 1;
nodes = (
"145 700 LINE",
"70 700 LINE",
"70 485 LINE",
"95 485 LINE"
);
},
{
closed = 1;
nodes = (
"265 700 LINE",
"190 700 LINE",
"190 485 LINE",
"215 485 LINE"
);
}
);
width = 315;
}
);
unicode = 201D;
},
{
glyphname = quoteleft;
lastChange = "2016-08-24 09:13:07 +0000";
layers = (
{
hints = (
{
horizontal = 1;
place = "{485, 21}";
target = up;
type = BottomGhost;
},
{
horizontal = 1;
place = "{700, -20}";
target = down;
type = TopGhost;
}
);
layerId = UUID0;
paths = (
{
closed = 1;
nodes = (
"70 485 LINE",
"145 485 LINE",
"145 700 LINE",
"120 700 LINE"
);
}
);
width = 195;
}
);
unicode = 2018;
},
{
glyphname = quoteright;
lastChange = "2016-08-24 09:13:07 +0000";
layers = (
{
hints = (
{
horizontal = 1;
place = "{700, -20}";
target = down;
type = TopGhost;
},
{
horizontal = 1;
place = "{485, 21}";
target = up;
type = BottomGhost;
}
);
layerId = UUID0;
paths = (
{
closed = 1;
nodes = (
"145 700 LINE",
"70 700 LINE",
"70 485 LINE",
"95 485 LINE"
);
}
);
width = 195;
}
);
unicode = 2019;
},
{
glyphname = quotesinglbase;
lastChange = "2016-08-24 09:13:07 +0000";
layers = (
{
hints = (
{
horizontal = 1;
place = "{75, -20}";
target = down;
type = TopGhost;
},
{
horizontal = 1;
place = "{-140, 21}";
target = up;
type = BottomGhost;
}
);
layerId = UUID0;
paths = (
{
closed = 1;
nodes = (
"145 75 LINE",
"70 75 LINE",
"70 -140 LINE",
"95 -140 LINE"
);
}
);
width = 215;
}
);
unicode = 201A;
},
{
glyphname = Euro;
lastChange = "2016-08-24 09:13:07 +0000";
layers = (
{
hints = (
{
place = "{441, 63}";
},
{
place = "{110, 63}";
},
{
horizontal = 1;
place = "{-10, 60}";
},
{
horizontal = 1;
place = "{270, 50}";
},
{
horizontal = 1;
place = "{380, 50}";
},
{
horizontal = 1;
place = "{650, 60}";
}
);
layerId = UUID0;
paths = (
{
closed = 1;
nodes = (
"311 270 LINE",
"340 320 LINE",
"173 320 LINE",
"173 380 LINE",
"375 380 LINE",
"404 430 LINE",
"173 430 LINE",
"173 538 LINE SMOOTH",
"173 600 OFFCURVE",
"223 650 OFFCURVE",
"285 650 CURVE SMOOTH",
"329 650 LINE SMOOTH",
"391 650 OFFCURVE",
"441 600 OFFCURVE",
"441 538 CURVE SMOOTH",
"441 510 LINE",
"504 520 LINE",
"504 538 LINE SMOOTH",
"504 633 OFFCURVE",
"427 710 OFFCURVE",
"332 710 CURVE SMOOTH",
"282 710 LINE SMOOTH",
"187 710 OFFCURVE",
"110 633 OFFCURVE",
"110 538 CURVE SMOOTH",
"110 430 LINE",
"40 430 LINE",
"40 380 LINE",
"110 380 LINE",
"110 320 LINE",
"40 320 LINE",
"40 270 LINE",
"110 270 LINE",
"110 162 LINE SMOOTH",
"110 67 OFFCURVE",
"187 -10 OFFCURVE",
"282 -10 CURVE SMOOTH",
"332 -10 LINE SMOOTH",
"427 -10 OFFCURVE",
"504 67 OFFCURVE",
"504 162 CURVE SMOOTH",
"504 180 LINE",
"441 190 LINE",
"441 162 LINE SMOOTH",
"441 100 OFFCURVE",
"391 50 OFFCURVE",
"329 50 CURVE SMOOTH",
"285 50 LINE SMOOTH",
"223 50 OFFCURVE",
"173 100 OFFCURVE",
"173 162 CURVE SMOOTH",
"173 270 LINE"
);
}
);
width = 564;
}
);
unicode = 20AC;
},
{
glyphname = cent;
lastChange = "2016-08-24 09:13:07 +0000";
layers = (
{
hints = (
{
place = "{60, 60}";
},
{
place = "{334, 60}";
},
{
horizontal = 1;
place = "{90, 57}";
},
{
horizontal = 1;
place = "{553, 57}";
},
{
horizontal = 1;
place = "{-10, 21}";
target = up;
type = BottomGhost;
},
{
horizontal = 1;
place = "{710, -20}";
target = down;
type = TopGhost;
}
);
layerId = UUID0;
paths = (
{
closed = 1;
nodes = (
"143 -10 LINE",
"175 93 LINE",
"185 91 OFFCURVE",
"196 90 OFFCURVE",
"207 90 CURVE SMOOTH",
"247 90 LINE SMOOTH",
"328 90 OFFCURVE",
"394 156 OFFCURVE",
"394 237 CURVE SMOOTH",
"394 257 LINE",
"334 267 LINE",
"334 234 LINE SMOOTH",
"334 186 OFFCURVE",
"295 147 OFFCURVE",
"247 147 CURVE SMOOTH",
"207 147 LINE SMOOTH",
"202 147 OFFCURVE",
"197 147 OFFCURVE",
"192 148 CURVE",
"308 528 LINE",
"324 512 OFFCURVE",
"334 490 OFFCURVE",
"334 466 CURVE SMOOTH",
"334 433 LINE",
"394 443 LINE",
"394 463 LINE SMOOTH",
"394 515 OFFCURVE",
"367 561 OFFCURVE",
"326 587 CURVE",
"364 710 LINE",
"311 710 LINE",
"279 606 LINE",
"269 609 OFFCURVE",
"258 610 OFFCURVE",
"247 610 CURVE SMOOTH",
"207 610 LINE SMOOTH",
"126 610 OFFCURVE",
"60 544 OFFCURVE",
"60 463 CURVE SMOOTH",
"60 237 LINE SMOOTH",
"60 185 OFFCURVE",
"87 139 OFFCURVE",
"128 113 CURVE",
"90 -10 LINE"
);
},
{
closed = 1;
nodes = (
"120 466 LINE SMOOTH",
"120 514 OFFCURVE",
"159 553 OFFCURVE",
"207 553 CURVE SMOOTH",
"247 553 LINE SMOOTH",
"252 553 OFFCURVE",
"257 552 OFFCURVE",
"262 551 CURVE",
"146 172 LINE",
"130 188 OFFCURVE",
"120 210 OFFCURVE",
"120 234 CURVE SMOOTH"
);
}
);
width = 454;
}
);
unicode = 00A2;
},
{
glyphname = currency;
lastChange = "2016-08-24 09:13:07 +0000";
layers = (
{
hints = (
{
place = "{95, 60}";
},
{
place = "{450, 60}";
},
{
horizontal = 1;
place = "{144, 58}";
},
{
horizontal = 1;
place = "{501, 58}";
},
{
horizontal = 1;
place = "{109, 21}";
target = up;
type = BottomGhost;
},
{
horizontal = 1;
place = "{592, -20}";
target = down;
type = TopGhost;
}
);
layerId = UUID0;
paths = (
{
closed = 1;
nodes = (
"61 547 LINE",
"134 473 LINE",
"109 439 OFFCURVE",
"95 397 OFFCURVE",
"95 351 CURVE SMOOTH",
"95 305 OFFCURVE",
"109 262 OFFCURVE",
"135 228 CURVE",
"60 153 LINE",
"105 109 LINE",
"179 183 LINE",
"213 158 OFFCURVE",
"256 144 OFFCURVE",
"302 144 CURVE SMOOTH",
"348 144 OFFCURVE",
"390 158 OFFCURVE",
"424 183 CURVE",
"499 109 LINE",
"544 153 LINE",
"469 228 LINE",
"495 262 OFFCURVE",
"510 305 OFFCURVE",
"510 351 CURVE SMOOTH",
"510 397 OFFCURVE",
"495 439 OFFCURVE",
"470 474 CURVE",
"543 547 LINE",
"499 592 LINE",
"425 518 LINE",
"391 544 OFFCURVE",
"348 559 OFFCURVE",
"302 559 CURVE SMOOTH",
"255 559 OFFCURVE",
"213 544 OFFCURVE",
"178 518 CURVE",
"105 592 LINE"
);
},
{
closed = 1;
nodes = (
"155 434 OFFCURVE",
"219 501 OFFCURVE",
"302 501 CURVE SMOOTH",
"385 501 OFFCURVE",
"450 434 OFFCURVE",
"450 351 CURVE SMOOTH",
"450 268 OFFCURVE",
"385 202 OFFCURVE",
"302 202 CURVE SMOOTH",
"219 202 OFFCURVE",
"155 268 OFFCURVE",
"155 351 CURVE SMOOTH"
);
}
);
width = 604;
}
);
unicode = 00A4;
},
{
glyphname = dollar;
lastChange = "2016-08-24 09:13:07 +0000";
layers = (
{
background = {
paths = (
{
closed = 1;
nodes = (
"464 432 OFFCURVE",
"133 335 OFFCURVE",
"133 538 CURVE SMOOTH",
"133 600 OFFCURVE",
"183 650 OFFCURVE",
"245 650 CURVE SMOOTH",
"284 650 LINE SMOOTH",
"346 650 OFFCURVE",
"396 600 OFFCURVE",
"396 538 CURVE SMOOTH",
"396 510 LINE",
"459 520 LINE",
"459 538 LINE SMOOTH",
"459 633 OFFCURVE",
"382 710 OFFCURVE",
"287 710 CURVE SMOOTH",
"242 710 LINE SMOOTH",
"147 710 OFFCURVE",
"70 633 OFFCURVE",
"70 538 CURVE SMOOTH",
"70 275 OFFCURVE",
"401 378 OFFCURVE",
"401 162 CURVE SMOOTH",
"401 100 OFFCURVE",
"351 50 OFFCURVE",
"289 50 CURVE SMOOTH",
"245 50 LINE SMOOTH",
"183 50 OFFCURVE",
"133 100 OFFCURVE",
"133 162 CURVE SMOOTH",
"133 200 LINE",
"70 190 LINE",
"70 162 LINE SMOOTH",
"70 67 OFFCURVE",
"147 -10 OFFCURVE",
"242 -10 CURVE SMOOTH",
"292 -10 LINE SMOOTH",
"387 -10 OFFCURVE",
"464 67 OFFCURVE",
"464 162 CURVE SMOOTH"
);
}
);
};
hints = (
{
place = "{70, 63}";
},
{
place = "{240, 50}";
},
{
place = "{396, 68}";
},
{
horizontal = 1;
place = "{-10, 60}";
},
{
horizontal = 1;
place = "{650, 60}";
},
{
horizontal = 1;
place = "{-120, 21}";
target = up;
type = BottomGhost;
},
{
horizontal = 1;
place = "{800, -20}";
target = down;
type = TopGhost;
}
);
layerId = UUID0;
paths = (
{
closed = 1;
nodes = (
"290 -120 LINE",
"290 -10 LINE",
"292 -10 LINE SMOOTH",
"387 -10 OFFCURVE",
"464 67 OFFCURVE",
"464 162 CURVE SMOOTH",
"464 183 LINE SMOOTH",
"464 307 OFFCURVE",
"375 346 OFFCURVE",
"290 379 CURVE",
"290 650 LINE",
"349 647 OFFCURVE",
"396 598 OFFCURVE",
"396 538 CURVE SMOOTH",
"396 510 LINE",
"459 520 LINE",
"459 538 LINE SMOOTH",
"459 632 OFFCURVE",
"383 708 OFFCURVE",
"290 710 CURVE",
"290 800 LINE",
"240 800 LINE",
"240 710 LINE",
"146 709 OFFCURVE",
"70 632 OFFCURVE",
"70 538 CURVE SMOOTH",
"70 525 LINE SMOOTH",
"70 402 OFFCURVE",
"155 365 OFFCURVE",
"240 334 CURVE",
"240 50 LINE",
"180 52 OFFCURVE",
"133 101 OFFCURVE",
"133 162 CURVE SMOOTH",
"133 200 LINE",
"70 190 LINE",
"70 162 LINE SMOOTH",
"70 67 OFFCURVE",
"146 -9 OFFCURVE",
"240 -10 CURVE",
"240 -120 LINE"
);
},
{
closed = 1;
nodes = (
"401 162 LINE SMOOTH",
"401 100 OFFCURVE",
"351 50 OFFCURVE",
"290 50 CURVE",
"290 315 LINE",
"351 290 OFFCURVE",
"401 258 OFFCURVE",
"401 183 CURVE SMOOTH"
);
},
{
closed = 1;
nodes = (
"133 538 LINE SMOOTH",
"133 598 OFFCURVE",
"180 647 OFFCURVE",
"240 650 CURVE",
"240 399 LINE",
"180 425 OFFCURVE",
"133 456 OFFCURVE",
"133 525 CURVE SMOOTH"
);
}
);
width = 519;
}
);
unicode = 0024;
},
{
glyphname = florin;
lastChange = "2016-08-24 09:13:07 +0000";
layers = (
{
hints = (
{
horizontal = 1;
place = "{-200, 57}";
},
{
horizontal = 1;
place = "{363, 57}";
},
{
horizontal = 1;
place = "{643, 57}";
}
);
layerId = UUID0;
paths = (
{
closed = 1;
nodes = (
"94 -71 LINE SMOOTH",
"89 -111 OFFCURVE",
"52 -143 OFFCURVE",
"13 -143 CURVE SMOOTH",
"-42 -143 LINE",
"-50 -200 LINE",
"5 -200 LINE SMOOTH",
"77 -200 OFFCURVE",
"145 -141 OFFCURVE",
"155 -68 CURVE SMOOTH",
"215 363 LINE",
"332 363 LINE",
"340 420 LINE",
"223 420 LINE",
"245 571 LINE SMOOTH",
"250 611 OFFCURVE",
"287 643 OFFCURVE",
"327 643 CURVE SMOOTH",
"382 643 LINE",
"390 700 LINE",
"335 700 LINE SMOOTH",
"262 700 OFFCURVE",
"194 641 OFFCURVE",
"184 568 CURVE SMOOTH",
"163 420 LINE",
"73 420 LINE",
"65 363 LINE",
"155 363 LINE"
);
}
);
width = 367;
}
);
unicode = 0192;
},
{
glyphname = sterling;
lastChange = "2016-08-24 09:13:07 +0000";
layers = (
{
hints = (
{
place = "{110, 63}";
},
{
place = "{179, 63}";
},
{
place = "{405, 63}";
},
{
horizontal = 1;
place = "{0, 60}";
},
{
horizontal = 1;
place = "{285, 50}";
},
{
horizontal = 1;
place = "{650, 60}";
}
);
layerId = UUID0;
paths = (
{
closed = 1;
nodes = (
"60 335 LINE",
"60 285 LINE",
"163 285 LINE",
"172 248 OFFCURVE",
"179 211 OFFCURVE",
"179 172 CURVE SMOOTH",
"179 110 OFFCURVE",
"139 60 OFFCURVE",
"77 60 CURVE SMOOTH",
"60 60 LINE",
"60 0 LINE",
"471 0 LINE",
"471 60 LINE",
"205 60 LINE",
"228 90 OFFCURVE",
"242 129 OFFCURVE",
"242 172 CURVE SMOOTH",
"242 212 OFFCURVE",
"236 249 OFFCURVE",
"228 285 CURVE",
"381 285 LINE",
"381 335 LINE",
"215 335 LINE",
"195 403 OFFCURVE",
"173 466 OFFCURVE",
"173 538 CURVE SMOOTH",
"173 600 OFFCURVE",
"223 650 OFFCURVE",
"285 650 CURVE SMOOTH",
"293 650 LINE SMOOTH",
"355 650 OFFCURVE",
"405 600 OFFCURVE",
"405 538 CURVE SMOOTH",
"405 510 LINE",
"468 520 LINE",
"468 538 LINE SMOOTH",
"468 633 OFFCURVE",
"391 710 OFFCURVE",
"296 710 CURVE SMOOTH",
"282 710 LINE SMOOTH",
"187 710 OFFCURVE",
"110 633 OFFCURVE",
"110 538 CURVE SMOOTH",
"110 462 OFFCURVE",
"130 398 OFFCURVE",
"148 335 CURVE"
);
}
);
width = 541;
}
);
unicode = 00A3;
},
{
glyphname = yen;
lastChange = "2016-08-24 09:13:07 +0000";
layers = (
{
hints = (
{
place = "{201, 63}";
},
{
horizontal = 1;
place = "{182, 50}";
},
{
horizontal = 1;
place = "{297, 50}";
},
{
horizontal = 1;
place = "{0, 21}";
target = up;
type = BottomGhost;
},
{
horizontal = 1;
place = "{700, -20}";
target = down;
type = TopGhost;
}
);
layerId = UUID0;
paths = (
{
closed = 1;
nodes = (
"60 347 LINE",
"60 297 LINE",
"201 297 LINE",
"201 232 LINE",
"60 232 LINE",
"60 182 LINE",
"201 182 LINE",
"201 0 LINE",
"264 0 LINE",
"264 182 LINE",
"404 182 LINE",
"404 232 LINE",
"264 232 LINE",
"264 297 LINE",
"404 297 LINE",
"404 347 LINE",
"270 347 LINE",
"444 700 LINE",
"376 700 LINE",
"232 409 LINE",
"88 700 LINE",
"20 700 LINE",
"194 347 LINE"
);
}
);
width = 464;
}
);
unicode = 00A5;
},
{
glyphname = plus;
lastChange = "2016-08-24 09:13:07 +0000";
layers = (
{
hints = (
{
place = "{258, 63}";
},
{
horizontal = 1;
place = "{319, 63}";
},
{
horizontal = 1;
place = "{100, 21}";
target = up;
type = BottomGhost;
},
{
horizontal = 1;
place = "{600, -20}";
target = down;
type = TopGhost;
}
);
layerId = UUID0;
paths = (
{
closed = 1;
nodes = (
"40 319 LINE",
"258 319 LINE",
"258 100 LINE",
"321 100 LINE",
"321 319 LINE",
"540 319 LINE",
"540 382 LINE",
"321 382 LINE",
"321 600 LINE",
"258 600 LINE",
"258 382 LINE",
"40 382 LINE"
);
}
);
width = 580;
}
);
unicode = 002B;
},
{
glyphname = minus;
lastChange = "2016-08-24 09:13:07 +0000";
layers = (
{
hints = (
{
horizontal = 1;
place = "{319, 63}";
}
);
layerId = UUID0;
paths = (
{
closed = 1;
nodes = (
"40 382 LINE",
"40 319 LINE",
"540 319 LINE",
"540 382 LINE"
);
}
);
width = 580;
}
);
unicode = 2212;
},
{
glyphname = multiply;
lastChange = "2016-08-24 09:13:07 +0000";
layers = (
{
hints = (
{
horizontal = 1;
place = "{109, 21}";
target = up;
type = BottomGhost;
},
{
horizontal = 1;
place = "{592, -20}";
target = down;
type = TopGhost;
}
);
layerId = UUID0;
paths = (
{
closed = 1;
nodes = (
"51 547 LINE",
"247 351 LINE",
"50 153 LINE",
"95 109 LINE",
"292 306 LINE",
"489 109 LINE",
"534 153 LINE",
"337 351 LINE",
"533 547 LINE",
"489 592 LINE",
"292 395 LINE",
"95 592 LINE"
);
}
);
width = 584;
}
);
unicode = 00D7;
},
{
glyphname = divide;
lastChange = "2016-08-24 09:13:07 +0000";
layers = (
{
hints = (
{
place = "{222, 136}";
},
{
horizontal = 1;
place = "{96, 136}";
},
{
horizontal = 1;
place = "{319, 63}";
},
{
horizontal = 1;
place = "{469, 136}";
}
);
layerId = UUID0;
paths = (
{
closed = 1;
nodes = (
"40 382 LINE",
"40 319 LINE",
"540 319 LINE",
"540 382 LINE"
);
},
{
closed = 1;
nodes = (
"222 500 OFFCURVE",
"253 469 OFFCURVE",
"290 469 CURVE SMOOTH",
"327 469 OFFCURVE",
"358 500 OFFCURVE",
"358 537 CURVE SMOOTH",
"358 574 OFFCURVE",
"327 605 OFFCURVE",
"290 605 CURVE SMOOTH",
"253 605 OFFCURVE",
"222 574 OFFCURVE",
"222 537 CURVE SMOOTH"
);
},
{
closed = 1;
nodes = (
"222 127 OFFCURVE",
"253 96 OFFCURVE",
"290 96 CURVE SMOOTH",
"327 96 OFFCURVE",
"358 127 OFFCURVE",
"358 164 CURVE SMOOTH",
"358 201 OFFCURVE",
"327 232 OFFCURVE",
"290 232 CURVE SMOOTH",
"253 232 OFFCURVE",
"222 201 OFFCURVE",
"222 164 CURVE SMOOTH"
);
}
);
width = 580;
}
);
unicode = 00F7;
},
{
glyphname = equal;
lastChange = "2016-08-24 09:13:07 +0000";
layers = (
{
hints = (
{
horizontal = 1;
place = "{226, 63}";
},
{
horizontal = 1;
place = "{412, 63}";
}
);
layerId = UUID0;
paths = (
{
closed = 1;
nodes = (
"80 475 LINE",
"80 412 LINE",
"580 412 LINE",
"580 475 LINE"
);
},
{
closed = 1;
nodes = (
"80 289 LINE",
"80 226 LINE",
"580 226 LINE",
"580 289 LINE"
);
}
);
width = 660;
}
);
unicode = 003D;
},
{
glyphname = greater;
lastChange = "2016-08-24 09:13:07 +0000";
layers = (
{
hints = (
{
horizontal = 1;
place = "{92, 21}";
target = up;
type = BottomGhost;
},
{
horizontal = 1;
place = "{609, -20}";
target = down;
type = TopGhost;
}
);
layerId = UUID0;
paths = (
{
closed = 1;
nodes = (
"60 161 LINE",
"60 92 LINE",
"560 315 LINE",
"560 386 LINE",
"60 609 LINE",
"60 540 LINE",
"488 350 LINE"
);
}
);
width = 610;
}
);
unicode = 003E;
},
{
glyphname = less;
lastChange = "2016-08-24 09:13:07 +0000";
layers = (
{
hints = (
{
horizontal = 1;
place = "{92, 21}";
target = up;
type = BottomGhost;
},
{
horizontal = 1;
place = "{609, -20}";
target = down;
type = TopGhost;
}
);
layerId = UUID0;
paths = (
{
closed = 1;
nodes = (
"50 386 LINE",
"50 315 LINE",
"550 92 LINE",
"550 161 LINE",
"121 350 LINE",
"550 540 LINE",
"550 609 LINE"
);
}
);
width = 610;
}
);
unicode = 003C;
},
{
glyphname = plusminus;
lastChange = "2016-08-24 09:13:07 +0000";
layers = (
{
hints = (
{
place = "{258, 63}";
},
{
horizontal = 1;
place = "{37, 63}";
},
{
horizontal = 1;
place = "{319, 63}";
},
{
horizontal = 1;
place = "{600, -20}";
target = down;
type = TopGhost;
}
);
layerId = UUID0;
paths = (
{
closed = 1;
nodes = (
"40 100 LINE",
"40 37 LINE",
"540 37 LINE",
"540 100 LINE",
"321 100 LINE",
"321 319 LINE",
"540 319 LINE",
"540 382 LINE",
"321 382 LINE",
"321 600 LINE",
"258 600 LINE",
"258 382 LINE",
"40 382 LINE",
"40 319 LINE",
"258 319 LINE",
"258 100 LINE"
);
}
);
width = 580;
}
);
unicode = 00B1;
},
{
glyphname = asciitilde;
lastChange = "2016-08-24 09:13:07 +0000";
layers = (
{
hints = (
{
horizontal = 1;
place = "{240, 55}";
},
{
horizontal = 1;
place = "{312, 55}";
},
{
horizontal = 1;
place = "{241, 21}";
target = up;
type = BottomGhost;
},
{
horizontal = 1;
place = "{366, -20}";
target = down;
type = TopGhost;
}
);
layerId = UUID0;
paths = (
{
closed = 1;
nodes = (
"272 295 OFFCURVE",
"236 367 OFFCURVE",
"160 367 CURVE SMOOTH",
"87 367 OFFCURVE",
"50 311 OFFCURVE",
"50 241 CURVE",
"102 241 LINE",
"102 282 OFFCURVE",
"124 312 OFFCURVE",
"159 312 CURVE SMOOTH",
"209 312 OFFCURVE",
"245 240 OFFCURVE",
"321 240 CURVE SMOOTH",
"395 240 OFFCURVE",
"431 296 OFFCURVE",
"431 366 CURVE",
"379 366 LINE",
"379 326 OFFCURVE",
"358 295 OFFCURVE",
"322 295 CURVE SMOOTH"
);
}
);
width = 481;
}
);
unicode = 007E;
},
{
glyphname = logicalnot;
lastChange = "2016-08-24 09:13:07 +0000";
layers = (
{
hints = (
{
place = "{497, 63}";
},
{
horizontal = 1;
place = "{319, 63}";
},
{
horizontal = 1;
place = "{151, 21}";
target = up;
type = BottomGhost;
}
);
layerId = UUID0;
paths = (
{
closed = 1;
nodes = (
"60 382 LINE",
"60 319 LINE",
"497 319 LINE",
"497 151 LINE",
"560 151 LINE",
"560 382 LINE"
);
}
);
width = 620;
}
);
unicode = 00AC;
},
{
glyphname = mu;
lastChange = "2016-08-24 09:13:07 +0000";
layers = (
{
hints = (
{
place = "{60, 60}";
},
{
place = "{334, 60}";
},
{
horizontal = 1;
place = "{-10, 57}";
},
{
horizontal = 1;
place = "{-144, 21}";
target = up;
type = BottomGhost;
},
{
horizontal = 1;
place = "{0, 21}";
target = up;
type = BottomGhost;
},
{
horizontal = 1;
place = "{500, -20}";
target = down;
type = TopGhost;
}
);
layerId = UUID0;
paths = (
{
closed = 1;
nodes = (
"60 -144 LINE",
"120 -144 LINE",
"120 19 LINE",
"144 1 OFFCURVE",
"174 -10 OFFCURVE",
"207 -10 CURVE SMOOTH",
"222 -10 LINE SMOOTH",
"271 -10 OFFCURVE",
"314 14 OFFCURVE",
"341 51 CURVE",
"374 0 LINE",
"394 0 LINE",
"394 500 LINE",
"334 500 LINE",
"334 134 LINE SMOOTH",
"334 86 OFFCURVE",
"295 47 OFFCURVE",
"247 47 CURVE SMOOTH",
"207 47 LINE SMOOTH",
"159 47 OFFCURVE",
"120 86 OFFCURVE",
"120 134 CURVE SMOOTH",
"120 500 LINE",
"60 500 LINE"
);
}
);
width = 454;
}
);
unicode = 00B5;
},
{
glyphname = percent;
lastChange = "2016-08-24 09:13:07 +0000";
layers = (
{
background = {
paths = (
{
closed = 1;
nodes = (
"171 657 LINE",
"148 657 OFFCURVE",
"130 639 OFFCURVE",
"130 616 CURVE SMOOTH",
"130 593 LINE",
"82 599 LINE",
"82 616 LINE SMOOTH",
"82 665 OFFCURVE",
"122 704 OFFCURVE",
"169 704 CURVE SMOOTH",
"183 704 LINE SMOOTH",
"232 704 OFFCURVE",
"270 668 OFFCURVE",
"270 612 CURVE SMOOTH",
"270 525 OFFCURVE",
"156 411 OFFCURVE",
"156 411 CURVE",
"273 411 LINE",
"273 364 LINE",
"75 364 LINE",
"75 402 LINE",
"75 402 OFFCURVE",
"222 517 OFFCURVE",
"222 612 CURVE SMOOTH",
"222 642 OFFCURVE",
"203 657 OFFCURVE",
"182 657 CURVE SMOOTH"
);
}
);
};
hints = (
{
place = "{70, 48}";
},
{
place = "{210, 48}";
},
{
place = "{417, 48}";
},
{
place = "{557, 48}";
},
{
horizontal = 1;
place = "{-4, 47}";
},
{
horizontal = 1;
place = "{293, 47}";
},
{
horizontal = 1;
place = "{360, 47}";
},
{
horizontal = 1;
place = "{657, 47}";
},
{
horizontal = 1;
place = "{700, -20}";
target = down;
type = TopGhost;
},
{
horizontal = 1;
place = "{0, 21}";
target = up;
type = BottomGhost;
}
);
layerId = UUID0;
paths = (
{
closed = 1;
nodes = (
"258 617 LINE SMOOTH",
"258 664 OFFCURVE",
"220 704 OFFCURVE",
"171 704 CURVE SMOOTH",
"157 704 LINE SMOOTH",
"108 704 OFFCURVE",
"70 664 OFFCURVE",
"70 617 CURVE SMOOTH",
"70 447 LINE SMOOTH",
"70 400 OFFCURVE",
"108 360 OFFCURVE",
"157 360 CURVE SMOOTH",
"171 360 LINE SMOOTH",
"220 360 OFFCURVE",
"258 400 OFFCURVE",
"258 447 CURVE SMOOTH"
);
},
{
closed = 1;
nodes = (
"210 447 LINE SMOOTH",
"210 425 OFFCURVE",
"192 407 OFFCURVE",
"169 407 CURVE SMOOTH",
"159 407 LINE SMOOTH",
"136 407 OFFCURVE",
"118 425 OFFCURVE",
"118 447 CURVE SMOOTH",
"118 617 LINE SMOOTH",
"118 639 OFFCURVE",
"136 657 OFFCURVE",
"159 657 CURVE SMOOTH",
"169 657 LINE SMOOTH",
"192 657 OFFCURVE",
"210 639 OFFCURVE",
"210 617 CURVE SMOOTH"
);
},
{
closed = 1;
nodes = (
"605 253 LINE SMOOTH",
"605 300 OFFCURVE",
"567 340 OFFCURVE",
"518 340 CURVE SMOOTH",
"504 340 LINE SMOOTH",
"455 340 OFFCURVE",
"417 300 OFFCURVE",
"417 253 CURVE SMOOTH",
"417 83 LINE SMOOTH",
"417 36 OFFCURVE",
"455 -4 OFFCURVE",
"504 -4 CURVE SMOOTH",
"518 -4 LINE SMOOTH",
"567 -4 OFFCURVE",
"605 36 OFFCURVE",
"605 83 CURVE SMOOTH"
);
},
{
closed = 1;
nodes = (
"557 83 LINE SMOOTH",
"557 61 OFFCURVE",
"539 43 OFFCURVE",
"516 43 CURVE SMOOTH",
"506 43 LINE SMOOTH",
"483 43 OFFCURVE",
"465 61 OFFCURVE",
"465 83 CURVE SMOOTH",
"465 253 LINE SMOOTH",
"465 275 OFFCURVE",
"483 293 OFFCURVE",
"506 293 CURVE SMOOTH",
"516 293 LINE SMOOTH",
"539 293 OFFCURVE",
"557 275 OFFCURVE",
"557 253 CURVE SMOOTH"
);
},
{
closed = 1;
nodes = (
"166 0 LINE",
"565 700 LINE",
"509 700 LINE",
"110 0 LINE"
);
}
);
width = 675;
}
);
unicode = 0025;
},
{
glyphname = at;
lastChange = "2016-08-24 09:13:07 +0000";
layers = (
{
hints = (
{
place = "{70, 62}";
},
{
place = "{867, 62}";
},
{
horizontal = 1;
place = "{-210, 58}";
},
{
horizontal = 1;
place = "{-25, 54}";
},
{
horizontal = 1;
place = "{-10, 57}";
},
{
horizontal = 1;
place = "{453, 57}";
},
{
horizontal = 1;
place = "{652, 58}";
},
{
horizontal = 1;
place = "{500, -20}";
target = down;
type = TopGhost;
}
);
layerId = UUID0;
paths = (
{
closed = 1;
nodes = (
"689 500 LINE",
"669 500 LINE",
"628 449 LINE",
"607 486 OFFCURVE",
"567 510 OFFCURVE",
"518 510 CURVE SMOOTH",
"503 510 LINE SMOOTH",
"423 510 OFFCURVE",
"346 444 OFFCURVE",
"335 363 CURVE SMOOTH",
"304 137 LINE SMOOTH",
"303 130 OFFCURVE",
"303 123 OFFCURVE",
"303 116 CURVE SMOOTH",
"303 45 OFFCURVE",
"356 -10 OFFCURVE",
"430 -10 CURVE SMOOTH",
"445 -10 LINE SMOOTH",
"494 -10 OFFCURVE",
"540 14 OFFCURVE",
"573 51 CURVE",
"593 8 OFFCURVE",
"627 -25 OFFCURVE",
"698 -25 CURVE SMOOTH",
"854 -25 OFFCURVE",
"929 167 OFFCURVE",
"929 325 CURVE SMOOTH",
"929 545 OFFCURVE",
"789 710 OFFCURVE",
"559 710 CURVE SMOOTH",
"284 710 OFFCURVE",
"70 465 OFFCURVE",
"70 179 CURVE SMOOTH",
"70 -42 OFFCURVE",
"199 -210 OFFCURVE",
"429 -210 CURVE SMOOTH",
"494 -210 OFFCURVE",
"574 -193 OFFCURVE",
"637 -155 CURVE",
"617 -109 LINE",
"579 -131 OFFCURVE",
"510 -152 OFFCURVE",
"437 -152 CURVE SMOOTH",
"237 -152 OFFCURVE",
"132 -5 OFFCURVE",
"132 187 CURVE SMOOTH",
"132 438 OFFCURVE",
"311 652 OFFCURVE",
"551 652 CURVE SMOOTH",
"752 652 OFFCURVE",
"867 509 OFFCURVE",
"867 317 CURVE SMOOTH",
"867 150 OFFCURVE",
"789 29 OFFCURVE",
"710 29 CURVE SMOOTH",
"656 29 OFFCURVE",
"628 59 OFFCURVE",
"637 124 CURVE SMOOTH"
);
},
{
closed = 1;
nodes = (
"396 366 LINE SMOOTH",
"403 414 OFFCURVE",
"447 453 OFFCURVE",
"495 453 CURVE SMOOTH",
"535 453 LINE SMOOTH",
"579 453 OFFCURVE",
"611 421 OFFCURVE",
"611 379 CURVE SMOOTH",
"611 375 OFFCURVE",
"611 370 OFFCURVE",
"610 366 CURVE",
"577 134 LINE SMOOTH",
"570 86 OFFCURVE",
"526 47 OFFCURVE",
"478 47 CURVE SMOOTH",
"438 47 LINE SMOOTH",
"394 47 OFFCURVE",
"362 79 OFFCURVE",
"362 122 CURVE SMOOTH",
"362 126 OFFCURVE",
"363 130 OFFCURVE",
"363 134 CURVE"
);
}
);
width = 999;
}
);
unicode = 0040;
},
{
glyphname = ampersand;
lastChange = "2016-08-24 09:13:07 +0000";
layers = (
{
hints = (
{
place = "{70, 63}";
},
{
place = "{381, 63}";
},
{
horizontal = 1;
place = "{-10, 60}";
},
{
horizontal = 1;
place = "{323, 59}";
},
{
horizontal = 1;
place = "{650, 60}";
}
);
layerId = UUID0;
paths = (
{
closed = 1;
nodes = (
"542 -10 LINE",
"551 50 LINE",
"536 50 LINE SMOOTH",
"476 50 OFFCURVE",
"446 96 OFFCURVE",
"444 155 CURVE",
"444 323 LINE",
"541 323 LINE",
"541 383 LINE",
"444 383 LINE",
"444 456 LINE",
"381 446 LINE",
"381 382 LINE",
"245 382 LINE SMOOTH",
"183 382 OFFCURVE",
"133 432 OFFCURVE",
"133 494 CURVE SMOOTH",
"133 538 LINE SMOOTH",
"133 600 OFFCURVE",
"183 650 OFFCURVE",
"245 650 CURVE SMOOTH",
"269 650 LINE SMOOTH",
"331 650 OFFCURVE",
"381 600 OFFCURVE",
"381 538 CURVE SMOOTH",
"381 523 LINE",
"444 533 LINE",
"444 538 LINE SMOOTH",
"444 633 OFFCURVE",
"367 710 OFFCURVE",
"272 710 CURVE SMOOTH",
"242 710 LINE SMOOTH",
"147 710 OFFCURVE",
"70 633 OFFCURVE",
"70 538 CURVE SMOOTH",
"70 504 LINE SMOOTH",
"70 438 OFFCURVE",
"107 381 OFFCURVE",
"161 352 CURVE",
"107 323 OFFCURVE",
"70 266 OFFCURVE",
"70 200 CURVE SMOOTH",
"70 162 LINE SMOOTH",
"70 67 OFFCURVE",
"147 -10 OFFCURVE",
"242 -10 CURVE SMOOTH",
"272 -10 LINE SMOOTH",
"327 -10 OFFCURVE",
"377 16 OFFCURVE",
"409 57 CURVE",
"434 16 OFFCURVE",
"477 -10 OFFCURVE",
"533 -10 CURVE SMOOTH"
);
},
{
closed = 1;
nodes = (
"245 50 LINE SMOOTH",
"183 50 OFFCURVE",
"133 100 OFFCURVE",
"133 162 CURVE SMOOTH",
"133 210 LINE SMOOTH",
"133 272 OFFCURVE",
"183 322 OFFCURVE",
"245 322 CURVE SMOOTH",
"381 322 LINE",
"381 157 LINE",
"378 97 OFFCURVE",
"329 50 OFFCURVE",
"269 50 CURVE SMOOTH"
);
}
);
width = 621;
}
);
unicode = 0026;
},
{
glyphname = paragraph;
lastChange = "2016-08-24 09:13:07 +0000";
layers = (
{
hints = (
{
place = "{272, 63}";
},
{
place = "{421, 63}";
},
{
horizontal = 1;
place = "{640, 60}";
},
{
horizontal = 1;
place = "{-200, 21}";
target = up;
type = BottomGhost;
}
);
layerId = UUID0;
paths = (
{
closed = 1;
nodes = (
"335 640 LINE",
"421 640 LINE",
"421 -200 LINE",
"484 -200 LINE",
"484 700 LINE",
"222 700 LINE SMOOTH",
"127 700 OFFCURVE",
"50 623 OFFCURVE",
"50 528 CURVE SMOOTH",
"50 481 LINE SMOOTH",
"50 386 OFFCURVE",
"127 309 OFFCURVE",
"222 309 CURVE SMOOTH",
"272 309 LINE",
"272 -200 LINE",
"335 -200 LINE"
);
}
);
width = 564;
}
);
unicode = 00B6;
},
{
glyphname = section;
lastChange = "2016-08-24 09:13:07 +0000";
layers = (
{
background = {
paths = (
{
closed = 1;
nodes = (
"464 432 OFFCURVE",
"133 335 OFFCURVE",
"133 538 CURVE SMOOTH",
"133 600 OFFCURVE",
"183 650 OFFCURVE",
"245 650 CURVE SMOOTH",
"284 650 LINE SMOOTH",
"346 650 OFFCURVE",
"396 600 OFFCURVE",
"396 538 CURVE SMOOTH",
"396 510 LINE",
"459 520 LINE",
"459 538 LINE SMOOTH",
"459 633 OFFCURVE",
"382 710 OFFCURVE",
"287 710 CURVE SMOOTH",
"242 710 LINE SMOOTH",
"147 710 OFFCURVE",
"70 633 OFFCURVE",
"70 538 CURVE SMOOTH",
"70 275 OFFCURVE",
"401 378 OFFCURVE",
"401 162 CURVE SMOOTH",
"401 100 OFFCURVE",
"351 50 OFFCURVE",
"289 50 CURVE SMOOTH",
"245 50 LINE SMOOTH",
"183 50 OFFCURVE",
"133 100 OFFCURVE",
"133 162 CURVE SMOOTH",
"133 200 LINE",
"70 190 LINE",
"70 162 LINE SMOOTH",
"70 67 OFFCURVE",
"147 -10 OFFCURVE",
"242 -10 CURVE SMOOTH",
"292 -10 LINE SMOOTH",
"387 -10 OFFCURVE",
"464 67 OFFCURVE",
"464 162 CURVE SMOOTH"
);
}
);
};
hints = (
{
place = "{60, 63}";
},
{
place = "{70, 63}";
},
{
place = "{401, 63}";
},
{
horizontal = 1;
place = "{-210, 60}";
},
{
horizontal = 1;
place = "{650, 60}";
}
);
layerId = UUID0;
paths = (
{
closed = 1;
nodes = (
"70 525 LINE SMOOTH",
"70 484 OFFCURVE",
"79 453 OFFCURVE",
"95 428 CURVE",
"79 401 OFFCURVE",
"70 371 OFFCURVE",
"70 338 CURVE SMOOTH",
"70 325 LINE SMOOTH",
"70 84 OFFCURVE",
"401 176 OFFCURVE",
"401 -17 CURVE SMOOTH",
"401 -38 LINE SMOOTH",
"401 -100 OFFCURVE",
"346 -150 OFFCURVE",
"284 -150 CURVE SMOOTH",
"240 -150 LINE SMOOTH",
"178 -150 OFFCURVE",
"123 -100 OFFCURVE",
"123 -38 CURVE SMOOTH",
"123 0 LINE",
"60 -10 LINE",
"60 -38 LINE SMOOTH",
"60 -133 OFFCURVE",
"142 -210 OFFCURVE",
"237 -210 CURVE SMOOTH",
"287 -210 LINE SMOOTH",
"382 -210 OFFCURVE",
"464 -133 OFFCURVE",
"464 -38 CURVE SMOOTH",
"464 -17 LINE SMOOTH",
"464 22 OFFCURVE",
"455 52 OFFCURVE",
"440 77 CURVE",
"455 102 OFFCURVE",
"464 131 OFFCURVE",
"464 162 CURVE SMOOTH",
"464 183 LINE SMOOTH",
"464 423 OFFCURVE",
"133 344 OFFCURVE",
"133 525 CURVE SMOOTH",
"133 538 LINE SMOOTH",
"133 600 OFFCURVE",
"183 650 OFFCURVE",
"245 650 CURVE SMOOTH",
"284 650 LINE SMOOTH",
"346 650 OFFCURVE",
"396 600 OFFCURVE",
"396 538 CURVE SMOOTH",
"396 510 LINE",
"459 520 LINE",
"459 538 LINE SMOOTH",
"459 633 OFFCURVE",
"382 710 OFFCURVE",
"287 710 CURVE SMOOTH",
"242 710 LINE SMOOTH",
"147 710 OFFCURVE",
"70 633 OFFCURVE",
"70 538 CURVE SMOOTH"
);
},
{
closed = 1;
nodes = (
"401 162 LINE SMOOTH",
"401 149 OFFCURVE",
"398 138 OFFCURVE",
"394 127 CURVE",
"297 199 OFFCURVE",
"133 197 OFFCURVE",
"133 325 CURVE SMOOTH",
"133 338 LINE SMOOTH",
"133 353 OFFCURVE",
"136 368 OFFCURVE",
"142 381 CURVE",
"239 314 OFFCURVE",
"401 318 OFFCURVE",
"401 183 CURVE SMOOTH"
);
}
);
width = 524;
}
);
unicode = 00A7;
},
{
glyphname = copyright;
lastChange = "2016-08-24 09:13:07 +0000";
layers = (
{
hints = (
{
place = "{50, 56}";
},
{
place = "{283, 56}";
},
{
place = "{481, 56}";
},
{
place = "{714, 56}";
},
{
horizontal = 1;
place = "{-10, 52}";
},
{
horizontal = 1;
place = "{125, 54}";
},
{
horizontal = 1;
place = "{521, 54}";
},
{
horizontal = 1;
place = "{658, 52}";
}
);
layerId = UUID0;
paths = (
{
closed = 1;
nodes = (
"50 151 OFFCURVE",
"211 -10 OFFCURVE",
"410 -10 CURVE SMOOTH",
"609 -10 OFFCURVE",
"770 151 OFFCURVE",
"770 350 CURVE SMOOTH",
"770 549 OFFCURVE",
"609 710 OFFCURVE",
"410 710 CURVE SMOOTH",
"211 710 OFFCURVE",
"50 549 OFFCURVE",
"50 350 CURVE SMOOTH"
);
},
{
closed = 1;
nodes = (
"106 521 OFFCURVE",
"239 658 OFFCURVE",
"410 658 CURVE SMOOTH",
"581 658 OFFCURVE",
"714 521 OFFCURVE",
"714 350 CURVE SMOOTH",
"714 179 OFFCURVE",
"581 42 OFFCURVE",
"410 42 CURVE SMOOTH",
"239 42 OFFCURVE",
"106 179 OFFCURVE",
"106 350 CURVE SMOOTH"
);
},
{
closed = 1;
nodes = (
"537 262 LINE",
"481 271 LINE",
"481 237 LINE SMOOTH",
"481 205 OFFCURVE",
"455 179 OFFCURVE",
"423 179 CURVE SMOOTH",
"397 179 LINE SMOOTH",
"365 179 OFFCURVE",
"339 205 OFFCURVE",
"339 237 CURVE SMOOTH",
"339 463 LINE SMOOTH",
"339 495 OFFCURVE",
"365 521 OFFCURVE",
"397 521 CURVE SMOOTH",
"423 521 LINE SMOOTH",
"455 521 OFFCURVE",
"481 495 OFFCURVE",
"481 463 CURVE SMOOTH",
"481 429 LINE",
"537 438 LINE",
"537 463 LINE SMOOTH",
"537 525 OFFCURVE",
"487 575 OFFCURVE",
"425 575 CURVE SMOOTH",
"395 575 LINE SMOOTH",
"333 575 OFFCURVE",
"283 525 OFFCURVE",
"283 463 CURVE SMOOTH",
"283 237 LINE SMOOTH",
"283 175 OFFCURVE",
"333 125 OFFCURVE",
"395 125 CURVE SMOOTH",
"425 125 LINE SMOOTH",
"487 125 OFFCURVE",
"537 175 OFFCURVE",
"537 237 CURVE SMOOTH"
);
}
);
width = 820;
}
);
unicode = 00A9;
},
{
glyphname = registered;
lastChange = "2016-08-24 09:13:07 +0000";
layers = (
{
hints = (
{
place = "{50, 56}";
},
{
place = "{293, 56}";
},
{
place = "{491, 56}";
},
{
place = "{714, 56}";
},
{
horizontal = 1;
place = "{-10, 52}";
},
{
horizontal = 1;
place = "{515, 54}";
},
{
horizontal = 1;
place = "{658, 52}";
}
);
layerId = UUID0;
paths = (
{
closed = 1;
nodes = (
"50 151 OFFCURVE",
"211 -10 OFFCURVE",
"410 -10 CURVE SMOOTH",
"609 -10 OFFCURVE",
"770 151 OFFCURVE",
"770 350 CURVE SMOOTH",
"770 549 OFFCURVE",
"609 710 OFFCURVE",
"410 710 CURVE SMOOTH",
"211 710 OFFCURVE",
"50 549 OFFCURVE",
"50 350 CURVE SMOOTH"
);
},
{
closed = 1;
nodes = (
"106 521 OFFCURVE",
"239 658 OFFCURVE",
"410 658 CURVE SMOOTH",
"581 658 OFFCURVE",
"714 521 OFFCURVE",
"714 350 CURVE SMOOTH",
"714 179 OFFCURVE",
"581 42 OFFCURVE",
"410 42 CURVE SMOOTH",
"239 42 OFFCURVE",
"106 179 OFFCURVE",
"106 350 CURVE SMOOTH"
);
},
{
closed = 1;
nodes = (
"555 131 LINE",
"525 177 OFFCURVE",
"484 244 OFFCURVE",
"452 293 CURVE",
"507 300 OFFCURVE",
"547 348 OFFCURVE",
"547 405 CURVE SMOOTH",
"547 457 LINE SMOOTH",
"547 519 OFFCURVE",
"497 569 OFFCURVE",
"435 569 CURVE SMOOTH",
"293 569 LINE",
"293 131 LINE",
"349 131 LINE",
"349 292 LINE",
"386 292 LINE",
"489 131 LINE"
);
},
{
closed = 1;
nodes = (
"491 405 LINE SMOOTH",
"491 372 OFFCURVE",
"465 346 OFFCURVE",
"433 346 CURVE SMOOTH",
"349 346 LINE",
"349 515 LINE",
"433 515 LINE SMOOTH",
"465 515 OFFCURVE",
"491 489 OFFCURVE",
"491 457 CURVE SMOOTH"
);
}
);
width = 820;
}
);
unicode = 00AE;
},
{
glyphname = trademark;
lastChange = "2016-08-24 09:13:07 +0000";
layers = (
{
hints = (
{
place = "{140, 52}";
},
{
place = "{340, 52}";
},
{
place = "{599, 51}";
},
{
horizontal = 1;
place = "{654, 46}";
},
{
horizontal = 1;
place = "{370, 21}";
target = up;
type = BottomGhost;
}
);
layerId = UUID0;
paths = (
{
closed = 1;
nodes = (
"650 370 LINE",
"650 700 LINE",
"620 700 LINE",
"495 447 LINE",
"371 700 LINE",
"340 700 LINE",
"340 370 LINE",
"392 370 LINE",
"392 554 LINE",
"482 370 LINE",
"509 370 LINE",
"599 555 LINE",
"599 370 LINE"
);
},
{
closed = 1;
nodes = (
"292 654 LINE",
"292 700 LINE",
"40 700 LINE",
"40 654 LINE",
"140 654 LINE",
"140 370 LINE",
"192 370 LINE",
"192 654 LINE"
);
}
);
width = 720;
}
);
unicode = 2122;
},
{
glyphname = degree;
lastChange = "2016-08-24 09:13:07 +0000";
layers = (
{
hints = (
{
place = "{70, 56}";
},
{
place = "{292, 56}";
},
{
horizontal = 1;
place = "{432, 55}";
},
{
horizontal = 1;
place = "{655, 55}";
}
);
layerId = UUID0;
paths = (
{
closed = 1;
nodes = (
"70 494 OFFCURVE",
"132 432 OFFCURVE",
"209 432 CURVE SMOOTH",
"286 432 OFFCURVE",
"348 494 OFFCURVE",
"348 571 CURVE SMOOTH",
"348 648 OFFCURVE",
"286 710 OFFCURVE",
"209 710 CURVE SMOOTH",
"132 710 OFFCURVE",
"70 648 OFFCURVE",
"70 571 CURVE SMOOTH"
);
},
{
closed = 1;
nodes = (
"126 617 OFFCURVE",
"163 655 OFFCURVE",
"209 655 CURVE SMOOTH",
"255 655 OFFCURVE",
"292 617 OFFCURVE",
"292 571 CURVE SMOOTH",
"292 525 OFFCURVE",
"255 487 OFFCURVE",
"209 487 CURVE SMOOTH",
"163 487 OFFCURVE",
"126 525 OFFCURVE",
"126 571 CURVE SMOOTH"
);
}
);
width = 418;
}
);
unicode = 00B0;
},
{
glyphname = bar;
lastChange = "2016-08-24 09:13:07 +0000";
layers = (
{
hints = (
{
place = "{80, 63}";
},
{
horizontal = 1;
place = "{-200, 21}";
target = up;
type = BottomGhost;
},
{
horizontal = 1;
place = "{784, -20}";
target = down;
type = TopGhost;
}
);
layerId = UUID0;
paths = (
{
closed = 1;
nodes = (
"143 -200 LINE",
"143 784 LINE",
"80 784 LINE",
"80 -200 LINE"
);
}
);
width = 223;
}
);
unicode = 007C;
},
{
glyphname = brokenbar;
lastChange = "2016-08-24 09:13:07 +0000";
layers = (
{
hints = (
{
place = "{80, 63}";
},
{
horizontal = 1;
place = "{-200, 21}";
target = up;
type = BottomGhost;
},
{
horizontal = 1;
place = "{784, -20}";
target = down;
type = TopGhost;
}
);
layerId = UUID0;
paths = (
{
closed = 1;
nodes = (
"143 -200 LINE",
"143 242 LINE",
"80 242 LINE",
"80 -200 LINE"
);
},
{
closed = 1;
nodes = (
"143 342 LINE",
"143 784 LINE",
"80 784 LINE",
"80 342 LINE"
);
}
);
width = 223;
}
);
unicode = 00A6;
},
{
glyphname = dagger;
lastChange = "2016-08-24 09:13:07 +0000";
layers = (
{
hints = (
{
place = "{192, 67}";
},
{
place = "{198, 55}";
},
{
horizontal = 1;
place = "{438, 60}";
},
{
horizontal = 1;
place = "{-200, 21}";
target = up;
type = BottomGhost;
},
{
horizontal = 1;
place = "{700, -20}";
target = down;
type = TopGhost;
}
);
layerId = UUID0;
paths = (
{
closed = 1;
nodes = (
"40 504 LINE",
"40 433 LINE",
"194 444 LINE",
"203 -200 LINE",
"249 -200 LINE",
"257 444 LINE",
"412 433 LINE",
"412 504 LINE",
"258 493 LINE",
"261 700 LINE",
"191 700 LINE",
"194 493 LINE"
);
}
);
width = 452;
}
);
unicode = 2020;
},
{
glyphname = daggerdbl;
lastChange = "2016-08-24 09:13:07 +0000";
layers = (
{
hints = (
{
place = "{193, 65}";
},
{
place = "{199, 53}";
},
{
horizontal = 1;
place = "{1, 60}";
},
{
horizontal = 1;
place = "{438, 60}";
},
{
horizontal = 1;
place = "{-200, 21}";
target = up;
type = BottomGhost;
},
{
horizontal = 1;
place = "{700, -20}";
target = down;
type = TopGhost;
}
);
layerId = UUID0;
paths = (
{
closed = 1;
nodes = (
"40 504 LINE",
"40 433 LINE",
"197 444 LINE",
"202 248 LINE",
"197 56 LINE",
"40 67 LINE",
"40 -4 LINE",
"196 7 LINE",
"191 -200 LINE",
"261 -200 LINE",
"256 6 LINE",
"412 -4 LINE",
"412 67 LINE",
"254 56 LINE",
"250 249 LINE",
"255 444 LINE",
"412 433 LINE",
"412 504 LINE",
"256 493 LINE",
"261 700 LINE",
"191 700 LINE",
"196 493 LINE"
);
}
);
width = 452;
}
);
unicode = 2021;
},
{
glyphname = asciicircum;
lastChange = "2016-08-24 09:13:07 +0000";
layers = (
{
hints = (
{
horizontal = 1;
place = "{700, -20}";
target = down;
type = TopGhost;
},
{
horizontal = 1;
place = "{379, 21}";
target = up;
type = BottomGhost;
}
);
layerId = UUID0;
paths = (
{
closed = 1;
nodes = (
"303 700 LINE",
"236 700 LINE",
"60 379 LINE",
"127 379 LINE",
"269 642 LINE",
"412 379 LINE",
"479 379 LINE"
);
}
);
width = 539;
}
);
unicode = 005E;
},
{
glyphname = dotaccentcmb;
lastChange = "2016-08-24 09:13:07 +0000";
layers = (
{
hints = (
{
place = "{100, 75}";
},
{
horizontal = 1;
place = "{601, 75}";
}
);
layerId = UUID0;
paths = (
{
closed = 1;
nodes = (
"175 601 LINE",
"175 676 LINE",
"100 676 LINE",
"100 601 LINE"
);
}
);
width = 275;
}
);
unicode = 0307;
},
{
glyphname = commaaccent;
lastChange = "2016-08-24 09:13:07 +0000";
layers = (
{
hints = (
{
horizontal = 1;
place = "{-80, -20}";
target = down;
type = TopGhost;
},
{
horizontal = 1;
place = "{-295, 21}";
target = up;
type = BottomGhost;
}
);
layerId = UUID0;
paths = (
{
closed = 1;
nodes = (
"145 -80 LINE",
"70 -80 LINE",
"70 -295 LINE",
"95 -295 LINE"
);
}
);
width = 215;
}
);
unicode = F6C3;
},
{
glyphname = acute;
lastChange = "2016-08-24 09:13:07 +0000";
layers = (
{
hints = (
{
horizontal = 1;
place = "{700, -20}";
target = down;
type = TopGhost;
},
{
horizontal = 1;
place = "{580, 21}";
target = up;
type = BottomGhost;
}
);
layerId = UUID0;
paths = (
{
closed = 1;
nodes = (
"280 700 LINE",
"180 700 LINE",
"100 580 LINE",
"145 580 LINE"
);
}
);
width = 380;
}
);
unicode = 00B4;
},
{
glyphname = breve;
lastChange = "2016-08-24 09:13:07 +0000";
layers = (
{
hints = (
{
horizontal = 1;
place = "{593, 46}";
},
{
horizontal = 1;
place = "{593, 113}";
}
);
layerId = UUID0;
paths = (
{
closed = 1;
nodes = (
"100 706 LINE",
"100 632 OFFCURVE",
"158 593 OFFCURVE",
"232 593 CURVE SMOOTH",
"306 593 OFFCURVE",
"365 632 OFFCURVE",
"365 706 CURVE",
"319 706 LINE",
"319 661 OFFCURVE",
"280 639 OFFCURVE",
"232 639 CURVE SMOOTH",
"184 639 OFFCURVE",
"146 661 OFFCURVE",
"146 706 CURVE"
);
}
);
width = 465;
}
);
unicode = 02D8;
},
{
glyphname = caron;
lastChange = "2016-08-24 09:13:07 +0000";
layers = (
{
hints = (
{
horizontal = 1;
place = "{700, -20}";
target = down;
type = TopGhost;
},
{
horizontal = 1;
place = "{580, 21}";
target = up;
type = BottomGhost;
}
);
layerId = UUID0;
paths = (
{
closed = 1;
nodes = (
"360 700 LINE",
"300 700 LINE",
"230 620 LINE",
"160 700 LINE",
"100 700 LINE",
"200 580 LINE",
"260 580 LINE"
);
}
);
width = 460;
}
);
unicode = 02C7;
},
{
glyphname = cedilla;
lastChange = "2016-08-24 09:13:07 +0000";
layers = (
{
hints = (
{
place = "{216, 46}";
},
{
horizontal = 1;
place = "{-201, 21}";
target = up;
type = BottomGhost;
},
{
horizontal = 1;
place = "{0, -20}";
target = down;
type = TopGhost;
}
);
layerId = UUID0;
paths = (
{
closed = 1;
nodes = (
"158 -73 LINE",
"189 -71 OFFCURVE",
"216 -87 OFFCURVE",
"216 -118 CURVE SMOOTH",
"216 -143 OFFCURVE",
"197 -157 OFFCURVE",
"173 -157 CURVE SMOOTH",
"148 -157 OFFCURVE",
"129 -143 OFFCURVE",
"123 -135 CURVE",
"100 -170 LINE",
"119 -189 OFFCURVE",
"143 -201 OFFCURVE",
"172 -201 CURVE SMOOTH",
"224 -201 OFFCURVE",
"262 -170 OFFCURVE",
"262 -120 CURVE SMOOTH",
"262 -77 OFFCURVE",
"228 -55 OFFCURVE",
"216 -50 CURVE",
"245 0 LINE",
"203 0 LINE"
);
}
);
width = 362;
}
);
unicode = 00B8;
},
{
glyphname = circumflex;
lastChange = "2016-08-24 09:13:07 +0000";
layers = (
{
hints = (
{
horizontal = 1;
place = "{700, -20}";
target = down;
type = TopGhost;
},
{
horizontal = 1;
place = "{580, 21}";
target = up;
type = BottomGhost;
}
);
layerId = UUID0;
paths = (
{
closed = 1;
nodes = (
"260 700 LINE",
"200 700 LINE",
"100 580 LINE",
"160 580 LINE",
"230 660 LINE",
"300 580 LINE",
"360 580 LINE"
);
}
);
width = 460;
}
);
unicode = 02C6;
},
{
glyphname = dieresis;
lastChange = "2016-08-24 09:13:07 +0000";
layers = (
{
hints = (
{
place = "{100, 75}";
},
{
place = "{289, 75}";
},
{
horizontal = 1;
place = "{601, 75}";
}
);
layerId = UUID0;
paths = (
{
closed = 1;
nodes = (
"175 601 LINE",
"175 676 LINE",
"100 676 LINE",
"100 601 LINE"
);
},
{
closed = 1;
nodes = (
"364 601 LINE",
"364 676 LINE",
"289 676 LINE",
"289 601 LINE"
);
}
);
width = 464;
}
);
unicode = 00A8;
},
{
glyphname = dotaccent;
lastChange = "2016-08-24 09:13:07 +0000";
layers = (
{
hints = (
{
place = "{100, 75}";
},
{
horizontal = 1;
place = "{601, 75}";
}
);
layerId = UUID0;
paths = (
{
closed = 1;
nodes = (
"175 601 LINE",
"175 676 LINE",
"100 676 LINE",
"100 601 LINE"
);
}
);
width = 275;
}
);
unicode = 02D9;
},
{
glyphname = grave;
lastChange = "2016-08-24 09:13:07 +0000";
layers = (
{
hints = (
{
horizontal = 1;
place = "{580, 21}";
target = up;
type = BottomGhost;
},
{
horizontal = 1;
place = "{700, -20}";
target = down;
type = TopGhost;
}
);
layerId = UUID0;
paths = (
{
closed = 1;
nodes = (
"235 580 LINE",
"280 580 LINE",
"200 700 LINE",
"100 700 LINE"
);
}
);
width = 380;
}
);
unicode = 0060;
},
{
glyphname = hungarumlaut;
lastChange = "2016-08-24 09:13:07 +0000";
layers = (
{
hints = (
{
horizontal = 1;
place = "{580, 120}";
}
);
layerId = UUID0;
paths = (
{
closed = 1;
nodes = (
"280 700 LINE",
"180 700 LINE",
"100 580 LINE",
"145 580 LINE"
);
},
{
closed = 1;
nodes = (
"436 700 LINE",
"336 700 LINE",
"256 580 LINE",
"301 580 LINE"
);
}
);
width = 536;
}
);
unicode = 02DD;
},
{
glyphname = macron;
lastChange = "2016-08-24 09:13:07 +0000";
layers = (
{
hints = (
{
horizontal = 1;
place = "{601, 48}";
}
);
layerId = UUID0;
paths = (
{
closed = 1;
nodes = (
"100 601 LINE",
"393 601 LINE",
"393 649 LINE",
"100 649 LINE"
);
}
);
width = 493;
}
);
unicode = 00AF;
},
{
glyphname = ogonek;
lastChange = "2016-08-24 09:13:07 +0000";
layers = (
{
hints = (
{
place = "{100, 46}";
},
{
horizontal = 1;
place = "{-197, 40}";
},
{
horizontal = 1;
place = "{0, -20}";
target = down;
type = TopGhost;
}
);
layerId = UUID0;
paths = (
{
closed = 1;
nodes = (
"141 0 LINE SMOOTH",
"141 0 OFFCURVE",
"100 -51 OFFCURVE",
"100 -112 CURVE SMOOTH",
"100 -167 OFFCURVE",
"137 -197 OFFCURVE",
"183 -197 CURVE SMOOTH",
"223 -197 OFFCURVE",
"248 -171 OFFCURVE",
"248 -171 CURVE",
"248 -136 LINE",
"248 -136 OFFCURVE",
"226 -157 OFFCURVE",
"198 -157 CURVE SMOOTH",
"166 -157 OFFCURVE",
"146 -138 OFFCURVE",
"146 -99 CURVE SMOOTH",
"146 -53 OFFCURVE",
"178 0 OFFCURVE",
"178 0 CURVE SMOOTH"
);
}
);
width = 348;
}
);
unicode = 02DB;
},
{
glyphname = ring;
lastChange = "2016-08-24 09:13:07 +0000";
layers = (
{
hints = (
{
place = "{100, 50}";
},
{
place = "{257, 50}";
},
{
horizontal = 1;
place = "{560, 49}";
},
{
horizontal = 1;
place = "{718, 49}";
}
);
layerId = UUID0;
paths = (
{
closed = 1;
nodes = (
"100 606 OFFCURVE",
"146 560 OFFCURVE",
"203 560 CURVE SMOOTH",
"260 560 OFFCURVE",
"307 606 OFFCURVE",
"307 663 CURVE SMOOTH",
"307 720 OFFCURVE",
"260 767 OFFCURVE",
"203 767 CURVE SMOOTH",
"146 767 OFFCURVE",
"100 720 OFFCURVE",
"100 663 CURVE SMOOTH"
);
},
{
closed = 1;
nodes = (
"150 693 OFFCURVE",
"174 718 OFFCURVE",
"203 718 CURVE SMOOTH",
"233 718 OFFCURVE",
"257 693 OFFCURVE",
"257 663 CURVE SMOOTH",
"257 634 OFFCURVE",
"233 609 OFFCURVE",
"203 609 CURVE SMOOTH",
"174 609 OFFCURVE",
"150 634 OFFCURVE",
"150 663 CURVE SMOOTH"
);
}
);
width = 407;
}
);
unicode = 02DA;
},
{
glyphname = tilde;
lastChange = "2016-08-24 09:13:07 +0000";
layers = (
{
hints = (
{
horizontal = 1;
place = "{595, 49}";
},
{
horizontal = 1;
place = "{651, 49}";
},
{
horizontal = 1;
place = "{596, 21}";
target = up;
type = BottomGhost;
}
);
layerId = UUID0;
paths = (
{
closed = 1;
nodes = (
"275 644 OFFCURVE",
"247 700 OFFCURVE",
"189 700 CURVE SMOOTH",
"129 700 OFFCURVE",
"100 654 OFFCURVE",
"100 596 CURVE",
"146 596 LINE",
"146 628 OFFCURVE",
"160 651 OFFCURVE",
"187 651 CURVE SMOOTH",
"227 651 OFFCURVE",
"258 595 OFFCURVE",
"320 595 CURVE SMOOTH",
"379 595 OFFCURVE",
"409 642 OFFCURVE",
"409 700 CURVE",
"363 700 LINE",
"363 667 OFFCURVE",
"348 644 OFFCURVE",
"321 644 CURVE SMOOTH"
);
}
);
width = 509;
}
);
unicode = 02DC;
},
{
glyphname = acute.cap;
lastChange = "2016-08-24 09:13:07 +0000";
layers = (
{
hints = (
{
horizontal = 1;
place = "{900, -20}";
target = down;
type = TopGhost;
},
{
horizontal = 1;
place = "{780, 21}";
target = up;
type = BottomGhost;
}
);
layerId = UUID0;
paths = (
{
closed = 1;
nodes = (
"280 900 LINE",
"180 900 LINE",
"100 780 LINE",
"145 780 LINE"
);
}
);
width = 380;
}
);
},
{
glyphname = caron.cap;
lastChange = "2016-08-24 09:13:07 +0000";
layers = (
{
hints = (
{
horizontal = 1;
place = "{900, -20}";
target = down;
type = TopGhost;
},
{
horizontal = 1;
place = "{780, 21}";
target = up;
type = BottomGhost;
}
);
layerId = UUID0;
paths = (
{
closed = 1;
nodes = (
"360 900 LINE",
"300 900 LINE",
"230 820 LINE",
"160 900 LINE",
"100 900 LINE",
"200 780 LINE",
"260 780 LINE"
);
}
);
width = 460;
}
);
},
{
glyphname = circumflex.cap;
lastChange = "2016-08-24 09:13:07 +0000";
layers = (
{
hints = (
{
horizontal = 1;
place = "{900, -20}";
target = down;
type = TopGhost;
},
{
horizontal = 1;
place = "{780, 21}";
target = up;
type = BottomGhost;
}
);
layerId = UUID0;
paths = (
{
closed = 1;
nodes = (
"260 900 LINE",
"200 900 LINE",
"100 780 LINE",
"160 780 LINE",
"230 860 LINE",
"300 780 LINE",
"360 780 LINE"
);
}
);
width = 460;
}
);
},
{
glyphname = dieresis.cap;
lastChange = "2016-08-24 09:13:07 +0000";
layers = (
{
hints = (
{
place = "{100, 75}";
},
{
place = "{289, 75}";
},
{
horizontal = 1;
place = "{801, 75}";
}
);
layerId = UUID0;
paths = (
{
closed = 1;
nodes = (
"175 801 LINE",
"175 876 LINE",
"100 876 LINE",
"100 801 LINE"
);
},
{
closed = 1;
nodes = (
"364 801 LINE",
"364 876 LINE",
"289 876 LINE",
"289 801 LINE"
);
}
);
width = 464;
}
);
},
{
glyphname = grave.cap;
lastChange = "2016-08-24 09:13:07 +0000";
layers = (
{
hints = (
{
horizontal = 1;
place = "{780, 21}";
target = up;
type = BottomGhost;
},
{
horizontal = 1;
place = "{900, -20}";
target = down;
type = TopGhost;
}
);
layerId = UUID0;
paths = (
{
closed = 1;
nodes = (
"235 780 LINE",
"280 780 LINE",
"200 900 LINE",
"100 900 LINE"
);
}
);
width = 380;
}
);
},
{
glyphname = ring.cap;
lastChange = "2016-08-24 09:13:07 +0000";
layers = (
{
hints = (
{
place = "{100, 50}";
},
{
place = "{257, 50}";
},
{
horizontal = 1;
place = "{772, 49}";
},
{
horizontal = 1;
place = "{930, 49}";
}
);
layerId = UUID0;
paths = (
{
closed = 1;
nodes = (
"100 818 OFFCURVE",
"146 772 OFFCURVE",
"203 772 CURVE SMOOTH",
"260 772 OFFCURVE",
"307 818 OFFCURVE",
"307 875 CURVE SMOOTH",
"307 932 OFFCURVE",
"260 979 OFFCURVE",
"203 979 CURVE SMOOTH",
"146 979 OFFCURVE",
"100 932 OFFCURVE",
"100 875 CURVE SMOOTH"
);
},
{
closed = 1;
nodes = (
"150 905 OFFCURVE",
"174 930 OFFCURVE",
"203 930 CURVE SMOOTH",
"233 930 OFFCURVE",
"257 905 OFFCURVE",
"257 875 CURVE SMOOTH",
"257 846 OFFCURVE",
"233 821 OFFCURVE",
"203 821 CURVE SMOOTH",
"174 821 OFFCURVE",
"150 846 OFFCURVE",
"150 875 CURVE SMOOTH"
);
}
);
width = 407;
}
);
},
{
glyphname = tilde.cap;
lastChange = "2016-08-24 09:13:07 +0000";
layers = (
{
hints = (
{
horizontal = 1;
place = "{795, 49}";
},
{
horizontal = 1;
place = "{851, 49}";
},
{
horizontal = 1;
place = "{796, 21}";
target = up;
type = BottomGhost;
}
);
layerId = UUID0;
paths = (
{
closed = 1;
nodes = (
"275 844 OFFCURVE",
"247 900 OFFCURVE",
"189 900 CURVE SMOOTH",
"129 900 OFFCURVE",
"100 854 OFFCURVE",
"100 796 CURVE",
"146 796 LINE",
"146 828 OFFCURVE",
"160 851 OFFCURVE",
"187 851 CURVE SMOOTH",
"227 851 OFFCURVE",
"258 795 OFFCURVE",
"320 795 CURVE SMOOTH",
"379 795 OFFCURVE",
"409 842 OFFCURVE",
"409 900 CURVE",
"363 900 LINE",
"363 867 OFFCURVE",
"348 844 OFFCURVE",
"321 844 CURVE SMOOTH"
);
}
);
width = 522;
}
);
},
